{
.appVersion = "1352";
DisplayStrings = (

glyphs = (
{
glyphname = .notdef;
lastChange = "2022-01-12 01:24:05 +0000";
layers = (
{
background = {
paths = (
{
closed = 1;
nodes = (
"437 10 LINE",
"437 810 LINE",
"62 810 LINE",
"62 10 LINE"
);
},
{
closed = 1;
nodes = (
"251 378 LINE",
"368 73 LINE",
"133 73 LINE"
);
},
{
closed = 1;
nodes = (
"124 708 LINE",
"237 415 LINE",
"124 122 LINE"
);
},
{
closed = 1;
nodes = (
"265 415 LINE",
"374 700 LINE",
"374 130 LINE"
);
},
{
closed = 1;
nodes = (
"137 748 LINE",
"364 748 LINE",
"251 451 LINE"
);
}
);
};
layerId = "34A4CA4C-C6E5-4C7E-9ECD-8F87FE1EC3A4";
paths = (
{
closed = 1;
nodes = (
"62 10 LINE",
"437 10 LINE",
"437 810 LINE",
"62 810 LINE"
);
},
{
closed = 1;
nodes = (
"133 73 LINE",
"251 378 LINE",
"368 73 LINE"
);
},
{
closed = 1;
nodes = (
"124 708 LINE",
"237 415 LINE",
"124 122 LINE"
);
},
{
closed = 1;
nodes = (
"374 130 LINE",
"265 415 LINE",
"374 700 LINE"
);
},
{
closed = 1;
nodes = (
"137 748 LINE",
"364 748 LINE",
"251 451 LINE"
);
}
);
width = 499;
}
);
note = .notdef;
},
{
glyphname = A;
lastChange = "2022-01-12 14:29:33 +0000";
layers = (
{
background = {
paths = (
{
closed = 1;
nodes = (
"445 277 LINE SMOOTH",
"446 284 OFFCURVE",
"446 291 OFFCURVE",
"446 299 CURVE SMOOTH",
"449 366 OFFCURVE",
"446 404 OFFCURVE",
"445 468 CURVE SMOOTH",
"445 496 OFFCURVE",
"454 526 OFFCURVE",
"442 558 CURVE",
"420 597 OFFCURVE",
"380 596 OFFCURVE",
"355 566 CURVE",
"342 537 OFFCURVE",
"300 494 OFFCURVE",
"276 458 CURVE SMOOTH",
"275 457 LINE SMOOTH",
"241 404 OFFCURVE",
"227 371 OFFCURVE",
"195 321 CURVE SMOOTH",
"159 266 OFFCURVE",
"133 237 OFFCURVE",
"96 181 CURVE SMOOTH",
"74 149 OFFCURVE",
"61 129 OFFCURVE",
"37 95 CURVE SMOOTH",
"17 66 OFFCURVE",
"2 47 OFFCURVE",
"-18 17 CURVE SMOOTH",
"-36 -11 OFFCURVE",
"6 -45 OFFCURVE",
"25 -17 CURVE SMOOTH",
"44 13 OFFCURVE",
"57 53 OFFCURVE",
"79 84 CURVE SMOOTH",
"101 117 OFFCURVE",
"115 137 OFFCURVE",
"138 171 CURVE SMOOTH",
"143 177 OFFCURVE",
"148 184 OFFCURVE",
"152 190 CURVE",
"148 173 OFFCURVE",
"161 153 OFFCURVE",
"183 161 CURVE SMOOTH",
"211 172 OFFCURVE",
"228 188 OFFCURVE",
"250 196 CURVE",
"251 196 LINE",
"306 216 OFFCURVE",
"346 217 OFFCURVE",
"397 223 CURVE",
"395 176 OFFCURVE",
"392 121 OFFCURVE",
"382 57 CURVE SMOOTH",
"370 -23 OFFCURVE",
"374 22 OFFCURVE",
"359 -65 CURVE SMOOTH",
"353 -97 OFFCURVE",
"402 -101 OFFCURVE",
"408 -69 CURVE SMOOTH",
"423 20 OFFCURVE",
"424 60 OFFCURVE",
"432 139 CURVE SMOOTH",
"436 174 OFFCURVE",
"438 201 OFFCURVE",
"441 229 CURVE",
"446 231 OFFCURVE",
"450 232 OFFCURVE",
"454 233 CURVE SMOOTH",
"487 239 OFFCURVE",
"487 278 OFFCURVE",
"455 278 CURVE SMOOTH",
"452 278 OFFCURVE",
"449 278 OFFCURVE",
"445 278 CURVE"
);
},
{
closed = 1;
nodes = (
"168 208 OFFCURVE",
"167 207 OFFCURVE",
"166 206 CURVE SMOOTH",
"188 236 OFFCURVE",
"208 256 OFFCURVE",
"235 299 CURVE SMOOTH",
"269 352 OFFCURVE",
"283 385 OFFCURVE",
"316 435 CURVE",
"316 434 LINE",
"345 478 OFFCURVE",
"359 513 OFFCURVE",
"383 529 CURVE",
"388 534 OFFCURVE",
"395 534 OFFCURVE",
"398 534 CURVE",
"402 524 OFFCURVE",
"401 497 OFFCURVE",
"397 464 CURVE",
"398 398 OFFCURVE",
"402 370 OFFCURVE",
"400 306 CURVE SMOOTH",
"399 272 LINE",
"331 260 OFFCURVE",
"238 237 OFFCURVE",
"238 237 CURVE",
"210 231 OFFCURVE",
"194 218 OFFCURVE",
"169 209 CURVE"
);
}
);
};
layerId = "34A4CA4C-C6E5-4C7E-9ECD-8F87FE1EC3A4";
paths = (
{
closed = 1;
nodes = (
"393 -91 OFFCURVE",
"405 -84 OFFCURVE",
"408 -69 CURVE SMOOTH",
"423 20 OFFCURVE",
"424 60 OFFCURVE",
"432 139 CURVE SMOOTH",
"436 174 OFFCURVE",
"438 201 OFFCURVE",
"441 229 CURVE",
"446 231 OFFCURVE",
"450 232 OFFCURVE",
"454 233 CURVE SMOOTH",
"471 236 OFFCURVE",
"479 247 OFFCURVE",
"479 258 CURVE SMOOTH",
"479 268 OFFCURVE",
"471 278 OFFCURVE",
"455 278 CURVE SMOOTH",
"445 278 LINE",
"445 277 LINE SMOOTH",
"446 284 OFFCURVE",
"446 291 OFFCURVE",
"446 299 CURVE SMOOTH",
"447 320 OFFCURVE",
"447 339 OFFCURVE",
"447 356 CURVE SMOOTH",
"447 393 OFFCURVE",
"446 424 OFFCURVE",
"445 468 CURVE SMOOTH",
"445 485 OFFCURVE",
"448 502 OFFCURVE",
"448 521 CURVE SMOOTH",
"448 533 OFFCURVE",
"447 545 OFFCURVE",
"442 558 CURVE",
"430 578 OFFCURVE",
"414 588 OFFCURVE",
"397 588 CURVE SMOOTH",
"382 588 OFFCURVE",
"367 580 OFFCURVE",
"355 566 CURVE",
"342 537 OFFCURVE",
"300 494 OFFCURVE",
"276 458 CURVE SMOOTH",
"275 457 LINE SMOOTH",
"241 404 OFFCURVE",
"227 371 OFFCURVE",
"195 321 CURVE SMOOTH",
"159 266 OFFCURVE",
"133 237 OFFCURVE",
"96 181 CURVE SMOOTH",
"74 149 OFFCURVE",
"61 129 OFFCURVE",
"37 95 CURVE SMOOTH",
"17 66 OFFCURVE",
"2 47 OFFCURVE",
"-18 17 CURVE SMOOTH",
"-21 12 OFFCURVE",
"-22 7 OFFCURVE",
"-22 3 CURVE SMOOTH",
"-22 -13 OFFCURVE",
"-8 -27 OFFCURVE",
"7 -27 CURVE SMOOTH",
"13 -27 OFFCURVE",
"20 -24 OFFCURVE",
"25 -17 CURVE SMOOTH",
"44 13 OFFCURVE",
"57 53 OFFCURVE",
"79 84 CURVE SMOOTH",
"101 117 OFFCURVE",
"115 137 OFFCURVE",
"138 171 CURVE SMOOTH",
"143 177 OFFCURVE",
"148 184 OFFCURVE",
"152 190 CURVE",
"149 176 OFFCURVE",
"157 159 OFFCURVE",
"173 159 CURVE SMOOTH",
"176 159 OFFCURVE",
"180 160 OFFCURVE",
"183 161 CURVE SMOOTH",
"211 172 OFFCURVE",
"228 188 OFFCURVE",
"250 196 CURVE",
"251 196 LINE",
"306 216 OFFCURVE",
"346 217 OFFCURVE",
"397 223 CURVE",
"395 176 OFFCURVE",
"392 121 OFFCURVE",
"382 57 CURVE SMOOTH",
"370 -23 OFFCURVE",
"374 22 OFFCURVE",
"359 -65 CURVE SMOOTH",
"356 -82 OFFCURVE",
"368 -91 OFFCURVE",
"381 -91 CURVE SMOOTH"
);
},
{
closed = 1;
nodes = (
"188 236 OFFCURVE",
"208 256 OFFCURVE",
"235 299 CURVE SMOOTH",
"269 352 OFFCURVE",
"283 385 OFFCURVE",
"316 435 CURVE",
"316 434 LINE",
"345 478 OFFCURVE",
"359 513 OFFCURVE",
"383 529 CURVE",
"388 534 OFFCURVE",
"395 534 OFFCURVE",
"398 534 CURVE",
"400 530 OFFCURVE",
"401 522 OFFCURVE",
"401 512 CURVE SMOOTH",
"401 499 OFFCURVE",
"399 483 OFFCURVE",
"397 464 CURVE",
"398 411 OFFCURVE",
"401 382 OFFCURVE",
"401 340 CURVE SMOOTH",
"401 330 OFFCURVE",
"400 318 OFFCURVE",
"400 306 CURVE SMOOTH",
"399 272 LINE",
"331 260 OFFCURVE",
"238 237 OFFCURVE",
"238 237 CURVE",
"210 231 OFFCURVE",
"194 218 OFFCURVE",
"169 209 CURVE",
"166 206 LINE"
);
}
);
width = 498;
}
);
note = A;
unicode = 0041;
},
{
glyphname = AE;
lastChange = "2022-01-12 01:24:45 +0000";
layers = (
{
background = {
paths = (
{
closed = 1;
nodes = (
"166 206 LINE",
"188 236 OFFCURVE",
"208 256 OFFCURVE",
"235 299 CURVE SMOOTH",
"269 352 OFFCURVE",
"283 385 OFFCURVE",
"316 435 CURVE",
"316 434 LINE",
"345 478 OFFCURVE",
"359 513 OFFCURVE",
"383 529 CURVE",
"388 534 OFFCURVE",
"395 534 OFFCURVE",
"398 534 CURVE",
"402 524 OFFCURVE",
"401 497 OFFCURVE",
"397 464 CURVE",
"398 398 OFFCURVE",
"402 370 OFFCURVE",
"400 306 CURVE SMOOTH",
"399 272 LINE",
"331 260 OFFCURVE",
"238 237 OFFCURVE",
"238 237 CURVE",
"210 231 OFFCURVE",
"194 218 OFFCURVE",
"169 209 CURVE"
);
},
{
closed = 1;
nodes = (
"839 552 LINE SMOOTH",
"896 563 OFFCURVE",
"901 614 OFFCURVE",
"830 599 CURVE SMOOTH",
"707 574 OFFCURVE",
"563 473 OFFCURVE",
"477 362 CURVE SMOOTH",
"467 349 OFFCURVE",
"457 334 OFFCURVE",
"447 319 CURVE",
"448 374 OFFCURVE",
"446 411 OFFCURVE",
"445 468 CURVE SMOOTH",
"445 496 OFFCURVE",
"454 526 OFFCURVE",
"442 558 CURVE",
"420 597 OFFCURVE",
"380 596 OFFCURVE",
"355 566 CURVE",
"342 537 OFFCURVE",
"300 494 OFFCURVE",
"276 458 CURVE SMOOTH",
"275 457 LINE SMOOTH",
"241 404 OFFCURVE",
"227 371 OFFCURVE",
"195 321 CURVE SMOOTH",
"159 266 OFFCURVE",
"133 237 OFFCURVE",
"96 181 CURVE SMOOTH",
"74 149 OFFCURVE",
"61 129 OFFCURVE",
"37 95 CURVE SMOOTH",
"17 66 OFFCURVE",
"2 47 OFFCURVE",
"-18 17 CURVE SMOOTH",
"-36 -11 OFFCURVE",
"6 -45 OFFCURVE",
"25 -17 CURVE SMOOTH",
"44 13 OFFCURVE",
"57 53 OFFCURVE",
"79 84 CURVE SMOOTH",
"101 117 OFFCURVE",
"115 137 OFFCURVE",
"138 171 CURVE SMOOTH",
"143 177 OFFCURVE",
"148 184 OFFCURVE",
"152 190 CURVE",
"148 173 OFFCURVE",
"161 153 OFFCURVE",
"183 161 CURVE SMOOTH",
"211 172 OFFCURVE",
"228 188 OFFCURVE",
"250 196 CURVE",
"251 196 LINE",
"306 216 OFFCURVE",
"346 217 OFFCURVE",
"397 223 CURVE",
"397 219 LINE",
"383 177 OFFCURVE",
"377 133 OFFCURVE",
"387 90 CURVE",
"385 79 OFFCURVE",
"384 68 OFFCURVE",
"382 57 CURVE SMOOTH",
"370 -23 OFFCURVE",
"374 22 OFFCURVE",
"359 -65 CURVE SMOOTH",
"353 -97 OFFCURVE",
"402 -101 OFFCURVE",
"408 -69 CURVE SMOOTH",
"414 -34 OFFCURVE",
"418 -7 OFFCURVE",
"421 18 CURVE",
"466 -39 OFFCURVE",
"567 -69 OFFCURVE",
"673 -48 CURVE SMOOTH",
"806 -22 OFFCURVE",
"842 44 OFFCURVE",
"855 53 CURVE SMOOTH",
"883 70 OFFCURVE",
"880 123 OFFCURVE",
"852 106 CURVE",
"819 79 OFFCURVE",
"786 28 OFFCURVE",
"662 -1 CURVE SMOOTH",
"570 -22 OFFCURVE",
"479 17 OFFCURVE",
"453 54 CURVE SMOOTH",
"437 77 OFFCURVE",
"428 105 OFFCURVE",
"431 133 CURVE SMOOTH",
"432 139 LINE",
"435 166 LINE SMOOTH",
"437 188 OFFCURVE",
"446 211 OFFCURVE",
"456 233 CURVE",
"478 239 OFFCURVE",
"484 259 OFFCURVE",
"474 271 CURVE",
"486 293 OFFCURVE",
"500 314 OFFCURVE",
"515 333 CURVE SMOOTH",
"592 434 OFFCURVE",
"734 531 OFFCURVE",
"838 552 CURVE SMOOTH"
);
},
{
closed = 1;
nodes = (
"472 215 OFFCURVE",
"485 170 OFFCURVE",
"516 181 CURVE SMOOTH",
"545 191 OFFCURVE",
"562 206 OFFCURVE",
"584 214 CURVE",
"584 215 LINE",
"658 241 OFFCURVE",
"704 234 OFFCURVE",
"788 251 CURVE SMOOTH",
"821 257 OFFCURVE",
"821 296 OFFCURVE",
"789 296 CURVE SMOOTH",
"741 296 OFFCURVE",
"572 254 OFFCURVE",
"572 254 CURVE",
"544 249 OFFCURVE",
"528 235 OFFCURVE",
"503 226 CURVE SMOOTH"
);
}
);
};
layerId = "34A4CA4C-C6E5-4C7E-9ECD-8F87FE1EC3A4";
paths = (
{
closed = 1;
nodes = (
"393 -91 OFFCURVE",
"405 -84 OFFCURVE",
"408 -69 CURVE SMOOTH",
"414 -34 OFFCURVE",
"418 -7 OFFCURVE",
"421 18 CURVE",
"456 -27 OFFCURVE",
"526 -55 OFFCURVE",
"605 -55 CURVE SMOOTH",
"627 -55 OFFCURVE",
"650 -53 OFFCURVE",
"673 -48 CURVE SMOOTH",
"806 -22 OFFCURVE",
"842 44 OFFCURVE",
"855 53 CURVE SMOOTH",
"868 61 OFFCURVE",
"874 77 OFFCURVE",
"874 90 CURVE SMOOTH",
"874 101 OFFCURVE",
"870 109 OFFCURVE",
"862 109 CURVE SMOOTH",
"859 109 OFFCURVE",
"856 108 OFFCURVE",
"852 106 CURVE",
"819 79 OFFCURVE",
"786 28 OFFCURVE",
"662 -1 CURVE SMOOTH",
"644 -5 OFFCURVE",
"626 -7 OFFCURVE",
"609 -7 CURVE SMOOTH",
"537 -7 OFFCURVE",
"474 24 OFFCURVE",
"453 54 CURVE SMOOTH",
"437 77 OFFCURVE",
"428 105 OFFCURVE",
"431 133 CURVE SMOOTH",
"432 139 LINE",
"435 166 LINE SMOOTH",
"437 188 OFFCURVE",
"446 211 OFFCURVE",
"456 233 CURVE",
"471 237 OFFCURVE",
"479 248 OFFCURVE",
"479 258 CURVE SMOOTH",
"479 263 OFFCURVE",
"477 267 OFFCURVE",
"474 271 CURVE",
"486 293 OFFCURVE",
"500 314 OFFCURVE",
"515 333 CURVE SMOOTH",
"592 434 OFFCURVE",
"734 531 OFFCURVE",
"838 552 CURVE SMOOTH",
"839 552 LINE SMOOTH",
"867 558 OFFCURVE",
"883 573 OFFCURVE",
"883 585 CURVE SMOOTH",
"883 594 OFFCURVE",
"873 602 OFFCURVE",
"853 602 CURVE SMOOTH",
"847 602 OFFCURVE",
"839 601 OFFCURVE",
"830 599 CURVE SMOOTH",
"707 574 OFFCURVE",
"563 473 OFFCURVE",
"477 362 CURVE SMOOTH",
"467 349 OFFCURVE",
"457 334 OFFCURVE",
"447 319 CURVE",
"448 374 OFFCURVE",
"446 411 OFFCURVE",
"445 468 CURVE SMOOTH",
"445 485 OFFCURVE",
"448 502 OFFCURVE",
"448 521 CURVE SMOOTH",
"448 533 OFFCURVE",
"447 545 OFFCURVE",
"442 558 CURVE",
"430 578 OFFCURVE",
"414 588 OFFCURVE",
"397 588 CURVE SMOOTH",
"382 588 OFFCURVE",
"367 580 OFFCURVE",
"355 566 CURVE",
"342 537 OFFCURVE",
"300 494 OFFCURVE",
"276 458 CURVE SMOOTH",
"275 457 LINE SMOOTH",
"241 404 OFFCURVE",
"227 371 OFFCURVE",
"195 321 CURVE SMOOTH",
"159 266 OFFCURVE",
"133 237 OFFCURVE",
"96 181 CURVE SMOOTH",
"74 149 OFFCURVE",
"61 129 OFFCURVE",
"37 95 CURVE SMOOTH",
"17 66 OFFCURVE",
"2 47 OFFCURVE",
"-18 17 CURVE SMOOTH",
"-21 12 OFFCURVE",
"-22 7 OFFCURVE",
"-22 3 CURVE SMOOTH",
"-22 -13 OFFCURVE",
"-8 -27 OFFCURVE",
"7 -27 CURVE SMOOTH",
"13 -27 OFFCURVE",
"20 -24 OFFCURVE",
"25 -17 CURVE SMOOTH",
"44 13 OFFCURVE",
"57 53 OFFCURVE",
"79 84 CURVE SMOOTH",
"101 117 OFFCURVE",
"115 137 OFFCURVE",
"138 171 CURVE SMOOTH",
"143 177 OFFCURVE",
"148 184 OFFCURVE",
"152 190 CURVE",
"149 176 OFFCURVE",
"157 159 OFFCURVE",
"173 159 CURVE SMOOTH",
"176 159 OFFCURVE",
"180 160 OFFCURVE",
"183 161 CURVE SMOOTH",
"211 172 OFFCURVE",
"228 188 OFFCURVE",
"250 196 CURVE",
"251 196 LINE",
"306 216 OFFCURVE",
"346 217 OFFCURVE",
"397 223 CURVE",
"397 219 LINE",
"388 191 OFFCURVE",
"382 163 OFFCURVE",
"382 134 CURVE SMOOTH",
"382 120 OFFCURVE",
"384 105 OFFCURVE",
"387 90 CURVE",
"385 79 OFFCURVE",
"384 68 OFFCURVE",
"382 57 CURVE SMOOTH",
"370 -23 OFFCURVE",
"374 22 OFFCURVE",
"359 -65 CURVE SMOOTH",
"356 -82 OFFCURVE",
"368 -91 OFFCURVE",
"381 -91 CURVE SMOOTH"
);
},
{
closed = 1;
nodes = (
"188 236 OFFCURVE",
"208 256 OFFCURVE",
"235 299 CURVE SMOOTH",
"269 352 OFFCURVE",
"283 385 OFFCURVE",
"316 435 CURVE",
"316 434 LINE",
"345 478 OFFCURVE",
"359 513 OFFCURVE",
"383 529 CURVE",
"388 534 OFFCURVE",
"395 534 OFFCURVE",
"398 534 CURVE",
"400 530 OFFCURVE",
"401 522 OFFCURVE",
"401 512 CURVE SMOOTH",
"401 499 OFFCURVE",
"399 483 OFFCURVE",
"397 464 CURVE",
"398 411 OFFCURVE",
"401 382 OFFCURVE",
"401 340 CURVE SMOOTH",
"401 330 OFFCURVE",
"400 318 OFFCURVE",
"400 306 CURVE SMOOTH",
"399 272 LINE",
"331 260 OFFCURVE",
"238 237 OFFCURVE",
"238 237 CURVE",
"210 231 OFFCURVE",
"194 218 OFFCURVE",
"169 209 CURVE",
"166 206 LINE"
);
},
{
closed = 1;
nodes = (
"510 179 OFFCURVE",
"513 180 OFFCURVE",
"516 181 CURVE SMOOTH",
"545 191 OFFCURVE",
"562 206 OFFCURVE",
"584 214 CURVE",
"584 215 LINE",
"658 241 OFFCURVE",
"704 234 OFFCURVE",
"788 251 CURVE SMOOTH",
"805 254 OFFCURVE",
"813 265 OFFCURVE",
"813 276 CURVE SMOOTH",
"813 286 OFFCURVE",
"805 296 OFFCURVE",
"789 296 CURVE SMOOTH",
"741 296 OFFCURVE",
"572 254 OFFCURVE",
"572 254 CURVE",
"544 249 OFFCURVE",
"528 235 OFFCURVE",
"503 226 CURVE SMOOTH",
"491 222 OFFCURVE",
"485 212 OFFCURVE",
"485 202 CURVE SMOOTH",
"485 190 OFFCURVE",
"494 179 OFFCURVE",
"507 179 CURVE SMOOTH"
);
}
);
width = 893;
}
);
note = AE;
unicode = 00C6;
},
{
glyphname = B;
lastChange = "2022-01-12 01:24:45 +0000";
layers = (
{
background = {
paths = (
{
closed = 1;
nodes = (
"294 479 LINE SMOOTH",
"298 511 OFFCURVE",
"255 521 OFFCURVE",
"239 493 CURVE SMOOTH",
"174 384 OFFCURVE",
"39 90 OFFCURVE",
"28 -15 CURVE SMOOTH",
"23 -64 OFFCURVE",
"78 -76 OFFCURVE",
"99 -63 CURVE SMOOTH",
"132 -43 OFFCURVE",
"79 -22 OFFCURVE",
"81 -2 CURVE SMOOTH",
"87 67 OFFCURVE",
"142 206 OFFCURVE",
"216 344 CURVE SMOOTH",
"232 374 OFFCURVE",
"256 395 OFFCURVE",
"271 416 CURVE SMOOTH",
"282 432 OFFCURVE",
"292 467 OFFCURVE",
"294 480 CURVE SMOOTH"
);
},
{
closed = 1;
nodes = (
"193 585 OFFCURVE",
"218 541 OFFCURVE",
"253 553 CURVE",
"272 562 OFFCURVE",
"280 570 OFFCURVE",
"291 570 CURVE",
"291 570 LINE",
"325 580 OFFCURVE",
"338 584 OFFCURVE",
"366 576 CURVE SMOOTH",
"422 559 OFFCURVE",
"448 540 OFFCURVE",
"432 480 CURVE SMOOTH",
"418 430 OFFCURVE",
"324 401 OFFCURVE",
"279 388 CURVE SMOOTH",
"253 380 OFFCURVE",
"262 341 OFFCURVE",
"289 341 CURVE SMOOTH",
"315 341 OFFCURVE",
"346 333 OFFCURVE",
"384 323 CURVE SMOOTH",
"440 309 OFFCURVE",
"468 309 OFFCURVE",
"495 282 CURVE SMOOTH",
"531 246 OFFCURVE",
"544 245 OFFCURVE",
"531 212 CURVE SMOOTH",
"508 156 OFFCURVE",
"473 120 OFFCURVE",
"413 78 CURVE SMOOTH",
"343 28 OFFCURVE",
"239 4 OFFCURVE",
"188 -4 CURVE SMOOTH",
"152 -10 OFFCURVE",
"163 -57 OFFCURVE",
"199 -52 CURVE SMOOTH",
"255 -44 OFFCURVE",
"365 -20 OFFCURVE",
"449 38 CURVE SMOOTH",
"514 84 OFFCURVE",
"556 131 OFFCURVE",
"584 194 CURVE SMOOTH",
"613 258 OFFCURVE",
"559 292 OFFCURVE",
"537 314 CURVE SMOOTH",
"495 356 OFFCURVE",
"446 358 OFFCURVE",
"401 370 CURVE SMOOTH",
"395 371 OFFCURVE",
"390 373 OFFCURVE",
"387 373 CURVE",
"428 393 OFFCURVE",
"469 421 OFFCURVE",
"486 467 CURVE SMOOTH",
"518 551 OFFCURVE",
"451 607 OFFCURVE",
"382 623 CURVE SMOOTH",
"341 632 OFFCURVE",
"307 628 OFFCURVE",
"273 617 CURVE",
"273 617 LINE",
"252 610 OFFCURVE",
"241 601 OFFCURVE",
"228 597 CURVE SMOOTH"
);
}
);
};
layerId = "34A4CA4C-C6E5-4C7E-9ECD-8F87FE1EC3A4";
paths = (
{
closed = 1;
nodes = (
"255 -44 OFFCURVE",
"365 -20 OFFCURVE",
"449 38 CURVE SMOOTH",
"514 84 OFFCURVE",
"556 131 OFFCURVE",
"584 194 CURVE SMOOTH",
"590 207 OFFCURVE",
"592 219 OFFCURVE",
"592 229 CURVE SMOOTH",
"592 271 OFFCURVE",
"555 296 OFFCURVE",
"537 314 CURVE SMOOTH",
"495 356 OFFCURVE",
"446 358 OFFCURVE",
"401 370 CURVE SMOOTH",
"395 371 OFFCURVE",
"390 373 OFFCURVE",
"387 373 CURVE",
"428 393 OFFCURVE",
"469 421 OFFCURVE",
"486 467 CURVE SMOOTH",
"492 482 OFFCURVE",
"494 496 OFFCURVE",
"494 509 CURVE SMOOTH",
"494 570 OFFCURVE",
"439 610 OFFCURVE",
"382 623 CURVE SMOOTH",
"366 626 OFFCURVE",
"352 628 OFFCURVE",
"338 628 CURVE SMOOTH",
"315 628 OFFCURVE",
"294 624 OFFCURVE",
"273 617 CURVE SMOOTH",
"252 610 OFFCURVE",
"241 601 OFFCURVE",
"228 597 CURVE SMOOTH",
"216 593 OFFCURVE",
"211 585 OFFCURVE",
"211 577 CURVE SMOOTH",
"211 564 OFFCURVE",
"224 551 OFFCURVE",
"241 551 CURVE SMOOTH",
"245 551 OFFCURVE",
"249 552 OFFCURVE",
"253 553 CURVE",
"272 562 OFFCURVE",
"280 570 OFFCURVE",
"291 570 CURVE",
"313 576 OFFCURVE",
"326 580 OFFCURVE",
"339 580 CURVE SMOOTH",
"347 580 OFFCURVE",
"356 579 OFFCURVE",
"366 576 CURVE SMOOTH",
"411 562 OFFCURVE",
"437 547 OFFCURVE",
"437 511 CURVE SMOOTH",
"437 502 OFFCURVE",
"435 492 OFFCURVE",
"432 480 CURVE SMOOTH",
"418 430 OFFCURVE",
"324 401 OFFCURVE",
"279 388 CURVE SMOOTH",
"268 385 OFFCURVE",
"263 376 OFFCURVE",
"263 367 CURVE SMOOTH",
"263 354 OFFCURVE",
"273 341 OFFCURVE",
"289 341 CURVE SMOOTH",
"315 341 OFFCURVE",
"346 333 OFFCURVE",
"384 323 CURVE SMOOTH",
"440 309 OFFCURVE",
"468 309 OFFCURVE",
"495 282 CURVE SMOOTH",
"522 255 OFFCURVE",
"536 248 OFFCURVE",
"536 232 CURVE SMOOTH",
"536 227 OFFCURVE",
"534 220 OFFCURVE",
"531 212 CURVE SMOOTH",
"508 156 OFFCURVE",
"473 120 OFFCURVE",
"413 78 CURVE SMOOTH",
"343 28 OFFCURVE",
"239 4 OFFCURVE",
"188 -4 CURVE SMOOTH",
"173 -7 OFFCURVE",
"166 -17 OFFCURVE",
"166 -27 CURVE SMOOTH",
"166 -41 OFFCURVE",
"178 -55 OFFCURVE",
"199 -52 CURVE SMOOTH"
);
},
{
closed = 1;
nodes = (
"87 -68 OFFCURVE",
"94 -66 OFFCURVE",
"99 -63 CURVE SMOOTH",
"107 -58 OFFCURVE",
"110 -53 OFFCURVE",
"110 -49 CURVE SMOOTH",
"110 -33 OFFCURVE",
"79 -17 OFFCURVE",
"81 -2 CURVE SMOOTH",
"87 67 OFFCURVE",
"142 206 OFFCURVE",
"216 344 CURVE SMOOTH",
"232 374 OFFCURVE",
"256 395 OFFCURVE",
"271 416 CURVE SMOOTH",
"282 432 OFFCURVE",
"292 467 OFFCURVE",
"294 480 CURVE SMOOTH",
"294 479 LINE SMOOTH",
"296 498 OFFCURVE",
"282 509 OFFCURVE",
"267 509 CURVE SMOOTH",
"256 509 OFFCURVE",
"245 504 OFFCURVE",
"239 493 CURVE SMOOTH",
"174 384 OFFCURVE",
"39 90 OFFCURVE",
"28 -15 CURVE SMOOTH",
"24 -52 OFFCURVE",
"55 -68 OFFCURVE",
"79 -68 CURVE SMOOTH"
);
}
);
width = 598;
}
);
note = B;
unicode = 0042;
},
{
glyphname = C;
lastChange = "2022-01-12 01:24:45 +0000";
layers = (
{
background = {
paths = (
{
closed = 1;
nodes = (
"604 489 LINE SMOOTH",
"604 457 OFFCURVE",
"656 475 OFFCURVE",
"656 507 CURVE",
"642 589 OFFCURVE",
"553 614 OFFCURVE",
"482 599 CURVE SMOOTH",
"360 574 OFFCURVE",
"216 473 OFFCURVE",
"130 362 CURVE SMOOTH",
"63 274 OFFCURVE",
"-9 139 OFFCURVE",
"67 27 CURVE SMOOTH",
"109 -36 OFFCURVE",
"215 -70 OFFCURVE",
"326 -48 CURVE SMOOTH",
"459 -22 OFFCURVE",
"494 44 OFFCURVE",
"508 53 CURVE SMOOTH",
"535 70 OFFCURVE",
"533 123 OFFCURVE",
"505 106 CURVE",
"472 79 OFFCURVE",
"439 28 OFFCURVE",
"315 -1 CURVE SMOOTH",
"223 -22 OFFCURVE",
"132 17 OFFCURVE",
"106 54 CURVE SMOOTH",
"54 131 OFFCURVE",
"104 250 OFFCURVE",
"168 333 CURVE SMOOTH",
"245 434 OFFCURVE",
"387 531 OFFCURVE",
"491 552 CURVE SMOOTH",
"549 563 OFFCURVE",
"604 525 OFFCURVE",
"604 490 CURVE SMOOTH"
);
}
);
};
layerId = "34A4CA4C-C6E5-4C7E-9ECD-8F87FE1EC3A4";
paths = (
{
closed = 1;
nodes = (
"280 -55 OFFCURVE",
"303 -53 OFFCURVE",
"326 -48 CURVE SMOOTH",
"459 -22 OFFCURVE",
"494 44 OFFCURVE",
"508 53 CURVE SMOOTH",
"521 61 OFFCURVE",
"527 78 OFFCURVE",
"527 91 CURVE SMOOTH",
"527 101 OFFCURVE",
"523 109 OFFCURVE",
"515 109 CURVE SMOOTH",
"512 109 OFFCURVE",
"509 108 OFFCURVE",
"505 106 CURVE",
"472 79 OFFCURVE",
"439 28 OFFCURVE",
"315 -1 CURVE SMOOTH",
"297 -5 OFFCURVE",
"279 -7 OFFCURVE",
"262 -7 CURVE SMOOTH",
"190 -7 OFFCURVE",
"127 24 OFFCURVE",
"106 54 CURVE SMOOTH",
"91 76 OFFCURVE",
"84 102 OFFCURVE",
"84 130 CURVE SMOOTH",
"84 197 OFFCURVE",
"123 274 OFFCURVE",
"168 333 CURVE SMOOTH",
"245 434 OFFCURVE",
"387 531 OFFCURVE",
"491 552 CURVE SMOOTH",
"498 553 OFFCURVE",
"505 554 OFFCURVE",
"512 554 CURVE SMOOTH",
"561 554 OFFCURVE",
"604 521 OFFCURVE",
"604 490 CURVE SMOOTH",
"604 489 LINE SMOOTH",
"604 477 OFFCURVE",
"611 472 OFFCURVE",
"620 472 CURVE SMOOTH",
"635 472 OFFCURVE",
"656 487 OFFCURVE",
"656 507 CURVE",
"645 574 OFFCURVE",
"583 603 OFFCURVE",
"522 603 CURVE SMOOTH",
"508 603 OFFCURVE",
"495 602 OFFCURVE",
"482 599 CURVE SMOOTH",
"360 574 OFFCURVE",
"216 473 OFFCURVE",
"130 362 CURVE SMOOTH",
"83 301 OFFCURVE",
"34 217 OFFCURVE",
"34 134 CURVE SMOOTH",
"34 97 OFFCURVE",
"44 61 OFFCURVE",
"67 27 CURVE SMOOTH",
"100 -23 OFFCURVE",
"174 -55 OFFCURVE",
"258 -55 CURVE SMOOTH"
);
}
);
width = 625;
}
);
note = C;
unicode = 0043;
},
{
glyphname = D;
lastChange = "2022-01-12 01:24:45 +0000";
layers = (
{
background = {
paths = (
{
closed = 1;
nodes = (
"268 499 LINE",
"272 531 OFFCURVE",
"235 541 OFFCURVE",
"220 513 CURVE SMOOTH",
"164 405 OFFCURVE",
"50 130 OFFCURVE",
"41 25 CURVE SMOOTH",
"36 -25 OFFCURVE",
"84 -37 OFFCURVE",
"102 -25 CURVE SMOOTH",
"131 -4 OFFCURVE",
"85 17 OFFCURVE",
"86 37 CURVE SMOOTH",
"91 105 OFFCURVE",
"135 226 OFFCURVE",
"200 364 CURVE SMOOTH",
"214 394 OFFCURVE",
"236 415 OFFCURVE",
"249 437 CURVE SMOOTH",
"259 452 OFFCURVE",
"267 487 OFFCURVE",
"269 500 CURVE"
);
},
{
closed = 1;
nodes = (
"90 555 OFFCURVE",
"113 512 OFFCURVE",
"142 527 CURVE SMOOTH",
"161 537 OFFCURVE",
"170 544 OFFCURVE",
"185 550 CURVE SMOOTH",
"230 569 OFFCURVE",
"253 577 OFFCURVE",
"297 573 CURVE SMOOTH",
"373 567 OFFCURVE",
"427 537 OFFCURVE",
"465 470 CURVE SMOOTH",
"487 432 OFFCURVE",
"477 284 OFFCURVE",
"443 208 CURVE SMOOTH",
"389 86 OFFCURVE",
"137 -50 OFFCURVE",
"51 -70 CURVE SMOOTH",
"19 -77 OFFCURVE",
"28 -114 OFFCURVE",
"59 -106 CURVE SMOOTH",
"158 -81 OFFCURVE",
"418 35 OFFCURVE",
"488 188 CURVE SMOOTH",
"531 282 OFFCURVE",
"550 431 OFFCURVE",
"518 495 CURVE SMOOTH",
"479 574 OFFCURVE",
"392 614 OFFCURVE",
"302 622 CURVE SMOOTH",
"249 626 OFFCURVE",
"212 615 OFFCURVE",
"167 596 CURVE SMOOTH",
"146 587 OFFCURVE",
"135 578 OFFCURVE",
"119 570 CURVE SMOOTH"
);
}
);
};
layerId = "34A4CA4C-C6E5-4C7E-9ECD-8F87FE1EC3A4";
paths = (
{
closed = 1;
nodes = (
"53 -107 OFFCURVE",
"56 -107 OFFCURVE",
"59 -106 CURVE SMOOTH",
"158 -81 OFFCURVE",
"418 35 OFFCURVE",
"488 188 CURVE SMOOTH",
"516 250 OFFCURVE",
"534 335 OFFCURVE",
"534 404 CURVE SMOOTH",
"534 441 OFFCURVE",
"529 473 OFFCURVE",
"518 495 CURVE SMOOTH",
"479 574 OFFCURVE",
"392 614 OFFCURVE",
"302 622 CURVE SMOOTH",
"249 626 OFFCURVE",
"212 615 OFFCURVE",
"167 596 CURVE SMOOTH",
"146 587 OFFCURVE",
"135 578 OFFCURVE",
"119 570 CURVE SMOOTH",
"109 565 OFFCURVE",
"105 557 OFFCURVE",
"105 549 CURVE SMOOTH",
"105 537 OFFCURVE",
"116 524 OFFCURVE",
"130 524 CURVE SMOOTH",
"134 524 OFFCURVE",
"138 525 OFFCURVE",
"142 527 CURVE SMOOTH",
"161 537 OFFCURVE",
"170 544 OFFCURVE",
"185 550 CURVE SMOOTH",
"222 566 OFFCURVE",
"245 574 OFFCURVE",
"276 574 CURVE SMOOTH",
"283 574 OFFCURVE",
"290 574 OFFCURVE",
"297 573 CURVE SMOOTH",
"373 567 OFFCURVE",
"427 537 OFFCURVE",
"465 470 CURVE SMOOTH",
"473 456 OFFCURVE",
"477 428 OFFCURVE",
"477 395 CURVE SMOOTH",
"477 335 OFFCURVE",
"465 257 OFFCURVE",
"443 208 CURVE SMOOTH",
"389 86 OFFCURVE",
"137 -50 OFFCURVE",
"51 -70 CURVE SMOOTH",
"37 -73 OFFCURVE",
"31 -81 OFFCURVE",
"31 -90 CURVE SMOOTH",
"31 -99 OFFCURVE",
"38 -107 OFFCURVE",
"51 -107 CURVE SMOOTH"
);
},
{
closed = 1;
nodes = (
"92 -29 OFFCURVE",
"98 -28 OFFCURVE",
"102 -25 CURVE SMOOTH",
"109 -20 OFFCURVE",
"112 -15 OFFCURVE",
"112 -10 CURVE SMOOTH",
"112 6 OFFCURVE",
"85 22 OFFCURVE",
"86 37 CURVE SMOOTH",
"91 105 OFFCURVE",
"135 226 OFFCURVE",
"200 364 CURVE SMOOTH",
"214 394 OFFCURVE",
"236 415 OFFCURVE",
"249 437 CURVE SMOOTH",
"259 452 OFFCURVE",
"267 487 OFFCURVE",
"269 500 CURVE",
"268 499 LINE",
"270 518 OFFCURVE",
"258 529 OFFCURVE",
"245 529 CURVE SMOOTH",
"236 529 OFFCURVE",
"226 524 OFFCURVE",
"220 513 CURVE SMOOTH",
"164 405 OFFCURVE",
"50 130 OFFCURVE",
"41 25 CURVE SMOOTH",
"37 -13 OFFCURVE",
"64 -29 OFFCURVE",
"85 -29 CURVE SMOOTH"
);
}
);
width = 545;
}
);
note = D;
unicode = 0044;
},
{
glyphname = Eth;
lastChange = "2022-01-12 01:24:45 +0000";
layers = (
{
background = {
paths = (
{
closed = 1;
nodes = (
"90 555 OFFCURVE",
"113 512 OFFCURVE",
"142 527 CURVE SMOOTH",
"161 537 OFFCURVE",
"170 544 OFFCURVE",
"185 550 CURVE SMOOTH",
"230 569 OFFCURVE",
"253 577 OFFCURVE",
"297 573 CURVE SMOOTH",
"373 567 OFFCURVE",
"427 537 OFFCURVE",
"465 470 CURVE SMOOTH",
"487 432 OFFCURVE",
"477 284 OFFCURVE",
"443 208 CURVE SMOOTH",
"389 86 OFFCURVE",
"137 -50 OFFCURVE",
"51 -70 CURVE SMOOTH",
"19 -77 OFFCURVE",
"28 -114 OFFCURVE",
"59 -106 CURVE SMOOTH",
"158 -81 OFFCURVE",
"418 35 OFFCURVE",
"488 188 CURVE SMOOTH",
"531 282 OFFCURVE",
"550 431 OFFCURVE",
"518 495 CURVE SMOOTH",
"479 574 OFFCURVE",
"392 614 OFFCURVE",
"302 622 CURVE SMOOTH",
"249 626 OFFCURVE",
"212 615 OFFCURVE",
"167 596 CURVE SMOOTH",
"146 587 OFFCURVE",
"135 578 OFFCURVE",
"119 570 CURVE SMOOTH"
);
},
{
closed = 1;
nodes = (
"69 144 LINE",
"54 96 OFFCURVE",
"43 54 OFFCURVE",
"41 25 CURVE SMOOTH",
"36 -25 OFFCURVE",
"84 -37 OFFCURVE",
"102 -25 CURVE SMOOTH",
"131 -4 OFFCURVE",
"85 17 OFFCURVE",
"86 37 CURVE SMOOTH",
"88 66 OFFCURVE",
"97 104 OFFCURVE",
"112 150 CURVE",
"143 153 OFFCURVE",
"178 157 OFFCURVE",
"213 158 CURVE SMOOTH",
"246 159 OFFCURVE",
"271 186 OFFCURVE",
"239 191 CURVE SMOOTH",
"218 194 OFFCURVE",
"172 194 OFFCURVE",
"127 192 CURVE",
"146 244 OFFCURVE",
"171 302 OFFCURVE",
"200 364 CURVE SMOOTH",
"214 394 OFFCURVE",
"236 415 OFFCURVE",
"249 437 CURVE SMOOTH",
"259 452 OFFCURVE",
"267 487 OFFCURVE",
"269 500 CURVE",
"268 499 LINE",
"272 531 OFFCURVE",
"235 541 OFFCURVE",
"220 513 CURVE SMOOTH",
"184 444 OFFCURVE",
"125 308 OFFCURVE",
"84 190 CURVE",
"45 188 OFFCURVE",
"12 185 OFFCURVE",
"2 183 CURVE SMOOTH",
"-30 177 OFFCURVE",
"-25 129 OFFCURVE",
"8 135 CURVE SMOOTH"
);
}
);
};
layerId = "34A4CA4C-C6E5-4C7E-9ECD-8F87FE1EC3A4";
paths = (
{
closed = 1;
nodes = (
"53 -107 OFFCURVE",
"56 -107 OFFCURVE",
"59 -106 CURVE SMOOTH",
"158 -81 OFFCURVE",
"418 35 OFFCURVE",
"488 188 CURVE SMOOTH",
"516 250 OFFCURVE",
"534 335 OFFCURVE",
"534 404 CURVE SMOOTH",
"534 441 OFFCURVE",
"529 473 OFFCURVE",
"518 495 CURVE SMOOTH",
"479 574 OFFCURVE",
"392 614 OFFCURVE",
"302 622 CURVE SMOOTH",
"249 626 OFFCURVE",
"212 615 OFFCURVE",
"167 596 CURVE SMOOTH",
"146 587 OFFCURVE",
"135 578 OFFCURVE",
"119 570 CURVE SMOOTH",
"109 565 OFFCURVE",
"105 557 OFFCURVE",
"105 549 CURVE SMOOTH",
"105 537 OFFCURVE",
"116 524 OFFCURVE",
"130 524 CURVE SMOOTH",
"134 524 OFFCURVE",
"138 525 OFFCURVE",
"142 527 CURVE SMOOTH",
"161 537 OFFCURVE",
"170 544 OFFCURVE",
"185 550 CURVE SMOOTH",
"222 566 OFFCURVE",
"245 574 OFFCURVE",
"276 574 CURVE SMOOTH",
"283 574 OFFCURVE",
"290 574 OFFCURVE",
"297 573 CURVE SMOOTH",
"373 567 OFFCURVE",
"427 537 OFFCURVE",
"465 470 CURVE SMOOTH",
"473 456 OFFCURVE",
"477 428 OFFCURVE",
"477 395 CURVE SMOOTH",
"477 335 OFFCURVE",
"465 257 OFFCURVE",
"443 208 CURVE SMOOTH",
"389 86 OFFCURVE",
"137 -50 OFFCURVE",
"51 -70 CURVE SMOOTH",
"37 -73 OFFCURVE",
"31 -81 OFFCURVE",
"31 -90 CURVE SMOOTH",
"31 -99 OFFCURVE",
"38 -107 OFFCURVE",
"51 -107 CURVE SMOOTH"
);
},
{
closed = 1;
nodes = (
"92 -29 OFFCURVE",
"98 -28 OFFCURVE",
"102 -25 CURVE SMOOTH",
"109 -20 OFFCURVE",
"112 -15 OFFCURVE",
"112 -10 CURVE SMOOTH",
"112 6 OFFCURVE",
"85 22 OFFCURVE",
"86 37 CURVE SMOOTH",
"88 66 OFFCURVE",
"97 104 OFFCURVE",
"112 150 CURVE",
"143 153 OFFCURVE",
"178 157 OFFCURVE",
"213 158 CURVE SMOOTH",
"235 159 OFFCURVE",
"254 171 OFFCURVE",
"254 181 CURVE SMOOTH",
"254 185 OFFCURVE",
"249 189 OFFCURVE",
"239 191 CURVE SMOOTH",
"227 193 OFFCURVE",
"208 193 OFFCURVE",
"186 193 CURVE SMOOTH",
"168 193 OFFCURVE",
"147 193 OFFCURVE",
"127 192 CURVE",
"146 244 OFFCURVE",
"171 302 OFFCURVE",
"200 364 CURVE SMOOTH",
"214 394 OFFCURVE",
"236 415 OFFCURVE",
"249 437 CURVE SMOOTH",
"259 452 OFFCURVE",
"267 487 OFFCURVE",
"269 500 CURVE",
"268 499 LINE",
"270 518 OFFCURVE",
"258 529 OFFCURVE",
"245 529 CURVE SMOOTH",
"236 529 OFFCURVE",
"226 524 OFFCURVE",
"220 513 CURVE SMOOTH",
"184 444 OFFCURVE",
"125 308 OFFCURVE",
"84 190 CURVE",
"45 188 OFFCURVE",
"12 185 OFFCURVE",
"2 183 CURVE SMOOTH",
"-13 180 OFFCURVE",
"-20 169 OFFCURVE",
"-20 158 CURVE SMOOTH",
"-20 144 OFFCURVE",
"-10 132 OFFCURVE",
"8 135 CURVE SMOOTH",
"69 144 LINE",
"53 92 OFFCURVE",
"41 47 OFFCURVE",
"41 18 CURVE SMOOTH",
"41 -15 OFFCURVE",
"65 -29 OFFCURVE",
"85 -29 CURVE SMOOTH"
);
}
);
width = 545;
}
);
note = Eth;
unicode = 00D0;
},
{
glyphname = E;
lastChange = "2022-01-12 01:24:45 +0000";
layers = (
{
background = {
paths = (
{
closed = 1;
nodes = (
"492 552 LINE SMOOTH",
"549 563 OFFCURVE",
"554 614 OFFCURVE",
"483 599 CURVE SMOOTH",
"360 574 OFFCURVE",
"216 473 OFFCURVE",
"130 362 CURVE SMOOTH",
"63 274 OFFCURVE",
"-9 139 OFFCURVE",
"67 27 CURVE SMOOTH",
"109 -36 OFFCURVE",
"215 -70 OFFCURVE",
"326 -48 CURVE SMOOTH",
"459 -22 OFFCURVE",
"494 44 OFFCURVE",
"508 53 CURVE SMOOTH",
"535 70 OFFCURVE",
"533 123 OFFCURVE",
"505 106 CURVE",
"472 79 OFFCURVE",
"439 28 OFFCURVE",
"315 -1 CURVE SMOOTH",
"223 -22 OFFCURVE",
"132 17 OFFCURVE",
"106 54 CURVE SMOOTH",
"54 131 OFFCURVE",
"104 250 OFFCURVE",
"168 333 CURVE SMOOTH",
"245 434 OFFCURVE",
"387 531 OFFCURVE",
"491 552 CURVE SMOOTH"
);
},
{
closed = 1;
nodes = (
"125 215 OFFCURVE",
"138 170 OFFCURVE",
"169 181 CURVE SMOOTH",
"198 191 OFFCURVE",
"215 206 OFFCURVE",
"237 214 CURVE",
"237 215 LINE",
"311 241 OFFCURVE",
"357 234 OFFCURVE",
"441 251 CURVE SMOOTH",
"474 257 OFFCURVE",
"474 296 OFFCURVE",
"442 296 CURVE SMOOTH",
"394 296 OFFCURVE",
"225 254 OFFCURVE",
"225 254 CURVE",
"197 249 OFFCURVE",
"181 235 OFFCURVE",
"156 226 CURVE SMOOTH"
);
}
);
};
layerId = "34A4CA4C-C6E5-4C7E-9ECD-8F87FE1EC3A4";
paths = (
{
closed = 1;
nodes = (
"280 -55 OFFCURVE",
"303 -53 OFFCURVE",
"326 -48 CURVE SMOOTH",
"459 -22 OFFCURVE",
"494 44 OFFCURVE",
"508 53 CURVE SMOOTH",
"521 61 OFFCURVE",
"527 78 OFFCURVE",
"527 91 CURVE SMOOTH",
"527 101 OFFCURVE",
"523 109 OFFCURVE",
"515 109 CURVE SMOOTH",
"512 109 OFFCURVE",
"509 108 OFFCURVE",
"505 106 CURVE",
"472 79 OFFCURVE",
"439 28 OFFCURVE",
"315 -1 CURVE SMOOTH",
"297 -5 OFFCURVE",
"279 -7 OFFCURVE",
"262 -7 CURVE SMOOTH",
"190 -7 OFFCURVE",
"127 24 OFFCURVE",
"106 54 CURVE SMOOTH",
"91 76 OFFCURVE",
"84 102 OFFCURVE",
"84 130 CURVE SMOOTH",
"84 197 OFFCURVE",
"123 274 OFFCURVE",
"168 333 CURVE SMOOTH",
"245 434 OFFCURVE",
"387 531 OFFCURVE",
"491 552 CURVE SMOOTH",
"492 552 LINE SMOOTH",
"520 558 OFFCURVE",
"536 573 OFFCURVE",
"536 585 CURVE SMOOTH",
"536 594 OFFCURVE",
"526 602 OFFCURVE",
"506 602 CURVE SMOOTH",
"500 602 OFFCURVE",
"492 601 OFFCURVE",
"483 599 CURVE SMOOTH",
"360 574 OFFCURVE",
"216 473 OFFCURVE",
"130 362 CURVE SMOOTH",
"83 301 OFFCURVE",
"34 217 OFFCURVE",
"34 134 CURVE SMOOTH",
"34 97 OFFCURVE",
"44 61 OFFCURVE",
"67 27 CURVE SMOOTH",
"100 -23 OFFCURVE",
"174 -55 OFFCURVE",
"258 -55 CURVE SMOOTH"
);
},
{
closed = 1;
nodes = (
"163 179 OFFCURVE",
"166 180 OFFCURVE",
"169 181 CURVE SMOOTH",
"198 191 OFFCURVE",
"215 206 OFFCURVE",
"237 214 CURVE",
"237 215 LINE",
"311 241 OFFCURVE",
"357 234 OFFCURVE",
"441 251 CURVE SMOOTH",
"458 254 OFFCURVE",
"466 265 OFFCURVE",
"466 276 CURVE SMOOTH",
"466 286 OFFCURVE",
"458 296 OFFCURVE",
"442 296 CURVE SMOOTH",
"394 296 OFFCURVE",
"225 254 OFFCURVE",
"225 254 CURVE",
"197 249 OFFCURVE",
"181 235 OFFCURVE",
"156 226 CURVE SMOOTH",
"144 222 OFFCURVE",
"138 212 OFFCURVE",
"138 202 CURVE SMOOTH",
"138 190 OFFCURVE",
"147 179 OFFCURVE",
"160 179 CURVE SMOOTH"
);
}
);
width = 575;
}
);
note = E;
unicode = 0045;
},
{
glyphname = F;
lastChange = "2022-01-12 01:24:45 +0000";
layers = (
{
background = {
paths = (
{
closed = 1;
nodes = (
"111 263 LINE",
"92 256 OFFCURVE",
"89 236 OFFCURVE",
"97 224 CURVE",
"67 141 OFFCURVE",
"44 65 OFFCURVE",
"40 24 CURVE SMOOTH",
"36 -25 OFFCURVE",
"84 -37 OFFCURVE",
"102 -25 CURVE SMOOTH",
"131 -4 OFFCURVE",
"85 17 OFFCURVE",
"86 37 CURVE SMOOTH",
"89 74 OFFCURVE",
"110 145 OFFCURVE",
"139 224 CURVE",
"159 233 OFFCURVE",
"174 245 OFFCURVE",
"192 251 CURVE",
"192 252 LINE",
"266 278 OFFCURVE",
"312 271 OFFCURVE",
"396 288 CURVE SMOOTH",
"428 294 OFFCURVE",
"428 333 OFFCURVE",
"396 333 CURVE SMOOTH",
"349 333 OFFCURVE",
"180 291 OFFCURVE",
"180 291 CURVE",
"174 290 OFFCURVE",
"168 288 OFFCURVE",
"163 286 CURVE",
"182 335 OFFCURVE",
"203 384 OFFCURVE",
"224 428 CURVE SMOOTH",
"239 458 OFFCURVE",
"261 479 OFFCURVE",
"274 501 CURVE SMOOTH",
"279 509 OFFCURVE",
"284 523 OFFCURVE",
"288 536 CURVE",
"329 547 OFFCURVE",
"370 552 OFFCURVE",
"407 548 CURVE SMOOTH",
"461 542 OFFCURVE",
"506 538 OFFCURVE",
"534 512 CURVE",
"544 505 OFFCURVE",
"547 499 OFFCURVE",
"545 494 CURVE",
"545 493 OFFCURVE",
"516 440 OFFCURVE",
"550 440 CURVE SMOOTH",
"553 440 OFFCURVE",
"568 442 OFFCURVE",
"578 453 CURVE SMOOTH",
"588 463 OFFCURVE",
"589 478 OFFCURVE",
"592 489 CURVE SMOOTH",
"596 503 OFFCURVE",
"599 519 OFFCURVE",
"593 530 CURVE SMOOTH",
"585 543 OFFCURVE",
"566 550 OFFCURVE",
"566 550 CURVE",
"533 574 OFFCURVE",
"488 575 OFFCURVE",
"437 580 CURVE SMOOTH",
"384 585 OFFCURVE",
"347 584 OFFCURVE",
"293 573 CURVE",
"289 597 OFFCURVE",
"259 602 OFFCURVE",
"246 577 CURVE SMOOTH",
"243 572 OFFCURVE",
"240 566 OFFCURVE",
"237 559 CURVE",
"187 543 OFFCURVE",
"149 519 OFFCURVE",
"96 499 CURVE SMOOTH",
"74 491 OFFCURVE",
"84 453 OFFCURVE",
"96 460 CURVE SMOOTH",
"133 480 OFFCURVE",
"174 499 OFFCURVE",
"215 514 CURVE",
"184 447 OFFCURVE",
"145 353 OFFCURVE",
"112 263 CURVE"
);
}
);
};
layerId = "34A4CA4C-C6E5-4C7E-9ECD-8F87FE1EC3A4";
paths = (
{
closed = 1;
nodes = (
"92 -29 OFFCURVE",
"98 -28 OFFCURVE",
"102 -25 CURVE SMOOTH",
"109 -20 OFFCURVE",
"112 -15 OFFCURVE",
"112 -10 CURVE SMOOTH",
"112 6 OFFCURVE",
"85 22 OFFCURVE",
"86 37 CURVE SMOOTH",
"89 74 OFFCURVE",
"110 145 OFFCURVE",
"139 224 CURVE",
"159 233 OFFCURVE",
"174 245 OFFCURVE",
"192 251 CURVE",
"192 252 LINE",
"266 278 OFFCURVE",
"312 271 OFFCURVE",
"396 288 CURVE SMOOTH",
"412 291 OFFCURVE",
"420 302 OFFCURVE",
"420 313 CURVE SMOOTH",
"420 323 OFFCURVE",
"412 333 OFFCURVE",
"396 333 CURVE SMOOTH",
"349 333 OFFCURVE",
"180 291 OFFCURVE",
"180 291 CURVE",
"174 290 OFFCURVE",
"168 288 OFFCURVE",
"163 286 CURVE",
"182 335 OFFCURVE",
"203 384 OFFCURVE",
"224 428 CURVE SMOOTH",
"239 458 OFFCURVE",
"261 479 OFFCURVE",
"274 501 CURVE SMOOTH",
"279 509 OFFCURVE",
"284 523 OFFCURVE",
"288 536 CURVE",
"320 544 OFFCURVE",
"351 549 OFFCURVE",
"381 549 CURVE SMOOTH",
"390 549 OFFCURVE",
"398 549 OFFCURVE",
"407 548 CURVE SMOOTH",
"461 542 OFFCURVE",
"506 538 OFFCURVE",
"534 512 CURVE",
"542 506 OFFCURVE",
"546 501 OFFCURVE",
"546 497 CURVE SMOOTH",
"546 496 OFFCURVE",
"545 495 OFFCURVE",
"545 494 CURVE SMOOTH",
"545 493 OFFCURVE",
"533 472 OFFCURVE",
"533 456 CURVE SMOOTH",
"533 447 OFFCURVE",
"537 440 OFFCURVE",
"550 440 CURVE SMOOTH",
"553 440 OFFCURVE",
"568 442 OFFCURVE",
"578 453 CURVE SMOOTH",
"588 463 OFFCURVE",
"589 478 OFFCURVE",
"592 489 CURVE SMOOTH",
"594 497 OFFCURVE",
"596 506 OFFCURVE",
"596 515 CURVE SMOOTH",
"596 520 OFFCURVE",
"595 526 OFFCURVE",
"593 530 CURVE SMOOTH",
"585 543 OFFCURVE",
"566 550 OFFCURVE",
"566 550 CURVE",
"533 574 OFFCURVE",
"488 575 OFFCURVE",
"437 580 CURVE SMOOTH",
"417 582 OFFCURVE",
"400 583 OFFCURVE",
"383 583 CURVE SMOOTH",
"354 583 OFFCURVE",
"327 580 OFFCURVE",
"293 573 CURVE",
"291 586 OFFCURVE",
"281 594 OFFCURVE",
"270 594 CURVE SMOOTH",
"261 594 OFFCURVE",
"252 588 OFFCURVE",
"246 577 CURVE SMOOTH",
"243 572 OFFCURVE",
"240 566 OFFCURVE",
"237 559 CURVE",
"187 543 OFFCURVE",
"149 519 OFFCURVE",
"96 499 CURVE SMOOTH",
"87 496 OFFCURVE",
"83 487 OFFCURVE",
"83 478 CURVE SMOOTH",
"83 467 OFFCURVE",
"89 456 OFFCURVE",
"96 460 CURVE SMOOTH",
"133 480 OFFCURVE",
"174 499 OFFCURVE",
"215 514 CURVE",
"184 447 OFFCURVE",
"145 353 OFFCURVE",
"112 263 CURVE",
"111 263 LINE",
"98 258 OFFCURVE",
"93 248 OFFCURVE",
"93 238 CURVE SMOOTH",
"93 233 OFFCURVE",
"94 228 OFFCURVE",
"97 224 CURVE",
"67 141 OFFCURVE",
"44 65 OFFCURVE",
"40 24 CURVE SMOOTH",
"37 -13 OFFCURVE",
"64 -29 OFFCURVE",
"85 -29 CURVE SMOOTH"
);
}
);
width = 488;
}
);
note = F;
unicode = 0046;
},
{
glyphname = G;
lastChange = "2022-01-12 01:24:45 +0000";
layers = (
{
background = {
paths = (
{
closed = 1;
nodes = (
"615 181 OFFCURVE",
"605 236 OFFCURVE",
"530 237 CURVE SMOOTH",
"482 237 OFFCURVE",
"268 177 OFFCURVE",
"243 168 CURVE SMOOTH",
"212 156 OFFCURVE",
"225 111 OFFCURVE",
"256 122 CURVE SMOOTH",
"285 133 OFFCURVE",
"286 148 OFFCURVE",
"324 156 CURVE SMOOTH",
"399 172 OFFCURVE",
"480 188 OFFCURVE",
"518 189 CURVE SMOOTH",
"546 190 OFFCURVE",
"552 166 OFFCURVE",
"506 106 CURVE",
"472 79 OFFCURVE",
"442 36 OFFCURVE",
"337 -7 CURVE SMOOTH",
"249 -43 OFFCURVE",
"134 18 OFFCURVE",
"109 55 CURVE SMOOTH",
"56 133 OFFCURVE",
"104 250 OFFCURVE",
"168 333 CURVE SMOOTH",
"245 434 OFFCURVE",
"387 531 OFFCURVE",
"491 552 CURVE SMOOTH",
"503 554 OFFCURVE",
"530 541 OFFCURVE",
"545 552 CURVE SMOOTH",
"594 585 OFFCURVE",
"539 611 OFFCURVE",
"483 599 CURVE SMOOTH",
"360 574 OFFCURVE",
"216 473 OFFCURVE",
"130 362 CURVE SMOOTH",
"63 274 OFFCURVE",
"-9 139 OFFCURVE",
"67 27 CURVE SMOOTH",
"109 -36 OFFCURVE",
"215 -70 OFFCURVE",
"326 -48 CURVE SMOOTH",
"459 -22 OFFCURVE",
"536 83 OFFCURVE",
"546 95 CURVE SMOOTH"
);
}
);
};
layerId = "34A4CA4C-C6E5-4C7E-9ECD-8F87FE1EC3A4";
paths = (
{
closed = 1;
nodes = (
"280 -55 OFFCURVE",
"303 -53 OFFCURVE",
"326 -48 CURVE SMOOTH",
"459 -22 OFFCURVE",
"536 83 OFFCURVE",
"546 95 CURVE SMOOTH",
"577 134 OFFCURVE",
"592 167 OFFCURVE",
"592 191 CURVE SMOOTH",
"592 220 OFFCURVE",
"571 236 OFFCURVE",
"530 237 CURVE SMOOTH",
"482 237 OFFCURVE",
"268 177 OFFCURVE",
"243 168 CURVE SMOOTH",
"231 163 OFFCURVE",
"225 153 OFFCURVE",
"225 144 CURVE SMOOTH",
"225 131 OFFCURVE",
"234 120 OFFCURVE",
"247 120 CURVE SMOOTH",
"250 120 OFFCURVE",
"253 121 OFFCURVE",
"256 122 CURVE SMOOTH",
"285 133 OFFCURVE",
"286 148 OFFCURVE",
"324 156 CURVE SMOOTH",
"399 172 OFFCURVE",
"480 188 OFFCURVE",
"518 189 CURVE SMOOTH",
"531 189 OFFCURVE",
"540 184 OFFCURVE",
"540 172 CURVE SMOOTH",
"540 159 OFFCURVE",
"530 137 OFFCURVE",
"506 106 CURVE",
"472 79 OFFCURVE",
"442 36 OFFCURVE",
"337 -7 CURVE SMOOTH",
"318 -15 OFFCURVE",
"298 -18 OFFCURVE",
"278 -18 CURVE SMOOTH",
"204 -18 OFFCURVE",
"129 26 OFFCURVE",
"109 55 CURVE SMOOTH",
"93 78 OFFCURVE",
"86 105 OFFCURVE",
"86 134 CURVE SMOOTH",
"86 200 OFFCURVE",
"123 275 OFFCURVE",
"168 333 CURVE SMOOTH",
"245 434 OFFCURVE",
"387 531 OFFCURVE",
"491 552 CURVE SMOOTH",
"499 553 OFFCURVE",
"515 548 OFFCURVE",
"529 548 CURVE SMOOTH",
"535 548 OFFCURVE",
"540 549 OFFCURVE",
"545 552 CURVE SMOOTH",
"558 561 OFFCURVE",
"564 569 OFFCURVE",
"564 577 CURVE SMOOTH",
"564 592 OFFCURVE",
"541 602 OFFCURVE",
"511 602 CURVE SMOOTH",
"502 602 OFFCURVE",
"492 601 OFFCURVE",
"483 599 CURVE SMOOTH",
"360 574 OFFCURVE",
"216 473 OFFCURVE",
"130 362 CURVE SMOOTH",
"83 301 OFFCURVE",
"34 217 OFFCURVE",
"34 134 CURVE SMOOTH",
"34 97 OFFCURVE",
"44 61 OFFCURVE",
"67 27 CURVE SMOOTH",
"100 -23 OFFCURVE",
"174 -55 OFFCURVE",
"258 -55 CURVE SMOOTH"
);
}
);
width = 599;
}
);
note = G;
unicode = 0047;
},
{
glyphname = H;
lastChange = "2022-01-12 01:24:45 +0000";
layers = (
{
background = {
paths = (
{
closed = 1;
nodes = (
"638 609 OFFCURVE",
"601 598 OFFCURVE",
"586 570 CURVE SMOOTH",
"555 509 OFFCURVE",
"512 400 OFFCURVE",
"464 279 CURVE",
"462 282 OFFCURVE",
"457 284 OFFCURVE",
"448 284 CURVE SMOOTH",
"401 284 OFFCURVE",
"192 229 OFFCURVE",
"167 220 CURVE SMOOTH",
"136 208 OFFCURVE",
"151 151 OFFCURVE",
"182 162 CURVE SMOOTH",
"211 173 OFFCURVE",
"224 184 OFFCURVE",
"250 196 CURVE SMOOTH",
"319 227 OFFCURVE",
"352 237 OFFCURVE",
"436 254 CURVE SMOOTH",
"445 256 OFFCURVE",
"453 260 OFFCURVE",
"458 264 CURVE",
"424 173 OFFCURVE",
"396 78 OFFCURVE",
"388 -7 CURVE SMOOTH",
"381 -96 OFFCURVE",
"437 -53 OFFCURVE",
"441 6 CURVE SMOOTH",
"453 166 OFFCURVE",
"517 326 OFFCURVE",
"571 438 CURVE SMOOTH",
"585 468 OFFCURVE",
"635 564 OFFCURVE",
"635 578 CURVE SMOOTH"
);
},
{
closed = 1;
nodes = (
"260 567 OFFCURVE",
"229 546 OFFCURVE",
"215 518 CURVE SMOOTH",
"183 457 OFFCURVE",
"72 256 OFFCURVE",
"53 51 CURVE SMOOTH",
"49 2 OFFCURVE",
"108 -5 OFFCURVE",
"126 7 CURVE SMOOTH",
"155 28 OFFCURVE",
"109 49 OFFCURVE",
"110 69 CURVE SMOOTH",
"122 230 OFFCURVE",
"164 334 OFFCURVE",
"194 398 CURVE SMOOTH",
"208 427 OFFCURVE",
"262 512 OFFCURVE",
"259 525 CURVE"
);
}
);
};
layerId = "34A4CA4C-C6E5-4C7E-9ECD-8F87FE1EC3A4";
paths = (
{
closed = 1;
nodes = (
"418 -58 OFFCURVE",
"439 -29 OFFCURVE",
"441 6 CURVE SMOOTH",
"453 166 OFFCURVE",
"517 326 OFFCURVE",
"571 438 CURVE SMOOTH",
"585 468 OFFCURVE",
"635 564 OFFCURVE",
"635 578 CURVE SMOOTH",
"636 591 OFFCURVE",
"630 597 OFFCURVE",
"622 597 CURVE SMOOTH",
"611 597 OFFCURVE",
"595 586 OFFCURVE",
"586 570 CURVE SMOOTH",
"555 509 OFFCURVE",
"512 400 OFFCURVE",
"464 279 CURVE",
"462 282 OFFCURVE",
"457 284 OFFCURVE",
"448 284 CURVE SMOOTH",
"401 284 OFFCURVE",
"192 229 OFFCURVE",
"167 220 CURVE SMOOTH",
"155 215 OFFCURVE",
"150 204 OFFCURVE",
"150 193 CURVE SMOOTH",
"150 174 OFFCURVE",
"163 155 OFFCURVE",
"182 162 CURVE SMOOTH",
"211 173 OFFCURVE",
"224 184 OFFCURVE",
"250 196 CURVE SMOOTH",
"319 227 OFFCURVE",
"352 237 OFFCURVE",
"436 254 CURVE SMOOTH",
"445 256 OFFCURVE",
"453 260 OFFCURVE",
"458 264 CURVE",
"424 173 OFFCURVE",
"396 78 OFFCURVE",
"388 -7 CURVE SMOOTH",
"385 -44 OFFCURVE",
"393 -58 OFFCURVE",
"403 -58 CURVE SMOOTH"
);
},
{
closed = 1;
nodes = (
"113 2 OFFCURVE",
"121 4 OFFCURVE",
"126 7 CURVE SMOOTH",
"133 12 OFFCURVE",
"136 17 OFFCURVE",
"136 22 CURVE SMOOTH",
"136 38 OFFCURVE",
"109 54 OFFCURVE",
"110 69 CURVE SMOOTH",
"122 230 OFFCURVE",
"164 334 OFFCURVE",
"194 398 CURVE SMOOTH",
"208 427 OFFCURVE",
"262 512 OFFCURVE",
"259 525 CURVE",
"259 542 OFFCURVE",
"255 549 OFFCURVE",
"248 549 CURVE SMOOTH",
"238 549 OFFCURVE",
"223 535 OFFCURVE",
"215 518 CURVE SMOOTH",
"183 457 OFFCURVE",
"72 256 OFFCURVE",
"53 51 CURVE SMOOTH",
"50 15 OFFCURVE",
"81 2 OFFCURVE",
"104 2 CURVE SMOOTH"
);
}
);
width = 535;
}
);
note = H;
unicode = 0048;
},
{
glyphname = I;
lastChange = "2022-01-12 01:24:45 +0000";
layers = (
{
background = {
paths = (
{
closed = 1;
nodes = (
"-56 22 OFFCURVE",
"-42 -26 OFFCURVE",
"-11 -17 CURVE SMOOTH",
"27 -7 OFFCURVE",
"50 4 OFFCURVE",
"78 12 CURVE",
"88 5 OFFCURVE",
"104 6 OFFCURVE",
"114 19 CURVE",
"163 26 OFFCURVE",
"198 23 OFFCURVE",
"246 16 CURVE SMOOTH",
"278 12 OFFCURVE",
"284 51 OFFCURVE",
"252 55 CURVE SMOOTH",
"213 60 OFFCURVE",
"178 69 OFFCURVE",
"137 69 CURVE",
"189 187 OFFCURVE",
"252 384 OFFCURVE",
"316 524 CURVE",
"358 527 OFFCURVE",
"384 531 OFFCURVE",
"438 530 CURVE SMOOTH",
"469 530 OFFCURVE",
"478 566 OFFCURVE",
"446 566 CURVE SMOOTH",
"391 566 OFFCURVE",
"356 575 OFFCURVE",
"294 572 CURVE SMOOTH",
"231 569 OFFCURVE",
"184 567 OFFCURVE",
"123 543 CURVE SMOOTH",
"93 531 OFFCURVE",
"111 485 OFFCURVE",
"141 497 CURVE SMOOTH",
"186 514 OFFCURVE",
"219 518 OFFCURVE",
"266 521 CURVE",
"224 426 OFFCURVE",
"201 308 OFFCURVE",
"137 173 CURVE SMOOTH",
"123 143 OFFCURVE",
"107 122 OFFCURVE",
"94 100 CURVE SMOOTH",
"89 92 OFFCURVE",
"82 77 OFFCURVE",
"77 63 CURVE",
"37 54 OFFCURVE",
"12 40 OFFCURVE",
"-25 30 CURVE SMOOTH"
);
}
);
};
layerId = "34A4CA4C-C6E5-4C7E-9ECD-8F87FE1EC3A4";
paths = (
{
closed = 1;
nodes = (
"27 -7 OFFCURVE",
"50 4 OFFCURVE",
"78 12 CURVE",
"82 9 OFFCURVE",
"87 8 OFFCURVE",
"92 8 CURVE SMOOTH",
"100 8 OFFCURVE",
"108 11 OFFCURVE",
"114 19 CURVE",
"133 22 OFFCURVE",
"151 23 OFFCURVE",
"167 23 CURVE SMOOTH",
"193 23 OFFCURVE",
"217 20 OFFCURVE",
"246 16 CURVE SMOOTH",
"263 14 OFFCURVE",
"273 24 OFFCURVE",
"273 35 CURVE SMOOTH",
"273 44 OFFCURVE",
"267 53 OFFCURVE",
"252 55 CURVE SMOOTH",
"213 60 OFFCURVE",
"178 69 OFFCURVE",
"137 69 CURVE",
"189 187 OFFCURVE",
"252 384 OFFCURVE",
"316 524 CURVE",
"358 527 OFFCURVE",
"384 531 OFFCURVE",
"438 530 CURVE SMOOTH",
"456 530 OFFCURVE",
"466 542 OFFCURVE",
"466 552 CURVE SMOOTH",
"466 559 OFFCURVE",
"460 566 OFFCURVE",
"446 566 CURVE SMOOTH",
"399 566 OFFCURVE",
"366 573 OFFCURVE",
"319 573 CURVE SMOOTH",
"311 573 OFFCURVE",
"303 572 OFFCURVE",
"294 572 CURVE SMOOTH",
"231 569 OFFCURVE",
"184 567 OFFCURVE",
"123 543 CURVE SMOOTH",
"112 539 OFFCURVE",
"108 530 OFFCURVE",
"108 521 CURVE SMOOTH",
"108 508 OFFCURVE",
"117 495 OFFCURVE",
"131 495 CURVE SMOOTH",
"134 495 OFFCURVE",
"138 496 OFFCURVE",
"141 497 CURVE SMOOTH",
"186 514 OFFCURVE",
"219 518 OFFCURVE",
"266 521 CURVE",
"224 426 OFFCURVE",
"201 308 OFFCURVE",
"137 173 CURVE SMOOTH",
"123 143 OFFCURVE",
"107 122 OFFCURVE",
"94 100 CURVE SMOOTH",
"89 92 OFFCURVE",
"82 77 OFFCURVE",
"77 63 CURVE",
"37 54 OFFCURVE",
"12 40 OFFCURVE",
"-25 30 CURVE SMOOTH",
"-37 27 OFFCURVE",
"-42 18 OFFCURVE",
"-42 8 CURVE SMOOTH",
"-42 -7 OFFCURVE",
"-30 -22 OFFCURVE",
"-11 -17 CURVE SMOOTH"
);
}
);
width = 295;
}
);
note = I;
unicode = 0049;
},
{
glyphname = J;
lastChange = "2022-01-12 01:24:45 +0000";
layers = (
{
background = {
paths = (
{
closed = 1;
nodes = (
"252 538 OFFCURVE",
"211 512 OFFCURVE",
"211 512 CURVE",
"190 500 OFFCURVE",
"195 464 OFFCURVE",
"216 473 CURVE",
"216 475 LINE",
"244 489 OFFCURVE",
"274 501 OFFCURVE",
"297 511 CURVE SMOOTH",
"319 520 OFFCURVE",
"424 540 OFFCURVE",
"446 540 CURVE SMOOTH",
"468 540 OFFCURVE",
"498 536 OFFCURVE",
"525 525 CURVE",
"544 520 OFFCURVE",
"562 558 OFFCURVE",
"544 566 CURVE",
"522 572 OFFCURVE",
"510 589 OFFCURVE",
"476 590 CURVE SMOOTH",
"444 590 OFFCURVE",
"303 560 OFFCURVE",
"281 550 CURVE SMOOTH"
);
},
{
closed = 1;
nodes = (
"315 37 OFFCURVE",
"382 376 OFFCURVE",
"412 462 CURVE SMOOTH",
"422 492 OFFCURVE",
"369 512 OFFCURVE",
"359 482 CURVE SMOOTH",
"355 469 OFFCURVE",
"342 457 OFFCURVE",
"337 440 CURVE SMOOTH",
"329 409 OFFCURVE",
"315 334 OFFCURVE",
"305 296 CURVE SMOOTH",
"280 196 OFFCURVE",
"231 17 OFFCURVE",
"126 -72 CURVE SMOOTH",
"107 -89 OFFCURVE",
"96 -100 OFFCURVE",
"73 -92 CURVE SMOOTH",
"60 -87 OFFCURVE",
"31 -61 OFFCURVE",
"18 -26 CURVE SMOOTH",
"8 2 OFFCURVE",
"-9 -17 OFFCURVE",
"-8 -52 CURVE SMOOTH",
"-7 -72 OFFCURVE",
"18 -120 OFFCURVE",
"45 -128 CURVE SMOOTH",
"89 -140 OFFCURVE",
"113 -137 OFFCURVE",
"139 -115 CURVE SMOOTH"
);
}
);
};
layerId = "34A4CA4C-C6E5-4C7E-9ECD-8F87FE1EC3A4";
paths = (
{
closed = 1;
nodes = (
"108 -135 OFFCURVE",
"123 -129 OFFCURVE",
"139 -115 CURVE SMOOTH",
"315 37 OFFCURVE",
"382 376 OFFCURVE",
"412 462 CURVE SMOOTH",
"419 482 OFFCURVE",
"398 497 OFFCURVE",
"381 497 CURVE SMOOTH",
"371 497 OFFCURVE",
"362 492 OFFCURVE",
"359 482 CURVE SMOOTH",
"355 469 OFFCURVE",
"342 457 OFFCURVE",
"337 440 CURVE SMOOTH",
"329 409 OFFCURVE",
"315 334 OFFCURVE",
"305 296 CURVE SMOOTH",
"280 196 OFFCURVE",
"231 17 OFFCURVE",
"126 -72 CURVE SMOOTH",
"111 -85 OFFCURVE",
"101 -95 OFFCURVE",
"87 -95 CURVE SMOOTH",
"83 -95 OFFCURVE",
"78 -94 OFFCURVE",
"73 -92 CURVE SMOOTH",
"60 -87 OFFCURVE",
"31 -61 OFFCURVE",
"18 -26 CURVE SMOOTH",
"15 -17 OFFCURVE",
"10 -13 OFFCURVE",
"6 -13 CURVE SMOOTH",
"-1 -13 OFFCURVE",
"-8 -27 OFFCURVE",
"-8 -49 CURVE SMOOTH",
"-8 -67 OFFCURVE",
"17 -120 OFFCURVE",
"45 -128 CURVE SMOOTH",
"62 -133 OFFCURVE",
"76 -135 OFFCURVE",
"88 -135 CURVE SMOOTH"
);
},
{
closed = 1;
nodes = (
"216 475 LINE",
"244 489 OFFCURVE",
"274 501 OFFCURVE",
"297 511 CURVE SMOOTH",
"319 520 OFFCURVE",
"424 540 OFFCURVE",
"446 540 CURVE SMOOTH",
"468 540 OFFCURVE",
"498 536 OFFCURVE",
"525 525 CURVE SMOOTH",
"538 521 OFFCURVE",
"551 540 OFFCURVE",
"551 553 CURVE SMOOTH",
"551 559 OFFCURVE",
"549 564 OFFCURVE",
"544 566 CURVE SMOOTH",
"522 572 OFFCURVE",
"510 589 OFFCURVE",
"476 590 CURVE SMOOTH",
"444 590 OFFCURVE",
"303 560 OFFCURVE",
"281 550 CURVE SMOOTH",
"252 538 OFFCURVE",
"211 512 OFFCURVE",
"211 512 CURVE",
"202 507 OFFCURVE",
"198 497 OFFCURVE",
"198 488 CURVE SMOOTH",
"198 477 OFFCURVE",
"204 468 OFFCURVE",
"216 473 CURVE"
);
}
);
width = 433;
}
);
note = J;
unicode = 004A;
},
{
glyphname = K;
lastChange = "2022-01-12 01:24:45 +0000";
layers = (
{
background = {
paths = (
{
closed = 1;
nodes = (
"152 105 OFFCURVE",
"298 -4 OFFCURVE",
"343 -20 CURVE SMOOTH",
"374 -31 OFFCURVE",
"411 9 OFFCURVE",
"340 32 CURVE SMOOTH",
"304 44 OFFCURVE",
"173 175 OFFCURVE",
"165 203 CURVE",
"156 199 OFFCURVE",
"187 244 OFFCURVE",
"214 258 CURVE SMOOTH",
"303 305 OFFCURVE",
"391 381 OFFCURVE",
"585 491 CURVE SMOOTH",
"599 499 OFFCURVE",
"632 502 OFFCURVE",
"629 520 CURVE SMOOTH",
"625 544 OFFCURVE",
"600 547 OFFCURVE",
"585 539 CURVE SMOOTH",
"389 432 OFFCURVE",
"303 376 OFFCURVE",
"211 308 CURVE SMOOTH",
"187 291 OFFCURVE",
"161 263 OFFCURVE",
"150 256 CURVE",
"188 369 OFFCURVE",
"259 511 OFFCURVE",
"300 560 CURVE SMOOTH",
"342 612 OFFCURVE",
"271 620 OFFCURVE",
"247 574 CURVE SMOOTH",
"190 466 OFFCURVE",
"85 274 OFFCURVE",
"42 27 CURVE SMOOTH",
"32 -31 OFFCURVE",
"78 -37 OFFCURVE",
"96 -25 CURVE SMOOTH",
"125 -4 OFFCURVE",
"90 11 OFFCURVE",
"90 22 CURVE SMOOTH",
"89 44 OFFCURVE",
"105 118 OFFCURVE",
"120 154 CURVE"
);
}
);
};
layerId = "34A4CA4C-C6E5-4C7E-9ECD-8F87FE1EC3A4";
paths = (
{
closed = 1;
nodes = (
"84 -30 OFFCURVE",
"91 -28 OFFCURVE",
"96 -25 CURVE SMOOTH",
"104 -19 OFFCURVE",
"107 -13 OFFCURVE",
"107 -8 CURVE SMOOTH",
"107 4 OFFCURVE",
"90 14 OFFCURVE",
"90 22 CURVE SMOOTH",
"89 44 OFFCURVE",
"105 118 OFFCURVE",
"120 154 CURVE",
"152 105 OFFCURVE",
"298 -4 OFFCURVE",
"343 -20 CURVE SMOOTH",
"347 -21 OFFCURVE",
"350 -22 OFFCURVE",
"354 -22 CURVE SMOOTH",
"368 -22 OFFCURVE",
"381 -13 OFFCURVE",
"381 -1 CURVE SMOOTH",
"381 9 OFFCURVE",
"370 22 OFFCURVE",
"340 32 CURVE SMOOTH",
"304 44 OFFCURVE",
"173 175 OFFCURVE",
"165 203 CURVE",
"156 199 OFFCURVE",
"187 244 OFFCURVE",
"214 258 CURVE SMOOTH",
"303 305 OFFCURVE",
"391 381 OFFCURVE",
"585 491 CURVE SMOOTH",
"599 499 OFFCURVE",
"632 502 OFFCURVE",
"629 520 CURVE SMOOTH",
"626 536 OFFCURVE",
"614 543 OFFCURVE",
"601 543 CURVE SMOOTH",
"596 543 OFFCURVE",
"590 542 OFFCURVE",
"585 539 CURVE SMOOTH",
"389 432 OFFCURVE",
"303 376 OFFCURVE",
"211 308 CURVE SMOOTH",
"187 291 OFFCURVE",
"161 263 OFFCURVE",
"150 256 CURVE",
"188 369 OFFCURVE",
"259 511 OFFCURVE",
"300 560 CURVE SMOOTH",
"309 572 OFFCURVE",
"313 581 OFFCURVE",
"313 588 CURVE SMOOTH",
"313 599 OFFCURVE",
"304 604 OFFCURVE",
"293 604 CURVE SMOOTH",
"278 604 OFFCURVE",
"258 594 OFFCURVE",
"247 574 CURVE SMOOTH",
"190 466 OFFCURVE",
"85 274 OFFCURVE",
"42 27 CURVE SMOOTH",
"41 21 OFFCURVE",
"41 16 OFFCURVE",
"41 12 CURVE SMOOTH",
"41 -19 OFFCURVE",
"60 -30 OFFCURVE",
"77 -30 CURVE SMOOTH"
);
}
);
width = 437;
}
);
note = K;
unicode = 004B;
},
{
glyphname = L;
lastChange = "2022-01-12 01:24:45 +0000";
layers = (
{
background = {
paths = (
{
closed = 1;
nodes = (
"-2 -38 LINE",
"14 -29 OFFCURVE",
"31 -20 OFFCURVE",
"49 -12 CURVE",
"63 -30 OFFCURVE",
"89 -33 OFFCURVE",
"101 -24 CURVE SMOOTH",
"118 -13 OFFCURVE",
"111 -1 OFFCURVE",
"102 11 CURVE",
"172 38 OFFCURVE",
"246 55 OFFCURVE",
"309 49 CURVE SMOOTH",
"362 44 OFFCURVE",
"407 39 OFFCURVE",
"435 14 CURVE SMOOTH",
"445 5 OFFCURVE",
"448 0 OFFCURVE",
"446 -5 CURVE",
"447 -5 OFFCURVE",
"418 -58 OFFCURVE",
"452 -58 CURVE SMOOTH",
"455 -58 OFFCURVE",
"470 -56 OFFCURVE",
"480 -45 CURVE SMOOTH",
"490 -35 OFFCURVE",
"491 -20 OFFCURVE",
"494 -9 CURVE SMOOTH",
"498 5 OFFCURVE",
"501 21 OFFCURVE",
"495 32 CURVE SMOOTH",
"486 45 OFFCURVE",
"467 52 OFFCURVE",
"467 52 CURVE",
"434 75 OFFCURVE",
"389 76 OFFCURVE",
"338 81 CURVE SMOOTH",
"280 87 OFFCURVE",
"241 86 OFFCURVE",
"176 72 CURVE SMOOTH",
"142 64 OFFCURVE",
"114 53 OFFCURVE",
"87 41 CURVE",
"94 112 OFFCURVE",
"161 293 OFFCURVE",
"225 428 CURVE SMOOTH",
"239 458 OFFCURVE",
"261 479 OFFCURVE",
"274 501 CURVE SMOOTH",
"283 516 OFFCURVE",
"291 551 OFFCURVE",
"293 564 CURVE SMOOTH",
"297 595 OFFCURVE",
"260 605 OFFCURVE",
"245 577 CURVE SMOOTH",
"188 469 OFFCURVE",
"47 129 OFFCURVE",
"40 23 CURVE",
"41 20 LINE",
"27 14 OFFCURVE",
"13 8 OFFCURVE",
"-3 2 CURVE SMOOTH",
"-24 -7 OFFCURVE",
"-14 -46 OFFCURVE",
"-2 -39 CURVE"
);
}
);
};
layerId = "34A4CA4C-C6E5-4C7E-9ECD-8F87FE1EC3A4";
paths = (
{
closed = 1;
nodes = (
"455 -58 OFFCURVE",
"470 -56 OFFCURVE",
"480 -45 CURVE SMOOTH",
"490 -35 OFFCURVE",
"491 -20 OFFCURVE",
"494 -9 CURVE SMOOTH",
"496 -1 OFFCURVE",
"498 8 OFFCURVE",
"498 17 CURVE SMOOTH",
"498 22 OFFCURVE",
"497 28 OFFCURVE",
"495 32 CURVE SMOOTH",
"486 45 OFFCURVE",
"467 52 OFFCURVE",
"467 52 CURVE",
"434 75 OFFCURVE",
"389 76 OFFCURVE",
"338 81 CURVE SMOOTH",
"317 83 OFFCURVE",
"298 84 OFFCURVE",
"279 84 CURVE SMOOTH",
"248 84 OFFCURVE",
"217 81 OFFCURVE",
"176 72 CURVE SMOOTH",
"142 64 OFFCURVE",
"114 53 OFFCURVE",
"87 41 CURVE",
"94 112 OFFCURVE",
"161 293 OFFCURVE",
"225 428 CURVE SMOOTH",
"239 458 OFFCURVE",
"261 479 OFFCURVE",
"274 501 CURVE SMOOTH",
"284 518 OFFCURVE",
"293 560 OFFCURVE",
"293 568 CURVE SMOOTH",
"293 584 OFFCURVE",
"282 593 OFFCURVE",
"270 593 CURVE SMOOTH",
"261 593 OFFCURVE",
"251 588 OFFCURVE",
"245 577 CURVE SMOOTH",
"188 469 OFFCURVE",
"47 129 OFFCURVE",
"40 23 CURVE",
"41 20 LINE",
"27 14 OFFCURVE",
"13 8 OFFCURVE",
"-3 2 CURVE SMOOTH",
"-12 -2 OFFCURVE",
"-15 -11 OFFCURVE",
"-15 -20 CURVE SMOOTH",
"-15 -32 OFFCURVE",
"-9 -43 OFFCURVE",
"-2 -39 CURVE",
"-2 -38 LINE",
"14 -29 OFFCURVE",
"31 -20 OFFCURVE",
"49 -12 CURVE",
"58 -24 OFFCURVE",
"72 -29 OFFCURVE",
"84 -29 CURVE SMOOTH",
"91 -29 OFFCURVE",
"97 -27 OFFCURVE",
"101 -24 CURVE SMOOTH",
"109 -19 OFFCURVE",
"111 -14 OFFCURVE",
"111 -9 CURVE SMOOTH",
"111 -2 OFFCURVE",
"107 4 OFFCURVE",
"102 11 CURVE",
"163 34 OFFCURVE",
"226 50 OFFCURVE",
"283 50 CURVE SMOOTH",
"292 50 OFFCURVE",
"300 50 OFFCURVE",
"309 49 CURVE SMOOTH",
"362 44 OFFCURVE",
"407 39 OFFCURVE",
"435 14 CURVE SMOOTH",
"443 7 OFFCURVE",
"447 2 OFFCURVE",
"447 -2 CURVE SMOOTH",
"447 -3 OFFCURVE",
"446 -4 OFFCURVE",
"446 -5 CURVE",
"447 -5 OFFCURVE",
"435 -26 OFFCURVE",
"435 -41 CURVE SMOOTH",
"435 -51 OFFCURVE",
"439 -58 OFFCURVE",
"452 -58 CURVE SMOOTH"
);
}
);
width = 482;
}
);
note = L;
unicode = 004C;
},
{
glyphname = M;
lastChange = "2022-01-12 01:24:45 +0000";
layers = (
{
background = {
paths = (
{
closed = 1;
nodes = (
"281 539 LINE",
"285 571 OFFCURVE",
"257 565 OFFCURVE",
"242 537 CURVE SMOOTH",
"185 429 OFFCURVE",
"56 188 OFFCURVE",
"37 -17 CURVE SMOOTH",
"33 -66 OFFCURVE",
"92 -73 OFFCURVE",
"110 -61 CURVE SMOOTH",
"139 -40 OFFCURVE",
"93 -19 OFFCURVE",
"94 1 CURVE SMOOTH",
"106 162 OFFCURVE",
"152 266 OFFCURVE",
"218 404 CURVE SMOOTH",
"232 433 OFFCURVE",
"280 526 OFFCURVE",
"282 539 CURVE"
);
},
{
closed = 1;
nodes = (
"355 611 LINE",
"345 642 OFFCURVE",
"300 644 OFFCURVE",
"300 612 CURVE SMOOTH",
"299 522 OFFCURVE",
"288 469 OFFCURVE",
"299 374 CURVE SMOOTH",
"308 302 OFFCURVE",
"305 245 OFFCURVE",
"346 173 CURVE SMOOTH",
"357 155 OFFCURVE",
"368 143 OFFCURVE",
"379 128 CURVE SMOOTH",
"388 116 OFFCURVE",
"397 115 OFFCURVE",
"411 123 CURVE SMOOTH",
"459 150 OFFCURVE",
"478 173 OFFCURVE",
"526 208 CURVE SMOOTH",
"628 284 OFFCURVE",
"656 318 OFFCURVE",
"731 411 CURVE SMOOTH",
"735 415 OFFCURVE",
"763 443 OFFCURVE",
"766 447 CURVE",
"761 426 OFFCURVE",
"756 404 OFFCURVE",
"749 376 CURVE SMOOTH",
"728 284 OFFCURVE",
"688 230 OFFCURVE",
"678 124 CURVE SMOOTH",
"673 69 OFFCURVE",
"663 16 OFFCURVE",
"663 -35 CURVE SMOOTH",
"663 -68 OFFCURVE",
"728 -46 OFFCURVE",
"728 -14 CURVE SMOOTH",
"727 42 OFFCURVE",
"722 70 OFFCURVE",
"727 119 CURVE SMOOTH",
"736 213 OFFCURVE",
"774 290 OFFCURVE",
"798 393 CURVE SMOOTH",
"814 461 OFFCURVE",
"820 473 OFFCURVE",
"834 541 CURVE SMOOTH",
"839 565 OFFCURVE",
"804 580 OFFCURVE",
"790 561 CURVE SMOOTH",
"763 523 OFFCURVE",
"747 502 OFFCURVE",
"718 466 CURVE SMOOTH",
"640 370 OFFCURVE",
"604 309 OFFCURVE",
"510 240 CURVE SMOOTH",
"471 212 OFFCURVE",
"443 199 OFFCURVE",
"404 176 CURVE",
"399 182 OFFCURVE",
"394 189 OFFCURVE",
"389 198 CURVE SMOOTH",
"353 258 OFFCURVE",
"352 301 OFFCURVE",
"348 380 CURVE SMOOTH",
"344 479 OFFCURVE",
"367 572 OFFCURVE",
"355 610 CURVE"
);
}
);
};
layerId = "34A4CA4C-C6E5-4C7E-9ECD-8F87FE1EC3A4";
paths = (
{
closed = 1;
nodes = (
"701 -51 OFFCURVE",
"728 -35 OFFCURVE",
"728 -14 CURVE SMOOTH",
"727 24 OFFCURVE",
"725 49 OFFCURVE",
"725 76 CURVE SMOOTH",
"725 90 OFFCURVE",
"725 103 OFFCURVE",
"727 119 CURVE SMOOTH",
"736 213 OFFCURVE",
"774 290 OFFCURVE",
"798 393 CURVE SMOOTH",
"814 461 OFFCURVE",
"820 473 OFFCURVE",
"834 541 CURVE SMOOTH",
"837 557 OFFCURVE",
"822 570 OFFCURVE",
"808 570 CURVE SMOOTH",
"801 570 OFFCURVE",
"794 567 OFFCURVE",
"790 561 CURVE SMOOTH",
"763 523 OFFCURVE",
"747 502 OFFCURVE",
"718 466 CURVE SMOOTH",
"640 370 OFFCURVE",
"604 309 OFFCURVE",
"510 240 CURVE SMOOTH",
"471 212 OFFCURVE",
"443 199 OFFCURVE",
"404 176 CURVE",
"399 182 OFFCURVE",
"394 189 OFFCURVE",
"389 198 CURVE SMOOTH",
"353 258 OFFCURVE",
"352 301 OFFCURVE",
"348 380 CURVE SMOOTH",
"345 458 OFFCURVE",
"359 533 OFFCURVE",
"359 579 CURVE SMOOTH",
"359 592 OFFCURVE",
"358 602 OFFCURVE",
"355 610 CURVE",
"355 611 LINE",
"350 627 OFFCURVE",
"336 635 OFFCURVE",
"323 635 CURVE SMOOTH",
"311 635 OFFCURVE",
"300 628 OFFCURVE",
"300 612 CURVE SMOOTH",
"299 552 OFFCURVE",
"294 508 OFFCURVE",
"294 457 CURVE SMOOTH",
"294 432 OFFCURVE",
"295 405 OFFCURVE",
"299 374 CURVE SMOOTH",
"308 302 OFFCURVE",
"305 245 OFFCURVE",
"346 173 CURVE SMOOTH",
"357 155 OFFCURVE",
"368 143 OFFCURVE",
"379 128 CURVE SMOOTH",
"384 121 OFFCURVE",
"389 118 OFFCURVE",
"395 118 CURVE SMOOTH",
"400 118 OFFCURVE",
"405 120 OFFCURVE",
"411 123 CURVE SMOOTH",
"459 150 OFFCURVE",
"478 173 OFFCURVE",
"526 208 CURVE SMOOTH",
"628 284 OFFCURVE",
"656 318 OFFCURVE",
"731 411 CURVE SMOOTH",
"735 415 OFFCURVE",
"763 443 OFFCURVE",
"766 447 CURVE",
"749 376 LINE SMOOTH",
"728 284 OFFCURVE",
"688 230 OFFCURVE",
"678 124 CURVE SMOOTH",
"673 69 OFFCURVE",
"663 16 OFFCURVE",
"663 -35 CURVE SMOOTH",
"663 -47 OFFCURVE",
"671 -51 OFFCURVE",
"681 -51 CURVE SMOOTH"
);
},
{
closed = 1;
nodes = (
"97 -66 OFFCURVE",
"105 -64 OFFCURVE",
"110 -61 CURVE SMOOTH",
"117 -56 OFFCURVE",
"120 -51 OFFCURVE",
"120 -46 CURVE SMOOTH",
"120 -30 OFFCURVE",
"93 -14 OFFCURVE",
"94 1 CURVE SMOOTH",
"106 162 OFFCURVE",
"152 266 OFFCURVE",
"218 404 CURVE SMOOTH",
"232 433 OFFCURVE",
"280 526 OFFCURVE",
"282 539 CURVE",
"281 539 LINE",
"283 554 OFFCURVE",
"278 561 OFFCURVE",
"270 561 CURVE SMOOTH",
"262 561 OFFCURVE",
"250 552 OFFCURVE",
"242 537 CURVE SMOOTH",
"185 429 OFFCURVE",
"56 188 OFFCURVE",
"37 -17 CURVE SMOOTH",
"34 -53 OFFCURVE",
"65 -66 OFFCURVE",
"88 -66 CURVE SMOOTH"
);
}
);
width = 806;
}
);
note = M;
unicode = 004D;
},
{
glyphname = N;
lastChange = "2022-01-12 01:24:45 +0000";
layers = (
{
background = {
paths = (
{
closed = 1;
nodes = (
"237 488 LINE",
"241 520 OFFCURVE",
"213 514 OFFCURVE",
"198 486 CURVE SMOOTH",
"142 378 OFFCURVE",
"53 229 OFFCURVE",
"28 21 CURVE SMOOTH",
"22 -28 OFFCURVE",
"83 -36 OFFCURVE",
"101 -23 CURVE SMOOTH",
"129 -3 OFFCURVE",
"83 19 OFFCURVE",
"84 39 CURVE SMOOTH",
"96 200 OFFCURVE",
"108 214 OFFCURVE",
"174 352 CURVE SMOOTH",
"188 382 OFFCURVE",
"236 475 OFFCURVE",
"238 488 CURVE"
);
},
{
closed = 1;
nodes = (
"310 573 OFFCURVE",
"258 571 OFFCURVE",
"253 539 CURVE SMOOTH",
"245 492 OFFCURVE",
"268 366 OFFCURVE",
"309 239 CURVE SMOOTH",
"327 184 OFFCURVE",
"356 116 OFFCURVE",
"377 64 CURVE SMOOTH",
"385 45 OFFCURVE",
"414 42 OFFCURVE",
"424 58 CURVE SMOOTH",
"485 158 OFFCURVE",
"623 544 OFFCURVE",
"707 608 CURVE SMOOTH",
"719 617 OFFCURVE",
"733 634 OFFCURVE",
"728 643 CURVE SMOOTH",
"721 655 OFFCURVE",
"697 650 OFFCURVE",
"682 642 CURVE SMOOTH",
"624 614 OFFCURVE",
"457 192 OFFCURVE",
"410 119 CURVE",
"399 150 OFFCURVE",
"366 208 OFFCURVE",
"354 245 CURVE SMOOTH",
"318 352 OFFCURVE",
"300 457 OFFCURVE",
"301 495 CURVE",
"300 505 OFFCURVE",
"305 534 OFFCURVE",
"306 541 CURVE SMOOTH"
);
}
);
};
layerId = "34A4CA4C-C6E5-4C7E-9ECD-8F87FE1EC3A4";
paths = (
{
closed = 1;
nodes = (
"412 48 OFFCURVE",
"420 51 OFFCURVE",
"424 58 CURVE SMOOTH",
"485 158 OFFCURVE",
"623 544 OFFCURVE",
"707 608 CURVE SMOOTH",
"717 616 OFFCURVE",
"729 629 OFFCURVE",
"729 639 CURVE SMOOTH",
"729 647 OFFCURVE",
"721 650 OFFCURVE",
"712 650 CURVE SMOOTH",
"702 650 OFFCURVE",
"691 647 OFFCURVE",
"682 642 CURVE SMOOTH",
"624 614 OFFCURVE",
"457 192 OFFCURVE",
"410 119 CURVE",
"399 150 OFFCURVE",
"366 208 OFFCURVE",
"354 245 CURVE SMOOTH",
"318 352 OFFCURVE",
"300 457 OFFCURVE",
"301 495 CURVE",
"300 505 OFFCURVE",
"305 534 OFFCURVE",
"306 541 CURVE SMOOTH",
"308 557 OFFCURVE",
"297 564 OFFCURVE",
"284 564 CURVE SMOOTH",
"271 564 OFFCURVE",
"256 555 OFFCURVE",
"253 539 CURVE SMOOTH",
"252 533 OFFCURVE",
"251 525 OFFCURVE",
"251 516 CURVE SMOOTH",
"251 459 OFFCURVE",
"273 349 OFFCURVE",
"309 239 CURVE SMOOTH",
"327 184 OFFCURVE",
"356 116 OFFCURVE",
"377 64 CURVE SMOOTH",
"382 53 OFFCURVE",
"393 48 OFFCURVE",
"403 48 CURVE SMOOTH"
);
},
{
closed = 1;
nodes = (
"88 -29 OFFCURVE",
"96 -27 OFFCURVE",
"101 -23 CURVE SMOOTH",
"108 -18 OFFCURVE",
"110 -14 OFFCURVE",
"110 -9 CURVE SMOOTH",
"110 7 OFFCURVE",
"83 24 OFFCURVE",
"84 39 CURVE SMOOTH",
"96 200 OFFCURVE",
"108 214 OFFCURVE",
"174 352 CURVE SMOOTH",
"188 382 OFFCURVE",
"236 475 OFFCURVE",
"238 488 CURVE",
"237 488 LINE",
"239 503 OFFCURVE",
"234 510 OFFCURVE",
"226 510 CURVE SMOOTH",
"218 510 OFFCURVE",
"206 501 OFFCURVE",
"198 486 CURVE SMOOTH",
"142 378 OFFCURVE",
"53 229 OFFCURVE",
"28 21 CURVE SMOOTH",
"24 -15 OFFCURVE",
"55 -29 OFFCURVE",
"79 -29 CURVE SMOOTH"
);
}
);
width = 546;
}
);
note = N;
unicode = 004E;
},
{
glyphname = Eng;
lastChange = "2022-01-12 01:24:45 +0000";
layers = (
{
background = {
paths = (
{
closed = 1;
nodes = (
"725 648 OFFCURVE",
"719 650 OFFCURVE",
"712 650 CURVE SMOOTH",
"702 650 OFFCURVE",
"691 647 OFFCURVE",
"682 642 CURVE SMOOTH",
"624 614 OFFCURVE",
"457 192 OFFCURVE",
"410 119 CURVE",
"399 150 OFFCURVE",
"366 208 OFFCURVE",
"354 245 CURVE SMOOTH",
"318 352 OFFCURVE",
"300 457 OFFCURVE",
"301 495 CURVE",
"300 505 OFFCURVE",
"305 534 OFFCURVE",
"306 541 CURVE SMOOTH",
"308 557 OFFCURVE",
"297 564 OFFCURVE",
"284 564 CURVE SMOOTH",
"271 564 OFFCURVE",
"256 555 OFFCURVE",
"253 539 CURVE SMOOTH",
"252 533 OFFCURVE",
"251 525 OFFCURVE",
"251 516 CURVE SMOOTH",
"251 459 OFFCURVE",
"273 349 OFFCURVE",
"309 239 CURVE SMOOTH",
"327 184 OFFCURVE",
"356 116 OFFCURVE",
"377 64 CURVE",
"377 63 OFFCURVE",
"378 62 OFFCURVE",
"378 61 CURVE",
"345 -33 OFFCURVE",
"304 -151 OFFCURVE",
"271 -192 CURVE SMOOTH",
"258 -207 OFFCURVE",
"248 -215 OFFCURVE",
"234 -215 CURVE SMOOTH",
"229 -215 OFFCURVE",
"224 -214 OFFCURVE",
"218 -212 CURVE SMOOTH",
"205 -207 OFFCURVE",
"189 -178 OFFCURVE",
"179 -176 CURVE SMOOTH",
"170 -175 OFFCURVE",
"164 -174 OFFCURVE",
"160 -174 CURVE SMOOTH",
"154 -174 OFFCURVE",
"153 -176 OFFCURVE",
"153 -186 CURVE SMOOTH",
"153 -190 OFFCURVE",
"153 -196 OFFCURVE",
"153 -203 CURVE SMOOTH",
"154 -223 OFFCURVE",
"164 -240 OFFCURVE",
"191 -248 CURVE SMOOTH",
"209 -253 OFFCURVE",
"223 -256 OFFCURVE",
"236 -256 CURVE SMOOTH",
"255 -256 OFFCURVE",
"270 -250 OFFCURVE",
"284 -235 CURVE SMOOTH",
"331 -186 OFFCURVE",
"383 -58 OFFCURVE",
"424 59 CURVE",
"486 159 OFFCURVE",
"623 544 OFFCURVE",
"707 608 CURVE SMOOTH",
"719 617 OFFCURVE",
"733 634 OFFCURVE",
"728 643 CURVE SMOOTH"
);
},
{
closed = 1;
nodes = (
"96 200 OFFCURVE",
"108 214 OFFCURVE",
"174 352 CURVE SMOOTH",
"188 382 OFFCURVE",
"236 475 OFFCURVE",
"238 488 CURVE",
"237 488 LINE",
"239 503 OFFCURVE",
"234 510 OFFCURVE",
"226 510 CURVE SMOOTH",
"218 510 OFFCURVE",
"206 501 OFFCURVE",
"198 486 CURVE SMOOTH",
"142 378 OFFCURVE",
"53 229 OFFCURVE",
"28 21 CURVE SMOOTH",
"24 -15 OFFCURVE",
"55 -29 OFFCURVE",
"79 -29 CURVE SMOOTH",
"88 -29 OFFCURVE",
"96 -27 OFFCURVE",
"101 -23 CURVE SMOOTH",
"108 -18 OFFCURVE",
"110 -14 OFFCURVE",
"110 -9 CURVE SMOOTH",
"110 7 OFFCURVE",
"83 24 OFFCURVE",
"84 39 CURVE SMOOTH"
);
}
);
};
layerId = "34A4CA4C-C6E5-4C7E-9ECD-8F87FE1EC3A4";
paths = (
{
closed = 1;
nodes = (
"255 -256 OFFCURVE",
"270 -250 OFFCURVE",
"284 -235 CURVE SMOOTH",
"331 -186 OFFCURVE",
"383 -58 OFFCURVE",
"424 59 CURVE",
"486 159 OFFCURVE",
"623 544 OFFCURVE",
"707 608 CURVE SMOOTH",
"719 617 OFFCURVE",
"733 634 OFFCURVE",
"728 643 CURVE SMOOTH",
"725 648 OFFCURVE",
"719 650 OFFCURVE",
"712 650 CURVE SMOOTH",
"702 650 OFFCURVE",
"691 647 OFFCURVE",
"682 642 CURVE SMOOTH",
"624 614 OFFCURVE",
"457 192 OFFCURVE",
"410 119 CURVE",
"399 150 OFFCURVE",
"366 208 OFFCURVE",
"354 245 CURVE SMOOTH",
"318 352 OFFCURVE",
"300 457 OFFCURVE",
"301 495 CURVE",
"300 505 OFFCURVE",
"305 534 OFFCURVE",
"306 541 CURVE SMOOTH",
"308 557 OFFCURVE",
"297 564 OFFCURVE",
"284 564 CURVE SMOOTH",
"271 564 OFFCURVE",
"256 555 OFFCURVE",
"253 539 CURVE SMOOTH",
"252 533 OFFCURVE",
"251 525 OFFCURVE",
"251 516 CURVE SMOOTH",
"251 459 OFFCURVE",
"273 349 OFFCURVE",
"309 239 CURVE SMOOTH",
"327 184 OFFCURVE",
"356 116 OFFCURVE",
"377 64 CURVE",
"377 63 OFFCURVE",
"378 62 OFFCURVE",
"378 61 CURVE",
"345 -33 OFFCURVE",
"304 -151 OFFCURVE",
"271 -192 CURVE SMOOTH",
"258 -207 OFFCURVE",
"248 -215 OFFCURVE",
"234 -215 CURVE SMOOTH",
"229 -215 OFFCURVE",
"224 -214 OFFCURVE",
"218 -212 CURVE SMOOTH",
"205 -207 OFFCURVE",
"189 -178 OFFCURVE",
"179 -176 CURVE SMOOTH",
"170 -175 OFFCURVE",
"164 -174 OFFCURVE",
"160 -174 CURVE SMOOTH",
"154 -174 OFFCURVE",
"153 -176 OFFCURVE",
"153 -186 CURVE SMOOTH",
"153 -203 LINE SMOOTH",
"154 -223 OFFCURVE",
"164 -240 OFFCURVE",
"191 -248 CURVE SMOOTH",
"209 -253 OFFCURVE",
"223 -256 OFFCURVE",
"236 -256 CURVE SMOOTH"
);
},
{
closed = 1;
nodes = (
"88 -29 OFFCURVE",
"96 -27 OFFCURVE",
"101 -23 CURVE SMOOTH",
"108 -18 OFFCURVE",
"110 -14 OFFCURVE",
"110 -9 CURVE SMOOTH",
"110 7 OFFCURVE",
"83 24 OFFCURVE",
"84 39 CURVE SMOOTH",
"96 200 OFFCURVE",
"108 214 OFFCURVE",
"174 352 CURVE SMOOTH",
"188 382 OFFCURVE",
"236 475 OFFCURVE",
"238 488 CURVE",
"237 488 LINE",
"239 503 OFFCURVE",
"234 510 OFFCURVE",
"226 510 CURVE SMOOTH",
"218 510 OFFCURVE",
"206 501 OFFCURVE",
"198 486 CURVE SMOOTH",
"142 378 OFFCURVE",
"53 229 OFFCURVE",
"28 21 CURVE SMOOTH",
"24 -15 OFFCURVE",
"55 -29 OFFCURVE",
"79 -29 CURVE SMOOTH"
);
}
);
width = 778;
}
);
unicode = 014A;
},
{
glyphname = O;
lastChange = "2022-01-12 01:24:45 +0000";
layers = (
{
background = {
paths = (
{
closed = 1;
nodes = (
"288 557 OFFCURVE",
"332 545 OFFCURVE",
"330 567 CURVE SMOOTH",
"327 612 OFFCURVE",
"276 596 OFFCURVE",
"261 581 CURVE",
"211 547 OFFCURVE",
"84 428 OFFCURVE",
"57 300 CURVE SMOOTH",
"16 110 OFFCURVE",
"53 1 OFFCURVE",
"198 -33 CURVE SMOOTH",
"390 -77 OFFCURVE",
"845 209 OFFCURVE",
"796 400 CURVE",
"740 534 OFFCURVE",
"600 516 OFFCURVE",
"488 511 CURVE SMOOTH",
"400 507 OFFCURVE",
"323 463 OFFCURVE",
"281 444 CURVE SMOOTH",
"252 431 OFFCURVE",
"258 398 OFFCURVE",
"287 412 CURVE SMOOTH",
"331 432 OFFCURVE",
"420 464 OFFCURVE",
"494 468 CURVE SMOOTH",
"614 474 OFFCURVE",
"715 475 OFFCURVE",
"749 381 CURVE",
"775 238 OFFCURVE",
"354 -36 OFFCURVE",
"208 14 CURVE SMOOTH",
"94 53 OFFCURVE",
"79 173 OFFCURVE",
"104 291 CURVE SMOOTH",
"127 401 OFFCURVE",
"255 524 OFFCURVE",
"280 549 CURVE SMOOTH"
);
}
);
};
layerId = "34A4CA4C-C6E5-4C7E-9ECD-8F87FE1EC3A4";
paths = (
{
closed = 1;
nodes = (
"440 -38 OFFCURVE",
"800 195 OFFCURVE",
"800 370 CURVE SMOOTH",
"800 380 OFFCURVE",
"798 390 OFFCURVE",
"796 400 CURVE",
"755 498 OFFCURVE",
"669 515 OFFCURVE",
"583 515 CURVE SMOOTH",
"550 515 OFFCURVE",
"518 512 OFFCURVE",
"488 511 CURVE SMOOTH",
"400 507 OFFCURVE",
"323 463 OFFCURVE",
"281 444 CURVE SMOOTH",
"268 438 OFFCURVE",
"262 428 OFFCURVE",
"262 421 CURVE SMOOTH",
"262 414 OFFCURVE",
"266 409 OFFCURVE",
"274 409 CURVE SMOOTH",
"278 409 OFFCURVE",
"282 410 OFFCURVE",
"287 412 CURVE SMOOTH",
"331 432 OFFCURVE",
"420 464 OFFCURVE",
"494 468 CURVE SMOOTH",
"519 469 OFFCURVE",
"543 470 OFFCURVE",
"566 470 CURVE SMOOTH",
"653 470 OFFCURVE",
"722 455 OFFCURVE",
"749 381 CURVE SMOOTH",
"750 377 OFFCURVE",
"750 372 OFFCURVE",
"750 368 CURVE SMOOTH",
"750 234 OFFCURVE",
"414 8 OFFCURVE",
"249 8 CURVE SMOOTH",
"234 8 OFFCURVE",
"220 10 OFFCURVE",
"208 14 CURVE SMOOTH",
"124 43 OFFCURVE",
"94 116 OFFCURVE",
"94 199 CURVE SMOOTH",
"94 229 OFFCURVE",
"97 260 OFFCURVE",
"104 291 CURVE SMOOTH",
"127 401 OFFCURVE",
"255 524 OFFCURVE",
"280 549 CURVE SMOOTH",
"288 557 OFFCURVE",
"330 546 OFFCURVE",
"330 566 CURVE SMOOTH",
"330 589 OFFCURVE",
"315 597 OFFCURVE",
"301 597 CURVE SMOOTH",
"286 597 OFFCURVE",
"269 589 OFFCURVE",
"261 581 CURVE",
"211 547 OFFCURVE",
"84 428 OFFCURVE",
"57 300 CURVE SMOOTH",
"47 252 OFFCURVE",
"41 210 OFFCURVE",
"41 172 CURVE SMOOTH",
"41 60 OFFCURVE",
"89 -8 OFFCURVE",
"198 -33 CURVE SMOOTH",
"211 -36 OFFCURVE",
"226 -38 OFFCURVE",
"242 -38 CURVE SMOOTH"
);
}
);
width = 777;
}
);
note = O;
unicode = 004F;
},
{
glyphname = Oslash;
lastChange = "2022-01-12 01:24:45 +0000";
layers = (
{
background = {
paths = (
{
closed = 1;
nodes = (
"288 557 OFFCURVE",
"332 545 OFFCURVE",
"330 567 CURVE SMOOTH",
"327 612 OFFCURVE",
"276 596 OFFCURVE",
"261 581 CURVE",
"211 547 OFFCURVE",
"84 428 OFFCURVE",
"57 300 CURVE SMOOTH",
"16 110 OFFCURVE",
"53 1 OFFCURVE",
"198 -33 CURVE SMOOTH",
"390 -77 OFFCURVE",
"845 209 OFFCURVE",
"796 400 CURVE",
"740 534 OFFCURVE",
"600 516 OFFCURVE",
"488 511 CURVE SMOOTH",
"400 507 OFFCURVE",
"323 463 OFFCURVE",
"281 444 CURVE SMOOTH",
"252 431 OFFCURVE",
"258 398 OFFCURVE",
"287 412 CURVE SMOOTH",
"331 432 OFFCURVE",
"420 464 OFFCURVE",
"494 468 CURVE SMOOTH",
"614 474 OFFCURVE",
"715 475 OFFCURVE",
"749 381 CURVE",
"775 238 OFFCURVE",
"354 -36 OFFCURVE",
"208 14 CURVE SMOOTH",
"94 53 OFFCURVE",
"79 173 OFFCURVE",
"104 291 CURVE SMOOTH",
"127 401 OFFCURVE",
"255 524 OFFCURVE",
"280 549 CURVE SMOOTH"
);
},
{
closed = 1;
nodes = (
"594 628 OFFCURVE",
"549 600 OFFCURVE",
"549 600 CURVE",
"158 -62 LINE",
"158 -62 OFFCURVE",
"170 -92 OFFCURVE",
"184 -62 CURVE",
"241 -1 OFFCURVE",
"585 601 OFFCURVE",
"585 601 CURVE"
);
}
);
};
layerId = "34A4CA4C-C6E5-4C7E-9ECD-8F87FE1EC3A4";
paths = (
{
closed = 1;
nodes = (
"440 -38 OFFCURVE",
"800 195 OFFCURVE",
"800 370 CURVE SMOOTH",
"800 380 OFFCURVE",
"798 390 OFFCURVE",
"796 400 CURVE",
"755 498 OFFCURVE",
"669 515 OFFCURVE",
"583 515 CURVE SMOOTH",
"550 515 OFFCURVE",
"518 512 OFFCURVE",
"488 511 CURVE SMOOTH",
"400 507 OFFCURVE",
"323 463 OFFCURVE",
"281 444 CURVE SMOOTH",
"268 438 OFFCURVE",
"262 428 OFFCURVE",
"262 421 CURVE SMOOTH",
"262 414 OFFCURVE",
"266 409 OFFCURVE",
"274 409 CURVE SMOOTH",
"278 409 OFFCURVE",
"282 410 OFFCURVE",
"287 412 CURVE SMOOTH",
"331 432 OFFCURVE",
"420 464 OFFCURVE",
"494 468 CURVE SMOOTH",
"519 469 OFFCURVE",
"543 470 OFFCURVE",
"566 470 CURVE SMOOTH",
"653 470 OFFCURVE",
"722 455 OFFCURVE",
"749 381 CURVE SMOOTH",
"750 377 OFFCURVE",
"750 372 OFFCURVE",
"750 368 CURVE SMOOTH",
"750 234 OFFCURVE",
"414 8 OFFCURVE",
"249 8 CURVE SMOOTH",
"234 8 OFFCURVE",
"220 10 OFFCURVE",
"208 14 CURVE SMOOTH",
"124 43 OFFCURVE",
"94 116 OFFCURVE",
"94 199 CURVE SMOOTH",
"94 229 OFFCURVE",
"97 260 OFFCURVE",
"104 291 CURVE SMOOTH",
"127 401 OFFCURVE",
"255 524 OFFCURVE",
"280 549 CURVE SMOOTH",
"288 557 OFFCURVE",
"330 546 OFFCURVE",
"330 566 CURVE SMOOTH",
"330 589 OFFCURVE",
"315 597 OFFCURVE",
"301 597 CURVE SMOOTH",
"286 597 OFFCURVE",
"269 589 OFFCURVE",
"261 581 CURVE",
"211 547 OFFCURVE",
"84 428 OFFCURVE",
"57 300 CURVE SMOOTH",
"47 252 OFFCURVE",
"41 210 OFFCURVE",
"41 172 CURVE SMOOTH",
"41 60 OFFCURVE",
"89 -8 OFFCURVE",
"198 -33 CURVE SMOOTH",
"211 -36 OFFCURVE",
"226 -38 OFFCURVE",
"242 -38 CURVE SMOOTH"
);
},
{
closed = 1;
nodes = (
"175 -75 OFFCURVE",
"179 -72 OFFCURVE",
"184 -62 CURVE",
"241 -1 OFFCURVE",
"585 601 OFFCURVE",
"585 601 CURVE",
"588 610 OFFCURVE",
"585 613 OFFCURVE",
"580 613 CURVE SMOOTH",
"569 613 OFFCURVE",
"549 600 OFFCURVE",
"549 600 CURVE",
"158 -62 LINE",
"158 -62 OFFCURVE",
"163 -75 OFFCURVE",
"171 -75 CURVE SMOOTH"
);
}
);
width = 777;
}
);
note = Oslash;
unicode = 00D8;
},
{
glyphname = OE;
lastChange = "2022-01-12 01:24:45 +0000";
layers = (
{
background = {
paths = (
{
closed = 1;
nodes = (
"1133 552 LINE SMOOTH",
"1190 563 OFFCURVE",
"1195 614 OFFCURVE",
"1124 599 CURVE SMOOTH",
"1013 576 OFFCURVE",
"884 492 OFFCURVE",
"797 394 CURVE",
"797 396 OFFCURVE",
"797 398 OFFCURVE",
"796 400 CURVE SMOOTH",
"740 534 OFFCURVE",
"600 516 OFFCURVE",
"488 511 CURVE SMOOTH",
"400 507 OFFCURVE",
"323 463 OFFCURVE",
"281 444 CURVE SMOOTH",
"252 431 OFFCURVE",
"258 398 OFFCURVE",
"287 412 CURVE SMOOTH",
"331 432 OFFCURVE",
"420 464 OFFCURVE",
"494 468 CURVE SMOOTH",
"614 474 OFFCURVE",
"715 475 OFFCURVE",
"749 381 CURVE",
"775 238 OFFCURVE",
"354 -36 OFFCURVE",
"208 14 CURVE SMOOTH",
"94 53 OFFCURVE",
"79 173 OFFCURVE",
"104 291 CURVE SMOOTH",
"127 401 OFFCURVE",
"255 524 OFFCURVE",
"280 549 CURVE SMOOTH",
"288 557 OFFCURVE",
"332 545 OFFCURVE",
"330 567 CURVE SMOOTH",
"327 612 OFFCURVE",
"276 596 OFFCURVE",
"261 581 CURVE",
"211 547 OFFCURVE",
"84 428 OFFCURVE",
"57 300 CURVE SMOOTH",
"16 110 OFFCURVE",
"53 1 OFFCURVE",
"198 -33 CURVE SMOOTH",
"318 -61 OFFCURVE",
"539 40 OFFCURVE",
"678 166 CURVE",
"671 119 OFFCURVE",
"678 71 OFFCURVE",
"708 27 CURVE SMOOTH",
"750 -36 OFFCURVE",
"856 -70 OFFCURVE",
"967 -48 CURVE SMOOTH",
"1100 -22 OFFCURVE",
"1135 44 OFFCURVE",
"1149 53 CURVE SMOOTH",
"1176 70 OFFCURVE",
"1174 123 OFFCURVE",
"1146 106 CURVE",
"1113 79 OFFCURVE",
"1080 28 OFFCURVE",
"956 -1 CURVE SMOOTH",
"864 -22 OFFCURVE",
"772 17 OFFCURVE",
"747 54 CURVE SMOOTH",
"694 131 OFFCURVE",
"745 250 OFFCURVE",
"809 333 CURVE SMOOTH",
"886 434 OFFCURVE",
"1028 531 OFFCURVE",
"1132 552 CURVE SMOOTH"
);
},
{
closed = 1;
nodes = (
"766 215 OFFCURVE",
"779 170 OFFCURVE",
"810 181 CURVE SMOOTH",
"839 191 OFFCURVE",
"856 206 OFFCURVE",
"878 214 CURVE",
"878 215 LINE",
"952 241 OFFCURVE",
"998 234 OFFCURVE",
"1082 251 CURVE SMOOTH",
"1115 257 OFFCURVE",
"1115 296 OFFCURVE",
"1083 296 CURVE SMOOTH",
"1035 296 OFFCURVE",
"866 254 OFFCURVE",
"866 254 CURVE",
"838 249 OFFCURVE",
"822 235 OFFCURVE",
"797 226 CURVE SMOOTH"
);
}
);
};
layerId = "34A4CA4C-C6E5-4C7E-9ECD-8F87FE1EC3A4";
paths = (
{
closed = 1;
nodes = (
"921 -55 OFFCURVE",
"944 -53 OFFCURVE",
"967 -48 CURVE SMOOTH",
"1100 -22 OFFCURVE",
"1135 44 OFFCURVE",
"1149 53 CURVE SMOOTH",
"1162 61 OFFCURVE",
"1168 78 OFFCURVE",
"1168 91 CURVE SMOOTH",
"1168 101 OFFCURVE",
"1164 109 OFFCURVE",
"1156 109 CURVE SMOOTH",
"1153 109 OFFCURVE",
"1150 108 OFFCURVE",
"1146 106 CURVE",
"1113 79 OFFCURVE",
"1080 28 OFFCURVE",
"956 -1 CURVE SMOOTH",
"938 -5 OFFCURVE",
"920 -7 OFFCURVE",
"903 -7 CURVE SMOOTH",
"831 -7 OFFCURVE",
"767 24 OFFCURVE",
"747 54 CURVE SMOOTH",
"732 76 OFFCURVE",
"725 103 OFFCURVE",
"725 130 CURVE SMOOTH",
"725 197 OFFCURVE",
"764 274 OFFCURVE",
"809 333 CURVE SMOOTH",
"886 434 OFFCURVE",
"1028 531 OFFCURVE",
"1132 552 CURVE SMOOTH",
"1133 552 LINE SMOOTH",
"1161 558 OFFCURVE",
"1177 573 OFFCURVE",
"1177 585 CURVE SMOOTH",
"1177 594 OFFCURVE",
"1167 602 OFFCURVE",
"1147 602 CURVE SMOOTH",
"1141 602 OFFCURVE",
"1133 601 OFFCURVE",
"1124 599 CURVE SMOOTH",
"1013 576 OFFCURVE",
"884 492 OFFCURVE",
"797 394 CURVE",
"797 396 OFFCURVE",
"797 398 OFFCURVE",
"796 400 CURVE SMOOTH",
"755 498 OFFCURVE",
"669 515 OFFCURVE",
"583 515 CURVE SMOOTH",
"550 515 OFFCURVE",
"518 512 OFFCURVE",
"488 511 CURVE SMOOTH",
"400 507 OFFCURVE",
"323 463 OFFCURVE",
"281 444 CURVE SMOOTH",
"268 438 OFFCURVE",
"262 428 OFFCURVE",
"262 421 CURVE SMOOTH",
"262 414 OFFCURVE",
"266 409 OFFCURVE",
"274 409 CURVE SMOOTH",
"278 409 OFFCURVE",
"282 410 OFFCURVE",
"287 412 CURVE SMOOTH",
"331 432 OFFCURVE",
"420 464 OFFCURVE",
"494 468 CURVE SMOOTH",
"519 469 OFFCURVE",
"543 470 OFFCURVE",
"566 470 CURVE SMOOTH",
"653 470 OFFCURVE",
"722 455 OFFCURVE",
"749 381 CURVE SMOOTH",
"750 377 OFFCURVE",
"750 372 OFFCURVE",
"750 368 CURVE SMOOTH",
"750 234 OFFCURVE",
"414 8 OFFCURVE",
"249 8 CURVE SMOOTH",
"234 8 OFFCURVE",
"220 10 OFFCURVE",
"208 14 CURVE SMOOTH",
"124 43 OFFCURVE",
"94 116 OFFCURVE",
"94 199 CURVE SMOOTH",
"94 229 OFFCURVE",
"97 260 OFFCURVE",
"104 291 CURVE SMOOTH",
"127 401 OFFCURVE",
"255 524 OFFCURVE",
"280 549 CURVE SMOOTH",
"288 557 OFFCURVE",
"330 546 OFFCURVE",
"330 566 CURVE SMOOTH",
"330 589 OFFCURVE",
"315 597 OFFCURVE",
"301 597 CURVE SMOOTH",
"286 597 OFFCURVE",
"269 589 OFFCURVE",
"261 581 CURVE",
"211 547 OFFCURVE",
"84 428 OFFCURVE",
"57 300 CURVE SMOOTH",
"47 252 OFFCURVE",
"41 210 OFFCURVE",
"41 172 CURVE SMOOTH",
"41 60 OFFCURVE",
"89 -8 OFFCURVE",
"198 -33 CURVE SMOOTH",
"212 -36 OFFCURVE",
"227 -38 OFFCURVE",
"243 -38 CURVE SMOOTH",
"367 -38 OFFCURVE",
"555 54 OFFCURVE",
"678 166 CURVE",
"676 155 OFFCURVE",
"676 144 OFFCURVE",
"676 133 CURVE SMOOTH",
"676 97 OFFCURVE",
"685 61 OFFCURVE",
"708 27 CURVE SMOOTH",
"741 -23 OFFCURVE",
"815 -55 OFFCURVE",
"899 -55 CURVE SMOOTH"
);
},
{
closed = 1;
nodes = (
"804 179 OFFCURVE",
"807 180 OFFCURVE",
"810 181 CURVE SMOOTH",
"839 191 OFFCURVE",
"856 206 OFFCURVE",
"878 214 CURVE",
"878 215 LINE",
"952 241 OFFCURVE",
"998 234 OFFCURVE",
"1082 251 CURVE SMOOTH",
"1099 254 OFFCURVE",
"1107 265 OFFCURVE",
"1107 276 CURVE SMOOTH",
"1107 286 OFFCURVE",
"1099 296 OFFCURVE",
"1083 296 CURVE SMOOTH",
"1035 296 OFFCURVE",
"866 254 OFFCURVE",
"866 254 CURVE",
"838 249 OFFCURVE",
"822 235 OFFCURVE",
"797 226 CURVE SMOOTH",
"785 222 OFFCURVE",
"779 212 OFFCURVE",
"779 202 CURVE SMOOTH",
"779 190 OFFCURVE",
"788 179 OFFCURVE",
"801 179 CURVE SMOOTH"
);
}
);
width = 1188;
}
);
note = OE;
unicode = 0152;
},
{
glyphname = P;
lastChange = "2022-01-12 01:24:45 +0000";
layers = (
{
background = {
paths = (
{
closed = 1;
nodes = (
"195 330 OFFCURVE",
"242 429 OFFCURVE",
"275 486 CURVE",
"278 486 OFFCURVE",
"281 487 OFFCURVE",
"284 488 CURVE SMOOTH",
"321 501 OFFCURVE",
"321 528 OFFCURVE",
"343 528 CURVE",
"427 542 OFFCURVE",
"511 507 OFFCURVE",
"511 459 CURVE",
"520 398 OFFCURVE",
"438 334 OFFCURVE",
"314 279 CURVE SMOOTH",
"216 236 OFFCURVE",
"173 244 OFFCURVE",
"159 245 CURVE"
);
},
{
closed = 1;
nodes = (
"312 553 LINE",
"307 575 OFFCURVE",
"261 571 OFFCURVE",
"243 537 CURVE SMOOTH",
"186 428 OFFCURVE",
"81 236 OFFCURVE",
"38 -11 CURVE SMOOTH",
"28 -69 OFFCURVE",
"78 -75 OFFCURVE",
"96 -63 CURVE SMOOTH",
"125 -42 OFFCURVE",
"90 -27 OFFCURVE",
"90 -16 CURVE SMOOTH",
"89 5 OFFCURVE",
"104 103 OFFCURVE",
"117 140 CURVE SMOOTH",
"123 158 OFFCURVE",
"131 180 OFFCURVE",
"141 204 CURVE",
"180 203 OFFCURVE",
"277 215 OFFCURVE",
"334 241 CURVE SMOOTH",
"456 297 OFFCURVE",
"568 352 OFFCURVE",
"560 461 CURVE SMOOTH",
"553 564 OFFCURVE",
"439 579 OFFCURVE",
"350 564 CURVE SMOOTH",
"336 562 OFFCURVE",
"323 558 OFFCURVE",
"311 553 CURVE"
);
}
);
};
layerId = "34A4CA4C-C6E5-4C7E-9ECD-8F87FE1EC3A4";
paths = (
{
closed = 1;
nodes = (
"84 -68 OFFCURVE",
"91 -66 OFFCURVE",
"96 -63 CURVE SMOOTH",
"104 -57 OFFCURVE",
"107 -51 OFFCURVE",
"107 -46 CURVE SMOOTH",
"107 -34 OFFCURVE",
"90 -24 OFFCURVE",
"90 -16 CURVE SMOOTH",
"89 5 OFFCURVE",
"104 103 OFFCURVE",
"117 140 CURVE SMOOTH",
"123 158 OFFCURVE",
"131 180 OFFCURVE",
"141 204 CURVE",
"180 203 OFFCURVE",
"277 215 OFFCURVE",
"334 241 CURVE SMOOTH",
"452 295 OFFCURVE",
"560 348 OFFCURVE",
"560 450 CURVE SMOOTH",
"560 541 OFFCURVE",
"485 569 OFFCURVE",
"408 569 CURVE SMOOTH",
"388 569 OFFCURVE",
"369 567 OFFCURVE",
"350 564 CURVE SMOOTH",
"336 562 OFFCURVE",
"323 558 OFFCURVE",
"311 553 CURVE",
"312 553 LINE",
"310 562 OFFCURVE",
"301 567 OFFCURVE",
"290 567 CURVE SMOOTH",
"274 567 OFFCURVE",
"254 557 OFFCURVE",
"243 537 CURVE SMOOTH",
"186 428 OFFCURVE",
"81 236 OFFCURVE",
"38 -11 CURVE SMOOTH",
"37 -16 OFFCURVE",
"37 -21 OFFCURVE",
"37 -25 CURVE SMOOTH",
"37 -57 OFFCURVE",
"58 -68 OFFCURVE",
"77 -68 CURVE SMOOTH"
);
},
{
closed = 1;
nodes = (
"170 244 OFFCURVE",
"163 245 OFFCURVE",
"159 245 CURVE",
"195 330 OFFCURVE",
"242 429 OFFCURVE",
"275 486 CURVE",
"278 486 OFFCURVE",
"281 487 OFFCURVE",
"284 488 CURVE SMOOTH",
"321 501 OFFCURVE",
"321 528 OFFCURVE",
"343 528 CURVE",
"356 530 OFFCURVE",
"368 531 OFFCURVE",
"381 531 CURVE SMOOTH",
"450 531 OFFCURVE",
"511 500 OFFCURVE",
"511 459 CURVE",
"520 398 OFFCURVE",
"438 334 OFFCURVE",
"314 279 CURVE SMOOTH",
"245 249 OFFCURVE",
"204 244 OFFCURVE",
"180 244 CURVE SMOOTH"
);
}
);
width = 467;
}
);
note = P;
unicode = 0050;
},
{
glyphname = Thorn;
lastChange = "2022-01-12 01:24:45 +0000";
layers = (
{
background = {
paths = (
{
closed = 1;
nodes = (
"-14 467 OFFCURVE",
"2 467 OFFCURVE",
"22 465 CURVE",
"17 386 OFFCURVE",
"12 307 OFFCURVE",
"11 267 CURVE SMOOTH",
"8 210 OFFCURVE",
"1 155 OFFCURVE",
"5 96 CURVE SMOOTH",
"8 55 OFFCURVE",
"2 15 OFFCURVE",
"13 -27 CURVE SMOOTH",
"16 -38 OFFCURVE",
"38 -74 OFFCURVE",
"53 -74 CURVE SMOOTH",
"67 -74 OFFCURVE",
"76 -54 OFFCURVE",
"72 -41 CURVE SMOOTH",
"70 -30 OFFCURVE",
"61 -20 OFFCURVE",
"58 -9 CURVE SMOOTH",
"50 26 OFFCURVE",
"55 66 OFFCURVE",
"54 100 CURVE SMOOTH",
"53 122 OFFCURVE",
"52 144 OFFCURVE",
"53 166 CURVE",
"138 161 OFFCURVE",
"253 188 OFFCURVE",
"290 291 CURVE SMOOTH",
"328 400 OFFCURVE",
"232 444 OFFCURVE",
"126 488 CURVE SMOOTH",
"110 494 OFFCURVE",
"92 499 OFFCURVE",
"71 502 CURVE",
"76 592 LINE SMOOTH",
"77 609 OFFCURVE",
"85 644 OFFCURVE",
"81 659 CURVE SMOOTH",
"79 667 OFFCURVE",
"60 678 OFFCURVE",
"51 678 CURVE SMOOTH",
"38 678 OFFCURVE",
"35 663 OFFCURVE",
"35 653 CURVE SMOOTH",
"32 622 OFFCURVE",
"29 567 OFFCURVE",
"25 506 CURVE",
"8 507 OFFCURVE",
"-8 506 OFFCURVE",
"-23 505 CURVE SMOOTH",
"-55 501 OFFCURVE",
"-60 475 OFFCURVE",
"-26 469 CURVE SMOOTH"
);
},
{
closed = 1;
nodes = (
"57 265 LINE SMOOTH",
"58 298 OFFCURVE",
"64 381 OFFCURVE",
"69 457 CURVE",
"95 448 LINE SMOOTH",
"203 405 OFFCURVE",
"267 350 OFFCURVE",
"241 288 CURVE",
"228 240 OFFCURVE",
"134 196 OFFCURVE",
"54 201 CURVE"
);
}
);
};
layerId = "34A4CA4C-C6E5-4C7E-9ECD-8F87FE1EC3A4";
paths = (
{
closed = 1;
nodes = (
"65 -74 OFFCURVE",
"73 -60 OFFCURVE",
"73 -48 CURVE SMOOTH",
"73 -34 OFFCURVE",
"62 -22 OFFCURVE",
"58 -9 CURVE SMOOTH",
"54 8 OFFCURVE",
"53 26 OFFCURVE",
"53 44 CURVE SMOOTH",
"53 60 OFFCURVE",
"54 75 OFFCURVE",
"54 90 CURVE SMOOTH",
"54 115 OFFCURVE",
"52 141 OFFCURVE",
"53 166 CURVE",
"138 161 OFFCURVE",
"253 188 OFFCURVE",
"290 291 CURVE SMOOTH",
"296 308 OFFCURVE",
"298 323 OFFCURVE",
"298 337 CURVE SMOOTH",
"298 413 OFFCURVE",
"216 451 OFFCURVE",
"126 488 CURVE SMOOTH",
"110 494 OFFCURVE",
"92 499 OFFCURVE",
"71 502 CURVE",
"76 592 LINE SMOOTH",
"77 606 OFFCURVE",
"82 631 OFFCURVE",
"82 648 CURVE SMOOTH",
"82 652 OFFCURVE",
"82 656 OFFCURVE",
"81 659 CURVE SMOOTH",
"79 667 OFFCURVE",
"60 678 OFFCURVE",
"51 678 CURVE SMOOTH",
"38 678 OFFCURVE",
"35 663 OFFCURVE",
"35 653 CURVE SMOOTH",
"32 622 OFFCURVE",
"29 567 OFFCURVE",
"25 506 CURVE",
"8 507 OFFCURVE",
"-8 506 OFFCURVE",
"-23 505 CURVE SMOOTH",
"-40 503 OFFCURVE",
"-49 495 OFFCURVE",
"-49 486 CURVE SMOOTH",
"-49 479 OFFCURVE",
"-42 472 OFFCURVE",
"-26 469 CURVE SMOOTH",
"-14 467 OFFCURVE",
"2 467 OFFCURVE",
"22 465 CURVE",
"17 386 OFFCURVE",
"12 307 OFFCURVE",
"11 267 CURVE SMOOTH",
"9 222 OFFCURVE",
"4 178 OFFCURVE",
"4 133 CURVE SMOOTH",
"4 121 OFFCURVE",
"4 109 OFFCURVE",
"5 96 CURVE SMOOTH",
"6 79 OFFCURVE",
"6 62 OFFCURVE",
"6 46 CURVE SMOOTH",
"6 22 OFFCURVE",
"7 -2 OFFCURVE",
"13 -27 CURVE SMOOTH",
"16 -38 OFFCURVE",
"38 -74 OFFCURVE",
"53 -74 CURVE SMOOTH"
);
},
{
closed = 1;
nodes = (
"57 265 LINE SMOOTH",
"58 298 OFFCURVE",
"64 381 OFFCURVE",
"69 457 CURVE",
"95 448 LINE SMOOTH",
"187 411 OFFCURVE",
"247 366 OFFCURVE",
"247 315 CURVE SMOOTH",
"247 306 OFFCURVE",
"245 297 OFFCURVE",
"241 288 CURVE",
"228 240 OFFCURVE",
"134 196 OFFCURVE",
"54 201 CURVE"
);
}
);
width = 297;
}
);
note = Thorn;
unicode = 00DE;
},
{
glyphname = Q;
lastChange = "2022-01-12 01:24:45 +0000";
layers = (
{
background = {
paths = (
{
closed = 1;
nodes = (
"618 101 OFFCURVE",
"743 227 OFFCURVE",
"740 387 CURVE SMOOTH",
"738 477 OFFCURVE",
"662 518 OFFCURVE",
"570 510 CURVE",
"573 512 OFFCURVE",
"576 514 OFFCURVE",
"579 517 CURVE",
"589 590 OFFCURVE",
"520 575 OFFCURVE",
"495 575 CURVE SMOOTH",
"402 575 OFFCURVE",
"195 512 OFFCURVE",
"84 317 CURVE SMOOTH",
"16 197 OFFCURVE",
"21 -6 OFFCURVE",
"210 -28 CURVE SMOOTH",
"274 -35 OFFCURVE",
"357 -21 OFFCURVE",
"438 13 CURVE",
"495 -43 OFFCURVE",
"547 -113 OFFCURVE",
"561 -169 CURVE SMOOTH",
"569 -200 OFFCURVE",
"605 -184 OFFCURVE",
"596 -153 CURVE SMOOTH",
"578 -90 OFFCURVE",
"531 -24 OFFCURVE",
"476 31 CURVE"
);
},
{
closed = 1;
nodes = (
"138 111 LINE",
"123 83 OFFCURVE",
"166 58 OFFCURVE",
"181 86 CURVE SMOOTH",
"189 101 OFFCURVE",
"186 110 OFFCURVE",
"208 115 CURVE SMOOTH",
"232 120 OFFCURVE",
"270 118 OFFCURVE",
"316 100 CURVE SMOOTH",
"343 89 OFFCURVE",
"374 69 OFFCURVE",
"405 43 CURVE",
"343 18 OFFCURVE",
"281 6 OFFCURVE",
"233 12 CURVE SMOOTH",
"93 30 OFFCURVE",
"59 193 OFFCURVE",
"128 311 CURVE SMOOTH",
"229 486 OFFCURVE",
"416 534 OFFCURVE",
"492 534 CURVE SMOOTH",
"520 534 OFFCURVE",
"538 518 OFFCURVE",
"533 518 CURVE SMOOTH",
"518 518 OFFCURVE",
"520 509 OFFCURVE",
"531 505 CURVE",
"477 493 OFFCURVE",
"433 470 OFFCURVE",
"394 431 CURVE SMOOTH",
"373 410 OFFCURVE",
"389 380 OFFCURVE",
"410 401 CURVE SMOOTH",
"449 440 OFFCURVE",
"502 475 OFFCURVE",
"558 480 CURVE SMOOTH",
"648 489 OFFCURVE",
"681 448 OFFCURVE",
"687 379 CURVE SMOOTH",
"699 245 OFFCURVE",
"577 125 OFFCURVE",
"445 61 CURVE",
"404 96 OFFCURVE",
"361 124 OFFCURVE",
"323 140 CURVE SMOOTH",
"276 160 OFFCURVE",
"239 171 OFFCURVE",
"198 162 CURVE SMOOTH",
"163 155 OFFCURVE",
"154 138 OFFCURVE",
"139 111 CURVE"
);
}
);
};
layerId = "34A4CA4C-C6E5-4C7E-9ECD-8F87FE1EC3A4";
paths = (
{
closed = 1;
nodes = (
"587 -186 OFFCURVE",
"597 -177 OFFCURVE",
"597 -163 CURVE SMOOTH",
"597 -160 OFFCURVE",
"597 -156 OFFCURVE",
"596 -153 CURVE SMOOTH",
"578 -90 OFFCURVE",
"531 -24 OFFCURVE",
"476 31 CURVE",
"616 100 OFFCURVE",
"740 224 OFFCURVE",
"740 381 CURVE SMOOTH",
"740 468 OFFCURVE",
"676 511 OFFCURVE",
"592 511 CURVE SMOOTH",
"585 511 OFFCURVE",
"578 511 OFFCURVE",
"570 510 CURVE",
"573 512 OFFCURVE",
"576 514 OFFCURVE",
"579 517 CURVE",
"586 569 OFFCURVE",
"553 576 OFFCURVE",
"525 576 CURVE SMOOTH",
"513 576 OFFCURVE",
"502 575 OFFCURVE",
"495 575 CURVE SMOOTH",
"402 575 OFFCURVE",
"195 512 OFFCURVE",
"84 317 CURVE SMOOTH",
"59 273 OFFCURVE",
"44 218 OFFCURVE",
"44 165 CURVE SMOOTH",
"44 73 OFFCURVE",
"90 -14 OFFCURVE",
"210 -28 CURVE SMOOTH",
"221 -29 OFFCURVE",
"232 -30 OFFCURVE",
"244 -30 CURVE SMOOTH",
"302 -30 OFFCURVE",
"371 -15 OFFCURVE",
"438 13 CURVE",
"495 -43 OFFCURVE",
"547 -113 OFFCURVE",
"561 -169 CURVE SMOOTH",
"564 -181 OFFCURVE",
"571 -186 OFFCURVE",
"578 -186 CURVE SMOOTH"
);
},
{
closed = 1;
nodes = (
"149 10 OFFCURVE",
"93 93 OFFCURVE",
"93 185 CURVE SMOOTH",
"93 227 OFFCURVE",
"105 272 OFFCURVE",
"128 311 CURVE SMOOTH",
"229 486 OFFCURVE",
"416 534 OFFCURVE",
"492 534 CURVE SMOOTH",
"520 534 OFFCURVE",
"538 518 OFFCURVE",
"533 518 CURVE SMOOTH",
"526 518 OFFCURVE",
"522 516 OFFCURVE",
"522 513 CURVE SMOOTH",
"522 510 OFFCURVE",
"526 507 OFFCURVE",
"531 505 CURVE",
"477 493 OFFCURVE",
"433 470 OFFCURVE",
"394 431 CURVE SMOOTH",
"387 424 OFFCURVE",
"384 416 OFFCURVE",
"384 409 CURVE SMOOTH",
"384 401 OFFCURVE",
"389 394 OFFCURVE",
"396 394 CURVE SMOOTH",
"400 394 OFFCURVE",
"405 396 OFFCURVE",
"410 401 CURVE SMOOTH",
"449 440 OFFCURVE",
"502 475 OFFCURVE",
"558 480 CURVE SMOOTH",
"566 481 OFFCURVE",
"574 481 OFFCURVE",
"582 481 CURVE SMOOTH",
"661 481 OFFCURVE",
"688 433 OFFCURVE",
"688 361 CURVE SMOOTH",
"688 234 OFFCURVE",
"571 122 OFFCURVE",
"445 61 CURVE",
"404 96 OFFCURVE",
"361 124 OFFCURVE",
"323 140 CURVE SMOOTH",
"287 155 OFFCURVE",
"257 165 OFFCURVE",
"227 165 CURVE SMOOTH",
"218 165 OFFCURVE",
"208 164 OFFCURVE",
"198 162 CURVE SMOOTH",
"163 155 OFFCURVE",
"154 138 OFFCURVE",
"139 111 CURVE",
"138 111 LINE",
"136 107 OFFCURVE",
"135 103 OFFCURVE",
"135 100 CURVE SMOOTH",
"135 85 OFFCURVE",
"149 74 OFFCURVE",
"162 74 CURVE SMOOTH",
"169 74 OFFCURVE",
"176 77 OFFCURVE",
"181 86 CURVE SMOOTH",
"189 101 OFFCURVE",
"186 110 OFFCURVE",
"208 115 CURVE SMOOTH",
"215 116 OFFCURVE",
"224 117 OFFCURVE",
"233 117 CURVE SMOOTH",
"255 117 OFFCURVE",
"284 113 OFFCURVE",
"316 100 CURVE SMOOTH",
"343 89 OFFCURVE",
"374 69 OFFCURVE",
"405 43 CURVE",
"354 22 OFFCURVE",
"302 10 OFFCURVE",
"259 10 CURVE SMOOTH"
);
}
);
width = 759;
}
);
note = Q;
unicode = 0051;
},
{
glyphname = R;
lastChange = "2022-01-12 01:24:45 +0000";
layers = (
{
background = {
paths = (
{
closed = 1;
nodes = (
"266 222 LINE",
"278 222 OFFCURVE",
"315 237 OFFCURVE",
"334 241 CURVE",
"455 300 OFFCURVE",
"568 353 OFFCURVE",
"560 462 CURVE SMOOTH",
"553 564 OFFCURVE",
"439 579 OFFCURVE",
"350 564 CURVE SMOOTH",
"336 562 OFFCURVE",
"323 558 OFFCURVE",
"311 553 CURVE",
"307 575 OFFCURVE",
"261 571 OFFCURVE",
"243 537 CURVE SMOOTH",
"186 428 OFFCURVE",
"81 236 OFFCURVE",
"38 -11 CURVE SMOOTH",
"28 -69 OFFCURVE",
"78 -75 OFFCURVE",
"96 -63 CURVE SMOOTH",
"125 -42 OFFCURVE",
"90 -27 OFFCURVE",
"90 -16 CURVE SMOOTH",
"89 5 OFFCURVE",
"104 103 OFFCURVE",
"117 140 CURVE SMOOTH",
"149 230 OFFCURVE",
"227 403 OFFCURVE",
"275 486 CURVE",
"278 486 OFFCURVE",
"281 487 OFFCURVE",
"284 488 CURVE SMOOTH",
"321 501 OFFCURVE",
"321 528 OFFCURVE",
"343 528 CURVE",
"427 542 OFFCURVE",
"511 507 OFFCURVE",
"511 459 CURVE",
"520 398 OFFCURVE",
"437 335 OFFCURVE",
"313 278 CURVE SMOOTH",
"281 264 OFFCURVE",
"203 272 OFFCURVE",
"194 224 CURVE SMOOTH",
"186 182 OFFCURVE",
"230 191 OFFCURVE",
"239 170 CURVE",
"270 122 OFFCURVE",
"389 21 OFFCURVE",
"444 9 CURVE SMOOTH",
"475 2 OFFCURVE",
"512 27 OFFCURVE",
"441 50 CURVE SMOOTH",
"406 62 OFFCURVE",
"275 193 OFFCURVE",
"267 221 CURVE"
);
}
);
};
layerId = "34A4CA4C-C6E5-4C7E-9ECD-8F87FE1EC3A4";
paths = (
{
closed = 1;
nodes = (
"84 -68 OFFCURVE",
"91 -66 OFFCURVE",
"96 -63 CURVE SMOOTH",
"104 -57 OFFCURVE",
"107 -51 OFFCURVE",
"107 -46 CURVE SMOOTH",
"107 -34 OFFCURVE",
"90 -24 OFFCURVE",
"90 -16 CURVE SMOOTH",
"89 5 OFFCURVE",
"104 103 OFFCURVE",
"117 140 CURVE SMOOTH",
"149 230 OFFCURVE",
"227 403 OFFCURVE",
"275 486 CURVE",
"278 486 OFFCURVE",
"281 487 OFFCURVE",
"284 488 CURVE SMOOTH",
"321 501 OFFCURVE",
"321 528 OFFCURVE",
"343 528 CURVE",
"356 530 OFFCURVE",
"368 531 OFFCURVE",
"381 531 CURVE SMOOTH",
"450 531 OFFCURVE",
"511 500 OFFCURVE",
"511 459 CURVE",
"520 398 OFFCURVE",
"437 335 OFFCURVE",
"313 278 CURVE SMOOTH",
"279 263 OFFCURVE",
"193 273 OFFCURVE",
"193 215 CURVE SMOOTH",
"193 183 OFFCURVE",
"231 189 OFFCURVE",
"239 170 CURVE",
"272 119 OFFCURVE",
"407 8 OFFCURVE",
"455 8 CURVE SMOOTH",
"469 8 OFFCURVE",
"482 14 OFFCURVE",
"482 22 CURVE SMOOTH",
"482 30 OFFCURVE",
"471 40 OFFCURVE",
"441 50 CURVE SMOOTH",
"406 62 OFFCURVE",
"275 193 OFFCURVE",
"267 221 CURVE",
"266 222 LINE",
"278 222 OFFCURVE",
"315 237 OFFCURVE",
"334 241 CURVE",
"451 298 OFFCURVE",
"560 349 OFFCURVE",
"560 451 CURVE SMOOTH",
"560 541 OFFCURVE",
"485 569 OFFCURVE",
"408 569 CURVE SMOOTH",
"388 569 OFFCURVE",
"369 567 OFFCURVE",
"350 564 CURVE SMOOTH",
"336 562 OFFCURVE",
"323 558 OFFCURVE",
"311 553 CURVE",
"309 562 OFFCURVE",
"301 567 OFFCURVE",
"290 567 CURVE SMOOTH",
"274 567 OFFCURVE",
"254 557 OFFCURVE",
"243 537 CURVE SMOOTH",
"186 428 OFFCURVE",
"81 236 OFFCURVE",
"38 -11 CURVE SMOOTH",
"37 -16 OFFCURVE",
"37 -21 OFFCURVE",
"37 -25 CURVE SMOOTH",
"37 -57 OFFCURVE",
"58 -68 OFFCURVE",
"77 -68 CURVE SMOOTH"
);
}
);
width = 503;
}
);
note = R;
unicode = 0052;
},
{
glyphname = S;
lastChange = "2022-01-12 01:24:45 +0000";
layers = (
{
background = {
paths = (
{
closed = 1;
nodes = (
"438 558 LINE SMOOTH",
"460 542 OFFCURVE",
"493 552 OFFCURVE",
"478 580 CURVE",
"478 581 OFFCURVE",
"475 627 OFFCURVE",
"433 629 CURVE SMOOTH",
"374 632 OFFCURVE",
"310 629 OFFCURVE",
"264 590 CURVE SMOOTH",
"227 559 OFFCURVE",
"196 510 OFFCURVE",
"220 455 CURVE SMOOTH",
"271 339 OFFCURVE",
"389 319 OFFCURVE",
"379 204 CURVE SMOOTH",
"368 88 OFFCURVE",
"239 18 OFFCURVE",
"171 -15 CURVE SMOOTH",
"109 -44 OFFCURVE",
"51 -43 OFFCURVE",
"43 -22 CURVE SMOOTH",
"25 23 OFFCURVE",
"-6 15 OFFCURVE",
"-6 -27 CURVE",
"8 -93 OFFCURVE",
"121 -83 OFFCURVE",
"182 -56 CURVE SMOOTH",
"256 -24 OFFCURVE",
"444 84 OFFCURVE",
"437 235 CURVE SMOOTH",
"432 347 OFFCURVE",
"306 389 OFFCURVE",
"278 474 CURVE",
"267 498 OFFCURVE",
"273 540 OFFCURVE",
"299 563 CURVE SMOOTH",
"323 584 OFFCURVE",
"387 593 OFFCURVE",
"405 583 CURVE"
);
}
);
};
layerId = "34A4CA4C-C6E5-4C7E-9ECD-8F87FE1EC3A4";
paths = (
{
closed = 1;
nodes = (
"117 -77 OFFCURVE",
"155 -68 OFFCURVE",
"182 -56 CURVE SMOOTH",
"255 -25 OFFCURVE",
"437 80 OFFCURVE",
"437 227 CURVE SMOOTH",
"437 345 OFFCURVE",
"307 387 OFFCURVE",
"278 474 CURVE SMOOTH",
"275 482 OFFCURVE",
"273 491 OFFCURVE",
"273 501 CURVE SMOOTH",
"273 523 OFFCURVE",
"281 547 OFFCURVE",
"299 563 CURVE SMOOTH",
"316 578 OFFCURVE",
"355 587 OFFCURVE",
"381 587 CURVE SMOOTH",
"391 587 OFFCURVE",
"400 586 OFFCURVE",
"405 583 CURVE SMOOTH",
"438 558 LINE SMOOTH",
"445 553 OFFCURVE",
"454 550 OFFCURVE",
"461 550 CURVE SMOOTH",
"473 550 OFFCURVE",
"482 556 OFFCURVE",
"482 567 CURVE SMOOTH",
"482 571 OFFCURVE",
"481 575 OFFCURVE",
"478 580 CURVE",
"478 581 OFFCURVE",
"475 627 OFFCURVE",
"433 629 CURVE SMOOTH",
"423 630 OFFCURVE",
"412 630 OFFCURVE",
"402 630 CURVE SMOOTH",
"352 630 OFFCURVE",
"302 622 OFFCURVE",
"264 590 CURVE SMOOTH",
"236 567 OFFCURVE",
"212 533 OFFCURVE",
"212 494 CURVE SMOOTH",
"212 482 OFFCURVE",
"214 468 OFFCURVE",
"220 455 CURVE SMOOTH",
"269 344 OFFCURVE",
"380 321 OFFCURVE",
"380 217 CURVE SMOOTH",
"380 93 OFFCURVE",
"242 19 OFFCURVE",
"171 -15 CURVE SMOOTH",
"138 -30 OFFCURVE",
"106 -37 OFFCURVE",
"83 -37 CURVE SMOOTH",
"62 -37 OFFCURVE",
"47 -32 OFFCURVE",
"43 -22 CURVE SMOOTH",
"35 -1 OFFCURVE",
"24 8 OFFCURVE",
"14 8 CURVE SMOOTH",
"3 8 OFFCURVE",
"-6 -4 OFFCURVE",
"-6 -27 CURVE",
"2 -63 OFFCURVE",
"40 -77 OFFCURVE",
"82 -77 CURVE SMOOTH"
);
}
);
width = 483;
}
);
note = S;
unicode = 0053;
},
{
glyphname = Germandbls;
lastChange = "2022-01-12 01:24:05 +0000";
layers = (
{
background = {
paths = (
{
closed = 1;
nodes = (
"380 374 CURVE SMOOTH",
"397 374 OFFCURVE",
"414 371 OFFCURVE",
"430 363 CURVE",
"463 363 OFFCURVE",
"486 386 OFFCURVE",
"530 454 CURVE SMOOTH",
"547 481 OFFCURVE",
"555 506 OFFCURVE",
"555 528 CURVE SMOOTH",
"555 585 OFFCURVE",
"501 624 OFFCURVE",
"409 624 CURVE SMOOTH",
"276 624 OFFCURVE",
"222 563 OFFCURVE",
"155 391 CURVE SMOOTH",
"82 195 OFFCURVE",
"105 255 OFFCURVE",
"33 58 CURVE SMOOTH",
"11 -2 OFFCURVE",
"-9 -54 OFFCURVE",
"-23 -81 CURVE SMOOTH",
"-31 -96 OFFCURVE",
"-34 -108 OFFCURVE",
"-34 -117 CURVE SMOOTH",
"-34 -133 OFFCURVE",
"-24 -140 OFFCURVE",
"-12 -140 CURVE SMOOTH",
"29 -140 OFFCURVE",
"13 -110 OFFCURVE",
"23 -93 CURVE SMOOTH",
"38 -65 OFFCURVE",
"54 -26 OFFCURVE",
"72 21 CURVE SMOOTH",
"132 183 OFFCURVE",
"201 425 OFFCURVE",
"251 498 CURVE SMOOTH",
"279 541 OFFCURVE",
"319 580 OFFCURVE",
"412 580 CURVE SMOOTH",
"464 580 OFFCURVE",
"506 558 OFFCURVE",
"506 520 CURVE SMOOTH",
"506 507 OFFCURVE",
"501 493 OFFCURVE",
"491 477 CURVE SMOOTH",
"477 456 OFFCURVE",
"458 432 OFFCURVE",
"445 410 CURVE",
"430 416 OFFCURVE",
"412 418 OFFCURVE",
"393 418 CURVE SMOOTH",
"369 418 OFFCURVE",
"345 414 OFFCURVE",
"324 408 CURVE SMOOTH",
"291 398 OFFCURVE",
"229 369 OFFCURVE",
"229 321 CURVE SMOOTH",
"229 250 OFFCURVE",
"325 227 OFFCURVE",
"371 187 CURVE SMOOTH",
"398 163 OFFCURVE",
"410 140 OFFCURVE",
"410 120 CURVE SMOOTH",
"410 67 OFFCURVE",
"333 30 OFFCURVE",
"269 30 CURVE SMOOTH",
"258 30 OFFCURVE",
"248 31 OFFCURVE",
"239 33 CURVE SMOOTH",
"212 39 OFFCURVE",
"185 40 OFFCURVE",
"160 55 CURVE SMOOTH",
"155 58 OFFCURVE",
"149 60 OFFCURVE",
"144 60 CURVE SMOOTH",
"130 60 OFFCURVE",
"119 48 OFFCURVE",
"119 37 CURVE SMOOTH",
"119 34 OFFCURVE",
"121 30 OFFCURVE",
"124 27 CURVE SMOOTH",
"156 -4 OFFCURVE",
"194 -18 OFFCURVE",
"234 -18 CURVE SMOOTH",
"361 -18 OFFCURVE",
"469 56 OFFCURVE",
"469 134 CURVE SMOOTH",
"469 168 OFFCURVE",
"448 203 OFFCURVE",
"399 232 CURVE SMOOTH",
"351 261 OFFCURVE",
"278 296 OFFCURVE",
"285 322 CURVE SMOOTH",
"292 348 OFFCURVE",
"334 374 OFFCURVE"
);
}
);
};
layerId = "34A4CA4C-C6E5-4C7E-9ECD-8F87FE1EC3A4";
paths = (
{
closed = 1;
nodes = (
"29 -140 OFFCURVE",
"13 -110 OFFCURVE",
"23 -93 CURVE SMOOTH",
"38 -65 OFFCURVE",
"54 -26 OFFCURVE",
"72 21 CURVE SMOOTH",
"132 183 OFFCURVE",
"201 425 OFFCURVE",
"251 498 CURVE SMOOTH",
"279 541 OFFCURVE",
"319 580 OFFCURVE",
"412 580 CURVE SMOOTH",
"464 580 OFFCURVE",
"506 558 OFFCURVE",
"506 520 CURVE SMOOTH",
"506 507 OFFCURVE",
"501 493 OFFCURVE",
"491 477 CURVE SMOOTH",
"477 456 OFFCURVE",
"458 432 OFFCURVE",
"445 410 CURVE",
"430 416 OFFCURVE",
"412 418 OFFCURVE",
"393 418 CURVE SMOOTH",
"369 418 OFFCURVE",
"345 414 OFFCURVE",
"324 408 CURVE SMOOTH",
"291 398 OFFCURVE",
"229 369 OFFCURVE",
"229 321 CURVE SMOOTH",
"229 250 OFFCURVE",
"325 227 OFFCURVE",
"371 187 CURVE SMOOTH",
"398 163 OFFCURVE",
"410 140 OFFCURVE",
"410 120 CURVE SMOOTH",
"410 67 OFFCURVE",
"333 30 OFFCURVE",
"269 30 CURVE SMOOTH",
"258 30 OFFCURVE",
"248 31 OFFCURVE",
"239 33 CURVE SMOOTH",
"212 39 OFFCURVE",
"185 40 OFFCURVE",
"160 55 CURVE SMOOTH",
"155 58 OFFCURVE",
"149 60 OFFCURVE",
"144 60 CURVE SMOOTH",
"130 60 OFFCURVE",
"119 48 OFFCURVE",
"119 37 CURVE SMOOTH",
"119 34 OFFCURVE",
"121 30 OFFCURVE",
"124 27 CURVE SMOOTH",
"156 -4 OFFCURVE",
"194 -18 OFFCURVE",
"234 -18 CURVE SMOOTH",
"361 -18 OFFCURVE",
"469 56 OFFCURVE",
"469 134 CURVE SMOOTH",
"469 168 OFFCURVE",
"448 203 OFFCURVE",
"399 232 CURVE SMOOTH",
"351 261 OFFCURVE",
"278 296 OFFCURVE",
"285 322 CURVE SMOOTH",
"292 348 OFFCURVE",
"334 374 OFFCURVE",
"380 374 CURVE SMOOTH",
"397 374 OFFCURVE",
"414 371 OFFCURVE",
"430 363 CURVE",
"463 363 OFFCURVE",
"486 386 OFFCURVE",
"530 454 CURVE SMOOTH",
"547 481 OFFCURVE",
"555 506 OFFCURVE",
"555 528 CURVE SMOOTH",
"555 585 OFFCURVE",
"501 624 OFFCURVE",
"409 624 CURVE SMOOTH",
"276 624 OFFCURVE",
"222 563 OFFCURVE",
"155 391 CURVE SMOOTH",
"82 195 OFFCURVE",
"105 255 OFFCURVE",
"33 58 CURVE SMOOTH",
"11 -2 OFFCURVE",
"-9 -54 OFFCURVE",
"-23 -81 CURVE SMOOTH",
"-31 -96 OFFCURVE",
"-34 -108 OFFCURVE",
"-34 -117 CURVE SMOOTH",
"-34 -133 OFFCURVE",
"-24 -140 OFFCURVE",
"-12 -140 CURVE SMOOTH"
);
}
);
width = 600;
}
);
unicode = 1E9E;
},
{
glyphname = Schwa;
lastChange = "2022-01-12 01:24:45 +0000";
layers = (
{
background = {
paths = (
{
closed = 1;
nodes = (
"183 9 OFFCURVE",
"174 9 CURVE SMOOTH",
"120 9 OFFCURVE",
"93 43 OFFCURVE",
"93 88 CURVE SMOOTH",
"93 154 OFFCURVE",
"152 242 OFFCURVE",
"263 264 CURVE SMOOTH",
"319 276 OFFCURVE",
"392 283 OFFCURVE",
"460 283 CURVE SMOOTH",
"503 283 OFFCURVE",
"544 280 OFFCURVE",
"576 273 CURVE SMOOTH",
"582 272 OFFCURVE",
"586 272 OFFCURVE",
"590 272 CURVE SMOOTH",
"600 272 OFFCURVE",
"603 276 OFFCURVE",
"603 280 CURVE SMOOTH",
"603 283 OFFCURVE",
"601 286 OFFCURVE",
"601 287 CURVE SMOOTH",
"599 290 OFFCURVE",
"608 303 OFFCURVE",
"562 313 CURVE SMOOTH",
"522 321 OFFCURVE",
"480 325 OFFCURVE",
"438 325 CURVE SMOOTH",
"368 325 OFFCURVE",
"300 315 OFFCURVE",
"251 305 CURVE SMOOTH",
"112 276 OFFCURVE",
"38 166 OFFCURVE",
"38 78 CURVE SMOOTH",
"38 12 OFFCURVE",
"78 -41 OFFCURVE",
"162 -41 CURVE SMOOTH",
"177 -41 OFFCURVE",
"194 -39 OFFCURVE",
"213 -35 CURVE SMOOTH",
"335 -10 OFFCURVE",
"479 91 OFFCURVE",
"565 202 CURVE SMOOTH",
"612 263 OFFCURVE",
"661 347 OFFCURVE",
"661 430 CURVE SMOOTH",
"661 467 OFFCURVE",
"651 503 OFFCURVE",
"628 537 CURVE SMOOTH",
"595 587 OFFCURVE",
"521 619 OFFCURVE",
"437 619 CURVE SMOOTH",
"415 619 OFFCURVE",
"392 617 OFFCURVE",
"369 612 CURVE SMOOTH",
"236 586 OFFCURVE",
"201 520 OFFCURVE",
"187 511 CURVE SMOOTH",
"174 503 OFFCURVE",
"168 486 OFFCURVE",
"168 473 CURVE SMOOTH",
"168 463 OFFCURVE",
"172 455 OFFCURVE",
"180 455 CURVE SMOOTH",
"183 455 OFFCURVE",
"186 456 OFFCURVE",
"190 458 CURVE",
"223 485 OFFCURVE",
"256 536 OFFCURVE",
"380 565 CURVE SMOOTH",
"398 569 OFFCURVE",
"416 571 OFFCURVE",
"433 571 CURVE SMOOTH",
"505 571 OFFCURVE",
"568 540 OFFCURVE",
"589 510 CURVE SMOOTH",
"604 488 OFFCURVE",
"611 462 OFFCURVE",
"611 434 CURVE SMOOTH",
"611 367 OFFCURVE",
"572 290 OFFCURVE",
"527 231 CURVE SMOOTH",
"450 130 OFFCURVE",
"308 33 OFFCURVE",
"204 12 CURVE SMOOTH",
"193 10 OFFCURVE"
);
}
);
};
layerId = "34A4CA4C-C6E5-4C7E-9ECD-8F87FE1EC3A4";
paths = (
{
closed = 1;
nodes = (
"177 -41 OFFCURVE",
"194 -39 OFFCURVE",
"213 -35 CURVE SMOOTH",
"335 -10 OFFCURVE",
"479 91 OFFCURVE",
"565 202 CURVE SMOOTH",
"612 263 OFFCURVE",
"661 347 OFFCURVE",
"661 430 CURVE SMOOTH",
"661 467 OFFCURVE",
"651 503 OFFCURVE",
"628 537 CURVE SMOOTH",
"595 587 OFFCURVE",
"521 619 OFFCURVE",
"437 619 CURVE SMOOTH",
"415 619 OFFCURVE",
"392 617 OFFCURVE",
"369 612 CURVE SMOOTH",
"236 586 OFFCURVE",
"201 520 OFFCURVE",
"187 511 CURVE SMOOTH",
"174 503 OFFCURVE",
"168 486 OFFCURVE",
"168 473 CURVE SMOOTH",
"168 463 OFFCURVE",
"172 455 OFFCURVE",
"180 455 CURVE SMOOTH",
"183 455 OFFCURVE",
"186 456 OFFCURVE",
"190 458 CURVE",
"223 485 OFFCURVE",
"256 536 OFFCURVE",
"380 565 CURVE SMOOTH",
"398 569 OFFCURVE",
"416 571 OFFCURVE",
"433 571 CURVE SMOOTH",
"505 571 OFFCURVE",
"568 540 OFFCURVE",
"589 510 CURVE SMOOTH",
"604 488 OFFCURVE",
"611 462 OFFCURVE",
"611 434 CURVE SMOOTH",
"611 367 OFFCURVE",
"572 290 OFFCURVE",
"527 231 CURVE SMOOTH",
"450 130 OFFCURVE",
"308 33 OFFCURVE",
"204 12 CURVE SMOOTH",
"193 10 OFFCURVE",
"183 9 OFFCURVE",
"174 9 CURVE SMOOTH",
"120 9 OFFCURVE",
"93 43 OFFCURVE",
"93 88 CURVE SMOOTH",
"93 154 OFFCURVE",
"152 242 OFFCURVE",
"263 264 CURVE SMOOTH",
"319 276 OFFCURVE",
"392 283 OFFCURVE",
"460 283 CURVE SMOOTH",
"503 283 OFFCURVE",
"544 280 OFFCURVE",
"576 273 CURVE SMOOTH",
"582 272 OFFCURVE",
"586 272 OFFCURVE",
"590 272 CURVE SMOOTH",
"600 272 OFFCURVE",
"603 276 OFFCURVE",
"603 280 CURVE SMOOTH",
"603 283 OFFCURVE",
"601 286 OFFCURVE",
"601 287 CURVE",
"599 290 OFFCURVE",
"608 303 OFFCURVE",
"562 313 CURVE SMOOTH",
"522 321 OFFCURVE",
"480 325 OFFCURVE",
"438 325 CURVE SMOOTH",
"368 325 OFFCURVE",
"300 315 OFFCURVE",
"251 305 CURVE SMOOTH",
"112 276 OFFCURVE",
"38 166 OFFCURVE",
"38 78 CURVE SMOOTH",
"38 12 OFFCURVE",
"78 -41 OFFCURVE",
"162 -41 CURVE SMOOTH"
);
}
);
width = 625;
}
);
unicode = 018F;
},
{
glyphname = T;
lastChange = "2022-01-12 01:24:45 +0000";
layers = (
{
background = {
paths = (
{
closed = 1;
nodes = (
"144 475 OFFCURVE",
"307 532 OFFCURVE",
"402 531 CURVE SMOOTH",
"455 531 OFFCURVE",
"499 530 OFFCURVE",
"530 508 CURVE SMOOTH",
"541 500 OFFCURVE",
"545 495 OFFCURVE",
"544 490 CURVE SMOOTH",
"544 489 OFFCURVE",
"519 434 OFFCURVE",
"553 437 CURVE SMOOTH",
"556 437 OFFCURVE",
"571 440 OFFCURVE",
"579 452 CURVE",
"589 463 OFFCURVE",
"589 478 OFFCURVE",
"591 489 CURVE SMOOTH",
"593 504 OFFCURVE",
"594 519 OFFCURVE",
"586 530 CURVE SMOOTH",
"578 542 OFFCURVE",
"559 547 OFFCURVE",
"559 547 CURVE",
"524 569 OFFCURVE",
"479 567 OFFCURVE",
"427 567 CURVE SMOOTH",
"369 568 OFFCURVE",
"284 559 OFFCURVE",
"220 539 CURVE SMOOTH",
"153 518 OFFCURVE",
"112 485 OFFCURVE",
"49 454 CURVE SMOOTH",
"28 444 OFFCURVE",
"42 406 OFFCURVE",
"53 414 CURVE SMOOTH"
);
},
{
closed = 1;
nodes = (
"380 522 OFFCURVE",
"343 532 OFFCURVE",
"328 504 CURVE SMOOTH",
"272 395 OFFCURVE",
"172 129 OFFCURVE",
"162 24 CURVE SMOOTH",
"157 -25 OFFCURVE",
"204 -37 OFFCURVE",
"222 -25 CURVE SMOOTH",
"251 -4 OFFCURVE",
"205 17 OFFCURVE",
"206 37 CURVE SMOOTH",
"211 105 OFFCURVE",
"243 216 OFFCURVE",
"308 354 CURVE SMOOTH",
"322 385 OFFCURVE",
"344 406 OFFCURVE",
"357 428 CURVE SMOOTH",
"366 442 OFFCURVE",
"374 477 OFFCURVE",
"376 490 CURVE SMOOTH"
);
}
);
};
layerId = "34A4CA4C-C6E5-4C7E-9ECD-8F87FE1EC3A4";
paths = (
{
closed = 1;
nodes = (
"212 -29 OFFCURVE",
"218 -28 OFFCURVE",
"222 -25 CURVE SMOOTH",
"229 -20 OFFCURVE",
"232 -15 OFFCURVE",
"232 -10 CURVE SMOOTH",
"232 6 OFFCURVE",
"205 22 OFFCURVE",
"206 37 CURVE SMOOTH",
"211 105 OFFCURVE",
"243 216 OFFCURVE",
"308 354 CURVE SMOOTH",
"322 385 OFFCURVE",
"344 406 OFFCURVE",
"357 428 CURVE SMOOTH",
"366 442 OFFCURVE",
"374 477 OFFCURVE",
"376 490 CURVE SMOOTH",
"378 509 OFFCURVE",
"366 520 OFFCURVE",
"353 520 CURVE SMOOTH",
"344 520 OFFCURVE",
"334 515 OFFCURVE",
"328 504 CURVE SMOOTH",
"272 395 OFFCURVE",
"172 129 OFFCURVE",
"162 24 CURVE SMOOTH",
"158 -13 OFFCURVE",
"185 -29 OFFCURVE",
"206 -29 CURVE SMOOTH"
);
},
{
closed = 1;
nodes = (
"143 474 OFFCURVE",
"304 531 OFFCURVE",
"400 531 CURVE SMOOTH",
"453 531 OFFCURVE",
"498 530 OFFCURVE",
"530 508 CURVE SMOOTH",
"540 501 OFFCURVE",
"544 496 OFFCURVE",
"544 491 CURVE SMOOTH",
"544 490 LINE SMOOTH",
"544 489 OFFCURVE",
"535 470 OFFCURVE",
"535 454 CURVE SMOOTH",
"535 444 OFFCURVE",
"539 436 OFFCURVE",
"553 437 CURVE SMOOTH",
"556 437 OFFCURVE",
"571 440 OFFCURVE",
"579 452 CURVE",
"589 463 OFFCURVE",
"589 478 OFFCURVE",
"591 489 CURVE SMOOTH",
"592 495 OFFCURVE",
"592 501 OFFCURVE",
"592 506 CURVE SMOOTH",
"592 515 OFFCURVE",
"591 523 OFFCURVE",
"586 530 CURVE SMOOTH",
"578 542 OFFCURVE",
"559 547 OFFCURVE",
"559 547 CURVE",
"530 565 OFFCURVE",
"493 567 OFFCURVE",
"452 567 CURVE SMOOTH",
"418 567 LINE SMOOTH",
"361 567 OFFCURVE",
"281 558 OFFCURVE",
"220 539 CURVE SMOOTH",
"153 518 OFFCURVE",
"112 485 OFFCURVE",
"49 454 CURVE SMOOTH",
"41 450 OFFCURVE",
"38 442 OFFCURVE",
"38 435 CURVE SMOOTH",
"38 422 OFFCURVE",
"46 409 OFFCURVE",
"53 414 CURVE SMOOTH"
);
}
);
width = 488;
}
);
note = T;
unicode = 0054;
},
{
glyphname = U;
lastChange = "2022-01-12 01:24:45 +0000";
layers = (
{
background = {
paths = (
{
closed = 1;
nodes = (
"245 478 LINE",
"273 494 OFFCURVE",
"268 568 OFFCURVE",
"197 526 CURVE SMOOTH",
"130 487 OFFCURVE",
"155 475 OFFCURVE",
"129 440 CURVE SMOOTH",
"100 401 OFFCURVE",
"71 351 OFFCURVE",
"51 296 CURVE SMOOTH",
"14 196 OFFCURVE",
"-21 58 OFFCURVE",
"87 -5 CURVE SMOOTH",
"237 -93 OFFCURVE",
"388 37 OFFCURVE",
"499 172 CURVE SMOOTH",
"611 310 OFFCURVE",
"663 405 OFFCURVE",
"736 547 CURVE SMOOTH",
"765 605 OFFCURVE",
"714 577 OFFCURVE",
"697 551 CURVE SMOOTH",
"606 411 OFFCURVE",
"590 360 OFFCURVE",
"462 205 CURVE SMOOTH",
"349 69 OFFCURVE",
"211 -34 OFFCURVE",
"107 32 CURVE",
"42 65 OFFCURVE",
"59 180 OFFCURVE",
"97 279 CURVE SMOOTH",
"120 338 OFFCURVE",
"155 395 OFFCURVE",
"186 432 CURVE SMOOTH",
"204 453 OFFCURVE",
"235 471 OFFCURVE",
"246 477 CURVE"
);
}
);
};
layerId = "34A4CA4C-C6E5-4C7E-9ECD-8F87FE1EC3A4";
paths = (
{
closed = 1;
nodes = (
"303 -34 OFFCURVE",
"413 68 OFFCURVE",
"499 172 CURVE SMOOTH",
"611 310 OFFCURVE",
"663 405 OFFCURVE",
"736 547 CURVE SMOOTH",
"742 559 OFFCURVE",
"745 568 OFFCURVE",
"745 573 CURVE SMOOTH",
"745 579 OFFCURVE",
"742 581 OFFCURVE",
"738 581 CURVE SMOOTH",
"727 581 OFFCURVE",
"707 566 OFFCURVE",
"697 551 CURVE SMOOTH",
"606 411 OFFCURVE",
"590 360 OFFCURVE",
"462 205 CURVE SMOOTH",
"373 98 OFFCURVE",
"269 12 OFFCURVE",
"178 12 CURVE SMOOTH",
"153 12 OFFCURVE",
"129 18 OFFCURVE",
"107 32 CURVE",
"76 48 OFFCURVE",
"63 83 OFFCURVE",
"63 126 CURVE SMOOTH",
"63 172 OFFCURVE",
"77 228 OFFCURVE",
"97 279 CURVE SMOOTH",
"120 338 OFFCURVE",
"155 395 OFFCURVE",
"186 432 CURVE SMOOTH",
"204 453 OFFCURVE",
"235 471 OFFCURVE",
"246 477 CURVE",
"245 478 LINE",
"255 484 OFFCURVE",
"261 497 OFFCURVE",
"261 510 CURVE SMOOTH",
"261 525 OFFCURVE",
"253 539 OFFCURVE",
"234 539 CURVE SMOOTH",
"225 539 OFFCURVE",
"212 535 OFFCURVE",
"197 526 CURVE SMOOTH",
"130 487 OFFCURVE",
"155 475 OFFCURVE",
"129 440 CURVE SMOOTH",
"100 401 OFFCURVE",
"71 351 OFFCURVE",
"51 296 CURVE SMOOTH",
"33 246 OFFCURVE",
"15 187 OFFCURVE",
"15 132 CURVE SMOOTH",
"15 77 OFFCURVE",
"33 27 OFFCURVE",
"87 -5 CURVE SMOOTH",
"121 -25 OFFCURVE",
"155 -34 OFFCURVE",
"189 -34 CURVE SMOOTH"
);
}
);
width = 632;
}
);
note = U;
unicode = 0055;
},
{
glyphname = V;
lastChange = "2022-01-12 01:24:45 +0000";
layers = (
{
background = {
paths = (
{
closed = 1;
nodes = (
"585 512 LINE",
"604 541 OFFCURVE",
"579 581 OFFCURVE",
"561 553 CURVE SMOOTH",
"541 522 OFFCURVE",
"510 476 OFFCURVE",
"488 445 CURVE SMOOTH",
"466 413 OFFCURVE",
"452 393 OFFCURVE",
"429 359 CURVE SMOOTH",
"392 305 OFFCURVE",
"369 289 OFFCURVE",
"332 231 CURVE SMOOTH",
"298 179 OFFCURVE",
"284 146 OFFCURVE",
"251 96 CURVE",
"252 96 LINE",
"223 52 OFFCURVE",
"209 17 OFFCURVE",
"185 1 CURVE SMOOTH",
"180 -3 OFFCURVE",
"173 -3 OFFCURVE",
"170 -3 CURVE",
"166 6 OFFCURVE",
"167 33 OFFCURVE",
"171 66 CURVE",
"170 132 OFFCURVE",
"166 160 OFFCURVE",
"168 224 CURVE SMOOTH",
"170 285 OFFCURVE",
"173 366 OFFCURVE",
"188 471 CURVE SMOOTH",
"193 503 OFFCURVE",
"194 514 OFFCURVE",
"195 517 CURVE",
"194 516 OFFCURVE",
"194 515 OFFCURVE",
"194 514 CURVE SMOOTH",
"194 512 LINE",
"194 512 OFFCURVE",
"195 521 OFFCURVE",
"194 517 CURVE",
"194 546 OFFCURVE",
"150 549 OFFCURVE",
"145 518 CURVE SMOOTH",
"129 430 OFFCURVE",
"143 470 OFFCURVE",
"135 391 CURVE SMOOTH",
"128 328 OFFCURVE",
"123 292 OFFCURVE",
"121 230 CURVE SMOOTH",
"119 163 OFFCURVE",
"122 125 OFFCURVE",
"123 61 CURVE SMOOTH",
"123 33 OFFCURVE",
"114 3 OFFCURVE",
"126 -29 CURVE",
"148 -68 OFFCURVE",
"188 -67 OFFCURVE",
"213 -37 CURVE",
"225 -8 OFFCURVE",
"267 35 OFFCURVE",
"291 71 CURVE SMOOTH",
"292 72 LINE SMOOTH",
"327 125 OFFCURVE",
"341 158 OFFCURVE",
"373 208 CURVE SMOOTH",
"408 263 OFFCURVE",
"433 293 OFFCURVE",
"471 348 CURVE SMOOTH",
"493 381 OFFCURVE",
"507 400 OFFCURVE",
"531 434 CURVE SMOOTH",
"551 463 OFFCURVE",
"566 482 OFFCURVE",
"586 512 CURVE"
);
}
);
};
layerId = "34A4CA4C-C6E5-4C7E-9ECD-8F87FE1EC3A4";
paths = (
{
closed = 1;
nodes = (
"186 -59 OFFCURVE",
"201 -51 OFFCURVE",
"213 -37 CURVE",
"225 -8 OFFCURVE",
"267 35 OFFCURVE",
"291 71 CURVE SMOOTH",
"292 72 LINE SMOOTH",
"327 125 OFFCURVE",
"341 158 OFFCURVE",
"373 208 CURVE SMOOTH",
"408 263 OFFCURVE",
"433 293 OFFCURVE",
"471 348 CURVE SMOOTH",
"493 381 OFFCURVE",
"507 400 OFFCURVE",
"531 434 CURVE SMOOTH",
"551 463 OFFCURVE",
"566 482 OFFCURVE",
"586 512 CURVE",
"585 512 LINE",
"590 519 OFFCURVE",
"591 527 OFFCURVE",
"591 535 CURVE SMOOTH",
"591 550 OFFCURVE",
"583 563 OFFCURVE",
"574 563 CURVE SMOOTH",
"570 563 OFFCURVE",
"565 560 OFFCURVE",
"561 553 CURVE SMOOTH",
"541 522 OFFCURVE",
"510 476 OFFCURVE",
"488 445 CURVE SMOOTH",
"429 359 LINE SMOOTH",
"392 305 OFFCURVE",
"369 289 OFFCURVE",
"332 231 CURVE SMOOTH",
"298 179 OFFCURVE",
"284 146 OFFCURVE",
"251 96 CURVE",
"252 96 LINE",
"223 52 OFFCURVE",
"209 17 OFFCURVE",
"185 1 CURVE SMOOTH",
"180 -3 OFFCURVE",
"173 -3 OFFCURVE",
"170 -3 CURVE",
"168 1 OFFCURVE",
"167 8 OFFCURVE",
"167 18 CURVE SMOOTH",
"167 31 OFFCURVE",
"169 47 OFFCURVE",
"171 66 CURVE",
"170 119 OFFCURVE",
"167 148 OFFCURVE",
"167 190 CURVE SMOOTH",
"167 200 OFFCURVE",
"168 212 OFFCURVE",
"168 224 CURVE SMOOTH",
"170 285 OFFCURVE",
"173 366 OFFCURVE",
"188 471 CURVE SMOOTH",
"193 503 OFFCURVE",
"194 514 OFFCURVE",
"195 517 CURVE",
"194 516 OFFCURVE",
"194 515 OFFCURVE",
"194 514 CURVE SMOOTH",
"194 512 LINE",
"194 512 OFFCURVE",
"195 521 OFFCURVE",
"194 517 CURVE",
"194 532 OFFCURVE",
"182 540 OFFCURVE",
"170 540 CURVE SMOOTH",
"159 540 OFFCURVE",
"147 533 OFFCURVE",
"145 518 CURVE SMOOTH",
"138 483 OFFCURVE",
"137 468 OFFCURVE",
"137 458 CURVE SMOOTH",
"137 450 OFFCURVE",
"138 444 OFFCURVE",
"138 433 CURVE SMOOTH",
"138 424 OFFCURVE",
"137 412 OFFCURVE",
"135 391 CURVE SMOOTH",
"128 328 OFFCURVE",
"123 292 OFFCURVE",
"121 230 CURVE SMOOTH",
"121 214 OFFCURVE",
"120 199 OFFCURVE",
"120 186 CURVE SMOOTH",
"120 143 OFFCURVE",
"122 110 OFFCURVE",
"123 61 CURVE SMOOTH",
"123 44 OFFCURVE",
"120 27 OFFCURVE",
"120 8 CURVE SMOOTH",
"120 -4 OFFCURVE",
"121 -16 OFFCURVE",
"126 -29 CURVE",
"138 -49 OFFCURVE",
"154 -59 OFFCURVE",
"171 -59 CURVE SMOOTH"
);
}
);
width = 475;
}
);
note = V;
unicode = 0056;
},
{
glyphname = W;
lastChange = "2022-01-12 01:24:45 +0000";
layers = (
{
background = {
paths = (
{
closed = 1;
nodes = (
"178 472 LINE",
"187 502 OFFCURVE",
"150 500 OFFCURVE",
"140 469 CURVE SMOOTH",
"113 382 OFFCURVE",
"89 315 OFFCURVE",
"68 193 CURVE SMOOTH",
"53 102 OFFCURVE",
"33 20 OFFCURVE",
"46 -21 CURVE SMOOTH",
"52 -42 OFFCURVE",
"79 -47 OFFCURVE",
"90 -29 CURVE SMOOTH",
"137 48 OFFCURVE",
"183 126 OFFCURVE",
"228 191 CURVE SMOOTH",
"279 265 OFFCURVE",
"371 389 OFFCURVE",
"442 453 CURVE",
"437 412 OFFCURVE",
"419 317 OFFCURVE",
"419 274 CURVE SMOOTH",
"418 197 OFFCURVE",
"413 49 OFFCURVE",
"516 38 CURVE SMOOTH",
"589 31 OFFCURVE",
"673 76 OFFCURVE",
"729 152 CURVE SMOOTH",
"859 331 OFFCURVE",
"901 547 OFFCURVE",
"883 582 CURVE SMOOTH",
"868 609 OFFCURVE",
"849 598 OFFCURVE",
"846 566 CURVE SMOOTH",
"834 438 OFFCURVE",
"796 342 OFFCURVE",
"705 196 CURVE SMOOTH",
"656 116 OFFCURVE",
"577 69 OFFCURVE",
"529 89 CURVE SMOOTH",
"445 125 OFFCURVE",
"458 303 OFFCURVE",
"479 397 CURVE SMOOTH",
"486 426 OFFCURVE",
"501 431 OFFCURVE",
"504 471 CURVE",
"508 493 OFFCURVE",
"466 509 OFFCURVE",
"449 495 CURVE SMOOTH",
"357 419 OFFCURVE",
"270 328 OFFCURVE",
"203 231 CURVE SMOOTH",
"170 183 OFFCURVE",
"128 121 OFFCURVE",
"89 61 CURVE",
"88 109 OFFCURVE",
"100 167 OFFCURVE",
"113 226 CURVE SMOOTH",
"132 314 OFFCURVE",
"149 379 OFFCURVE",
"177 471 CURVE"
);
}
);
};
layerId = "34A4CA4C-C6E5-4C7E-9ECD-8F87FE1EC3A4";
paths = (
{
closed = 1;
nodes = (
"78 -40 OFFCURVE",
"85 -37 OFFCURVE",
"90 -29 CURVE SMOOTH",
"137 48 OFFCURVE",
"183 126 OFFCURVE",
"228 191 CURVE SMOOTH",
"279 265 OFFCURVE",
"371 389 OFFCURVE",
"442 453 CURVE",
"437 412 OFFCURVE",
"419 317 OFFCURVE",
"419 274 CURVE SMOOTH",
"419 239 LINE SMOOTH",
"419 159 OFFCURVE",
"427 47 OFFCURVE",
"516 38 CURVE SMOOTH",
"589 31 OFFCURVE",
"673 76 OFFCURVE",
"729 152 CURVE SMOOTH",
"840 305 OFFCURVE",
"887 485 OFFCURVE",
"887 556 CURVE SMOOTH",
"887 568 OFFCURVE",
"886 577 OFFCURVE",
"883 582 CURVE SMOOTH",
"877 593 OFFCURVE",
"871 597 OFFCURVE",
"865 597 CURVE SMOOTH",
"856 597 OFFCURVE",
"848 586 OFFCURVE",
"846 566 CURVE SMOOTH",
"834 438 OFFCURVE",
"796 342 OFFCURVE",
"705 196 CURVE SMOOTH",
"664 128 OFFCURVE",
"601 84 OFFCURVE",
"553 84 CURVE SMOOTH",
"545 84 OFFCURVE",
"536 86 OFFCURVE",
"529 89 CURVE SMOOTH",
"479 110 OFFCURVE",
"463 182 OFFCURVE",
"463 257 CURVE SMOOTH",
"463 307 OFFCURVE",
"471 359 OFFCURVE",
"479 397 CURVE SMOOTH",
"486 426 OFFCURVE",
"501 431 OFFCURVE",
"504 471 CURVE",
"507 487 OFFCURVE",
"485 500 OFFCURVE",
"466 500 CURVE SMOOTH",
"460 500 OFFCURVE",
"453 499 OFFCURVE",
"449 495 CURVE SMOOTH",
"357 419 OFFCURVE",
"270 328 OFFCURVE",
"203 231 CURVE SMOOTH",
"170 183 OFFCURVE",
"128 121 OFFCURVE",
"89 61 CURVE",
"88 109 OFFCURVE",
"100 167 OFFCURVE",
"113 226 CURVE SMOOTH",
"132 314 OFFCURVE",
"149 379 OFFCURVE",
"177 471 CURVE",
"178 472 LINE",
"179 475 OFFCURVE",
"179 478 OFFCURVE",
"179 480 CURVE SMOOTH",
"179 489 OFFCURVE",
"174 493 OFFCURVE",
"167 493 CURVE SMOOTH",
"158 493 OFFCURVE",
"145 485 OFFCURVE",
"140 469 CURVE SMOOTH",
"113 382 OFFCURVE",
"89 315 OFFCURVE",
"68 193 CURVE SMOOTH",
"56 123 OFFCURVE",
"42 58 OFFCURVE",
"42 13 CURVE SMOOTH",
"42 0 OFFCURVE",
"43 -12 OFFCURVE",
"46 -21 CURVE SMOOTH",
"49 -33 OFFCURVE",
"60 -40 OFFCURVE",
"71 -40 CURVE SMOOTH"
);
}
);
width = 845;
}
);
note = W;
unicode = 0057;
},
{
glyphname = X;
lastChange = "2022-01-12 01:24:45 +0000";
layers = (
{
background = {
paths = (
{
closed = 1;
nodes = (
"225 307 LINE",
"188 368 OFFCURVE",
"155 431 OFFCURVE",
"127 500 CURVE SMOOTH",
"116 528 OFFCURVE",
"70 510 OFFCURVE",
"82 481 CURVE SMOOTH",
"112 406 OFFCURVE",
"148 338 OFFCURVE",
"188 272 CURVE",
"78 158 OFFCURVE",
"27 73 OFFCURVE",
"-81 -49 CURVE SMOOTH",
"-102 -73 OFFCURVE",
"-74 -99 OFFCURVE",
"-53 -75 CURVE SMOOTH",
"54 46 OFFCURVE",
"113 123 OFFCURVE",
"216 229 CURVE",
"276 139 OFFCURVE",
"346 54 OFFCURVE",
"430 -37 CURVE SMOOTH",
"452 -60 OFFCURVE",
"487 -26 OFFCURVE",
"466 -3 CURVE SMOOTH",
"380 90 OFFCURVE",
"310 176 OFFCURVE",
"252 265 CURVE",
"366 375 OFFCURVE",
"470 437 OFFCURVE",
"568 546 CURVE SMOOTH",
"590 570 OFFCURVE",
"541 615 OFFCURVE",
"519 591 CURVE SMOOTH",
"505 575 OFFCURVE",
"498 564 OFFCURVE",
"484 550 CURVE SMOOTH",
"476 543 OFFCURVE",
"473 520 OFFCURVE",
"465 512 CURVE SMOOTH",
"392 446 OFFCURVE",
"312 391 OFFCURVE",
"224 307 CURVE"
);
}
);
};
layerId = "34A4CA4C-C6E5-4C7E-9ECD-8F87FE1EC3A4";
paths = (
{
closed = 1;
nodes = (
"-65 -85 OFFCURVE",
"-59 -82 OFFCURVE",
"-53 -75 CURVE SMOOTH",
"54 46 OFFCURVE",
"113 123 OFFCURVE",
"216 229 CURVE",
"276 139 OFFCURVE",
"346 54 OFFCURVE",
"430 -37 CURVE SMOOTH",
"435 -42 OFFCURVE",
"441 -45 OFFCURVE",
"447 -45 CURVE SMOOTH",
"460 -45 OFFCURVE",
"472 -32 OFFCURVE",
"472 -19 CURVE SMOOTH",
"472 -13 OFFCURVE",
"471 -8 OFFCURVE",
"466 -3 CURVE SMOOTH",
"380 90 OFFCURVE",
"310 176 OFFCURVE",
"252 265 CURVE",
"366 375 OFFCURVE",
"470 437 OFFCURVE",
"568 546 CURVE SMOOTH",
"572 550 OFFCURVE",
"574 555 OFFCURVE",
"574 560 CURVE SMOOTH",
"574 578 OFFCURVE",
"553 598 OFFCURVE",
"535 598 CURVE SMOOTH",
"529 598 OFFCURVE",
"523 596 OFFCURVE",
"519 591 CURVE SMOOTH",
"505 575 OFFCURVE",
"498 564 OFFCURVE",
"484 550 CURVE SMOOTH",
"476 543 OFFCURVE",
"473 520 OFFCURVE",
"465 512 CURVE SMOOTH",
"392 446 OFFCURVE",
"312 391 OFFCURVE",
"224 307 CURVE",
"225 307 LINE",
"188 368 OFFCURVE",
"155 431 OFFCURVE",
"127 500 CURVE SMOOTH",
"123 510 OFFCURVE",
"115 514 OFFCURVE",
"106 514 CURVE SMOOTH",
"93 514 OFFCURVE",
"80 504 OFFCURVE",
"80 490 CURVE SMOOTH",
"80 487 OFFCURVE",
"81 484 OFFCURVE",
"82 481 CURVE SMOOTH",
"112 406 OFFCURVE",
"148 338 OFFCURVE",
"188 272 CURVE",
"78 158 OFFCURVE",
"27 73 OFFCURVE",
"-81 -49 CURVE SMOOTH",
"-86 -55 OFFCURVE",
"-88 -61 OFFCURVE",
"-88 -67 CURVE SMOOTH",
"-88 -77 OFFCURVE",
"-81 -85 OFFCURVE",
"-71 -85 CURVE SMOOTH"
);
}
);
width = 469;
}
);
note = X;
unicode = 0058;
},
{
glyphname = Y;
lastChange = "2022-01-12 01:24:45 +0000";
layers = (
{
background = {
paths = (
{
closed = 1;
nodes = (
"268 527 LINE",
"311 538 OFFCURVE",
"296 559 OFFCURVE",
"249 553 CURVE SMOOTH",
"182 545 OFFCURVE",
"96 500 OFFCURVE",
"74 447 CURVE SMOOTH",
"51 394 OFFCURVE",
"56 335 OFFCURVE",
"148 305 CURVE SMOOTH",
"205 286 OFFCURVE",
"258 286 OFFCURVE",
"307 295 CURVE",
"276 237 OFFCURVE",
"215 118 OFFCURVE",
"207 24 CURVE SMOOTH",
"203 -25 OFFCURVE",
"251 -38 OFFCURVE",
"269 -25 CURVE SMOOTH",
"297 -5 OFFCURVE",
"246 18 OFFCURVE",
"252 37 CURVE SMOOTH",
"266 81 OFFCURVE",
"276 111 OFFCURVE",
"295 167 CURVE SMOOTH",
"306 198 OFFCURVE",
"328 221 OFFCURVE",
"341 243 CURVE SMOOTH",
"351 258 OFFCURVE",
"364 296 OFFCURVE",
"364 309 CURVE SMOOTH",
"364 310 LINE",
"417 328 OFFCURVE",
"463 354 OFFCURVE",
"502 374 CURVE SMOOTH",
"591 419 OFFCURVE",
"655 475 OFFCURVE",
"680 506 CURVE SMOOTH",
"698 529 OFFCURVE",
"649 549 OFFCURVE",
"638 524 CURVE SMOOTH",
"628 501 OFFCURVE",
"549 431 OFFCURVE",
"465 395 CURVE SMOOTH",
"398 367 OFFCURVE",
"278 316 OFFCURVE",
"182 338 CURVE SMOOTH",
"132 350 OFFCURVE",
"102 381 OFFCURVE",
"128 436 CURVE SMOOTH",
"154 491 OFFCURVE",
"202 510 OFFCURVE",
"268 528 CURVE"
);
}
);
};
layerId = "34A4CA4C-C6E5-4C7E-9ECD-8F87FE1EC3A4";
paths = (
{
closed = 1;
nodes = (
"266 -30 OFFCURVE",
"277 -24 OFFCURVE",
"277 -12 CURVE SMOOTH",
"277 5 OFFCURVE",
"247 22 OFFCURVE",
"252 37 CURVE SMOOTH",
"266 81 OFFCURVE",
"276 111 OFFCURVE",
"295 167 CURVE SMOOTH",
"306 198 OFFCURVE",
"328 221 OFFCURVE",
"341 243 CURVE SMOOTH",
"351 258 OFFCURVE",
"364 296 OFFCURVE",
"364 309 CURVE SMOOTH",
"364 310 LINE",
"417 328 OFFCURVE",
"463 354 OFFCURVE",
"502 374 CURVE SMOOTH",
"591 419 OFFCURVE",
"655 475 OFFCURVE",
"680 506 CURVE SMOOTH",
"683 509 OFFCURVE",
"684 513 OFFCURVE",
"684 516 CURVE SMOOTH",
"684 527 OFFCURVE",
"670 536 OFFCURVE",
"657 536 CURVE SMOOTH",
"649 536 OFFCURVE",
"642 532 OFFCURVE",
"638 524 CURVE SMOOTH",
"628 501 OFFCURVE",
"549 431 OFFCURVE",
"465 395 CURVE SMOOTH",
"409 372 OFFCURVE",
"317 333 OFFCURVE",
"233 333 CURVE SMOOTH",
"215 333 OFFCURVE",
"198 334 OFFCURVE",
"182 338 CURVE SMOOTH",
"145 347 OFFCURVE",
"118 367 OFFCURVE",
"118 399 CURVE SMOOTH",
"118 410 OFFCURVE",
"121 422 OFFCURVE",
"128 436 CURVE SMOOTH",
"154 491 OFFCURVE",
"202 510 OFFCURVE",
"268 528 CURVE",
"268 527 LINE",
"286 532 OFFCURVE",
"294 538 OFFCURVE",
"294 543 CURVE SMOOTH",
"294 549 OFFCURVE",
"283 554 OFFCURVE",
"265 554 CURVE SMOOTH",
"260 554 OFFCURVE",
"255 554 OFFCURVE",
"249 553 CURVE SMOOTH",
"182 545 OFFCURVE",
"96 500 OFFCURVE",
"74 447 CURVE SMOOTH",
"67 431 OFFCURVE",
"62 414 OFFCURVE",
"62 397 CURVE SMOOTH",
"62 360 OFFCURVE",
"84 326 OFFCURVE",
"148 305 CURVE SMOOTH",
"182 294 OFFCURVE",
"214 289 OFFCURVE",
"245 289 CURVE SMOOTH",
"266 289 OFFCURVE",
"287 291 OFFCURVE",
"307 295 CURVE",
"276 237 OFFCURVE",
"215 118 OFFCURVE",
"207 24 CURVE SMOOTH",
"204 -14 OFFCURVE",
"231 -30 OFFCURVE",
"253 -30 CURVE SMOOTH"
);
}
);
width = 488;
}
);
note = Y;
unicode = 0059;
},
{
glyphname = Z;
lastChange = "2022-01-12 01:24:45 +0000";
layers = (
{
background = {
paths = (
{
closed = 1;
nodes = (
"-8 -38 LINE",
"94 15 OFFCURVE",
"219 60 OFFCURVE",
"313 50 CURVE SMOOTH",
"365 45 OFFCURVE",
"410 40 OFFCURVE",
"435 14 CURVE",
"445 6 OFFCURVE",
"447 0 OFFCURVE",
"445 -5 CURVE",
"445 -5 OFFCURVE",
"410 -58 OFFCURVE",
"444 -58 CURVE SMOOTH",
"447 -58 OFFCURVE",
"462 -56 OFFCURVE",
"474 -45 CURVE SMOOTH",
"484 -35 OFFCURVE",
"487 -20 OFFCURVE",
"491 -9 CURVE SMOOTH",
"497 5 OFFCURVE",
"501 20 OFFCURVE",
"496 32 CURVE SMOOTH",
"489 45 OFFCURVE",
"471 52 OFFCURVE",
"471 52 CURVE",
"441 76 OFFCURVE",
"397 77 OFFCURVE",
"346 82 CURVE SMOOTH",
"288 87 OFFCURVE",
"249 86 OFFCURVE",
"183 72 CURVE SMOOTH",
"139 62 OFFCURVE",
"105 48 OFFCURVE",
"69 32 CURVE",
"119 101 OFFCURVE",
"313 252 OFFCURVE",
"427 354 CURVE SMOOTH",
"452 376 OFFCURVE",
"482 388 OFFCURVE",
"502 404 CURVE SMOOTH",
"517 416 OFFCURVE",
"541 446 OFFCURVE",
"547 457 CURVE SMOOTH",
"564 486 OFFCURVE",
"535 508 OFFCURVE",
"510 487 CURVE SMOOTH",
"411 404 OFFCURVE",
"70 121 OFFCURVE",
"14 25 CURVE SMOOTH",
"10 17 OFFCURVE",
"7 11 OFFCURVE",
"5 6 CURVE",
"-5 2 LINE SMOOTH",
"-27 -7 OFFCURVE",
"-21 -46 OFFCURVE",
"-8 -39 CURVE"
);
},
{
closed = 1;
nodes = (
"392 533 OFFCURVE",
"517 507 OFFCURVE",
"592 484 CURVE SMOOTH",
"604 480 OFFCURVE",
"632 510 OFFCURVE",
"612 516 CURVE SMOOTH",
"543 535 OFFCURVE",
"525 547 OFFCURVE",
"454 555 CURVE SMOOTH",
"390 563 OFFCURVE",
"325 554 OFFCURVE",
"268 544 CURVE SMOOTH",
"215 534 OFFCURVE",
"170 531 OFFCURVE",
"137 504 CURVE",
"137 504 OFFCURVE",
"117 496 OFFCURVE",
"110 482 CURVE SMOOTH",
"102 470 OFFCURVE",
"105 455 OFFCURVE",
"108 440 CURVE",
"112 430 OFFCURVE",
"112 415 OFFCURVE",
"122 406 CURVE SMOOTH",
"133 395 OFFCURVE",
"147 395 OFFCURVE",
"150 395 CURVE SMOOTH",
"185 398 OFFCURVE",
"156 448 OFFCURVE",
"156 448 CURVE",
"154 454 OFFCURVE",
"158 461 OFFCURVE",
"168 469 CURVE",
"197 497 OFFCURVE",
"241 505 OFFCURVE",
"296 515 CURVE SMOOTH"
);
}
);
};
layerId = "34A4CA4C-C6E5-4C7E-9ECD-8F87FE1EC3A4";
paths = (
{
closed = 1;
nodes = (
"447 -58 OFFCURVE",
"462 -56 OFFCURVE",
"474 -45 CURVE SMOOTH",
"484 -35 OFFCURVE",
"487 -20 OFFCURVE",
"491 -9 CURVE SMOOTH",
"495 1 OFFCURVE",
"498 11 OFFCURVE",
"498 20 CURVE SMOOTH",
"498 24 OFFCURVE",
"498 28 OFFCURVE",
"496 32 CURVE SMOOTH",
"489 45 OFFCURVE",
"471 52 OFFCURVE",
"471 52 CURVE",
"441 76 OFFCURVE",
"397 77 OFFCURVE",
"346 82 CURVE SMOOTH",
"326 84 OFFCURVE",
"308 85 OFFCURVE",
"291 85 CURVE SMOOTH",
"258 85 OFFCURVE",
"226 81 OFFCURVE",
"183 72 CURVE SMOOTH",
"139 62 OFFCURVE",
"105 48 OFFCURVE",
"69 32 CURVE",
"119 101 OFFCURVE",
"313 252 OFFCURVE",
"427 354 CURVE SMOOTH",
"452 376 OFFCURVE",
"482 388 OFFCURVE",
"502 404 CURVE SMOOTH",
"517 416 OFFCURVE",
"541 446 OFFCURVE",
"547 457 CURVE SMOOTH",
"551 463 OFFCURVE",
"552 469 OFFCURVE",
"552 474 CURVE SMOOTH",
"552 486 OFFCURVE",
"543 495 OFFCURVE",
"531 495 CURVE SMOOTH",
"524 495 OFFCURVE",
"517 493 OFFCURVE",
"510 487 CURVE SMOOTH",
"411 404 OFFCURVE",
"70 121 OFFCURVE",
"14 25 CURVE SMOOTH",
"10 17 OFFCURVE",
"7 11 OFFCURVE",
"5 6 CURVE",
"-5 2 LINE SMOOTH",
"-16 -2 OFFCURVE",
"-20 -13 OFFCURVE",
"-20 -23 CURVE SMOOTH",
"-20 -34 OFFCURVE",
"-15 -43 OFFCURVE",
"-8 -39 CURVE",
"-8 -38 LINE",
"84 10 OFFCURVE",
"196 51 OFFCURVE",
"285 51 CURVE SMOOTH",
"295 51 OFFCURVE",
"304 51 OFFCURVE",
"313 50 CURVE SMOOTH",
"365 45 OFFCURVE",
"410 40 OFFCURVE",
"435 14 CURVE",
"443 8 OFFCURVE",
"446 3 OFFCURVE",
"446 -1 CURVE SMOOTH",
"446 -3 OFFCURVE",
"445 -4 OFFCURVE",
"445 -5 CURVE",
"445 -5 OFFCURVE",
"429 -29 OFFCURVE",
"429 -45 CURVE SMOOTH",
"429 -52 OFFCURVE",
"433 -58 OFFCURVE",
"444 -58 CURVE SMOOTH"
);
},
{
closed = 1;
nodes = (
"163 396 OFFCURVE",
"167 404 OFFCURVE",
"167 413 CURVE SMOOTH",
"167 429 OFFCURVE",
"156 448 OFFCURVE",
"156 448 CURVE",
"154 454 OFFCURVE",
"158 461 OFFCURVE",
"168 469 CURVE",
"197 497 OFFCURVE",
"241 505 OFFCURVE",
"296 515 CURVE SMOOTH",
"318 519 OFFCURVE",
"342 521 OFFCURVE",
"367 521 CURVE SMOOTH",
"448 521 OFFCURVE",
"535 502 OFFCURVE",
"592 484 CURVE SMOOTH",
"601 481 OFFCURVE",
"619 497 OFFCURVE",
"619 508 CURVE SMOOTH",
"619 512 OFFCURVE",
"617 515 OFFCURVE",
"612 516 CURVE SMOOTH",
"543 535 OFFCURVE",
"525 547 OFFCURVE",
"454 555 CURVE SMOOTH",
"437 557 OFFCURVE",
"419 558 OFFCURVE",
"402 558 CURVE SMOOTH",
"356 558 OFFCURVE",
"310 551 OFFCURVE",
"268 544 CURVE SMOOTH",
"215 534 OFFCURVE",
"170 531 OFFCURVE",
"137 504 CURVE",
"137 504 OFFCURVE",
"117 496 OFFCURVE",
"110 482 CURVE SMOOTH",
"106 476 OFFCURVE",
"105 470 OFFCURVE",
"105 463 CURVE SMOOTH",
"105 456 OFFCURVE",
"106 448 OFFCURVE",
"108 440 CURVE SMOOTH",
"112 430 OFFCURVE",
"112 415 OFFCURVE",
"122 406 CURVE SMOOTH",
"133 395 OFFCURVE",
"147 395 OFFCURVE",
"150 395 CURVE SMOOTH"
);
}
);
width = 565;
}
);
note = Z;
unicode = 005A;
},
{
glyphname = a;
lastChange = "2022-01-12 01:26:25 +0000";
layers = (
{
background = {
paths = (
{
closed = 1;
nodes = (
"334 283 OFFCURVE",
"225 290 OFFCURVE",
"161 268 CURVE SMOOTH",
"93 245 OFFCURVE",
"27 195 OFFCURVE",
"20 125 CURVE SMOOTH",
"14 60 OFFCURVE",
"78 22 OFFCURVE",
"135 22 CURVE SMOOTH",
"177 22 OFFCURVE",
"206 28 OFFCURVE",
"252 65 CURVE SMOOTH",
"276 84 OFFCURVE",
"255 115 OFFCURVE",
"230 96 CURVE SMOOTH",
"190 66 OFFCURVE",
"180 68 OFFCURVE",
"135 68 CURVE SMOOTH",
"99 68 OFFCURVE",
"64 96 OFFCURVE",
"69 120 CURVE",
"72 164 OFFCURVE",
"126 211 OFFCURVE",
"177 225 CURVE SMOOTH",
"245 244 OFFCURVE",
"337 221 OFFCURVE",
"342 152 CURVE",
"327 112 OFFCURVE",
"310 85 OFFCURVE",
"295 73 CURVE SMOOTH",
"271 52 OFFCURVE",
"302 18 OFFCURVE",
"325 38 CURVE SMOOTH",
"370 76 OFFCURVE",
"395 144 OFFCURVE",
"407 188 CURVE SMOOTH",
"428 261 OFFCURVE",
"444 319 OFFCURVE",
"419 379 CURVE SMOOTH",
"401 422 OFFCURVE",
"355 425 OFFCURVE",
"324 425 CURVE SMOOTH",
"269 425 OFFCURVE",
"248 394 OFFCURVE",
"231 377 CURVE SMOOTH",
"212 358 OFFCURVE",
"225 323 OFFCURVE",
"255 335 CURVE",
"276 358 OFFCURVE",
"304 377 OFFCURVE",
"323 377 CURVE SMOOTH",
"355 378 OFFCURVE",
"363 368 OFFCURVE",
"375 353 CURVE SMOOTH",
"388 335 OFFCURVE",
"386 276 OFFCURVE",
"367 215 CURVE"
);
}
);
};
layerId = "34A4CA4C-C6E5-4C7E-9ECD-8F87FE1EC3A4";
paths = (
{
closed = 1;
nodes = (
"177 22 OFFCURVE",
"206 28 OFFCURVE",
"252 65 CURVE SMOOTH",
"260 71 OFFCURVE",
"263 78 OFFCURVE",
"263 84 CURVE SMOOTH",
"263 94 OFFCURVE",
"255 102 OFFCURVE",
"245 102 CURVE SMOOTH",
"241 102 OFFCURVE",
"236 100 OFFCURVE",
"230 96 CURVE SMOOTH",
"190 66 OFFCURVE",
"180 68 OFFCURVE",
"135 68 CURVE SMOOTH",
"99 68 OFFCURVE",
"69 92 OFFCURVE",
"69 117 CURVE SMOOTH",
"69 164 OFFCURVE",
"126 211 OFFCURVE",
"177 225 CURVE SMOOTH",
"192 229 OFFCURVE",
"209 231 OFFCURVE",
"225 231 CURVE SMOOTH",
"282 231 OFFCURVE",
"338 206 OFFCURVE",
"342 152 CURVE",
"327 112 OFFCURVE",
"310 85 OFFCURVE",
"295 73 CURVE SMOOTH",
"289 67 OFFCURVE",
"286 61 OFFCURVE",
"286 55 CURVE SMOOTH",
"286 43 OFFCURVE",
"297 32 OFFCURVE",
"310 32 CURVE SMOOTH",
"315 32 OFFCURVE",
"320 34 OFFCURVE",
"325 38 CURVE SMOOTH",
"370 76 OFFCURVE",
"395 144 OFFCURVE",
"407 188 CURVE SMOOTH",
"420 235 OFFCURVE",
"432 275 OFFCURVE",
"432 314 CURVE SMOOTH",
"432 392 OFFCURVE",
"398 425 OFFCURVE",
"324 425 CURVE SMOOTH",
"269 425 OFFCURVE",
"248 394 OFFCURVE",
"231 377 CURVE SMOOTH",
"225 371 OFFCURVE",
"222 363 OFFCURVE",
"222 356 CURVE SMOOTH",
"222 344 OFFCURVE",
"230 333 OFFCURVE",
"243 333 CURVE SMOOTH",
"255 333 OFFCURVE",
"255 335 OFFCURVE",
"263 343 CURVE SMOOTH",
"283 362 OFFCURVE",
"306 377 OFFCURVE",
"323 377 CURVE SMOOTH",
"367 378 OFFCURVE",
"383 355 OFFCURVE",
"383 311 CURVE SMOOTH",
"383 285 OFFCURVE",
"378 250 OFFCURVE",
"367 215 CURVE",
"345 261 OFFCURVE",
"287 279 OFFCURVE",
"233 279 CURVE SMOOTH",
"207 279 OFFCURVE",
"182 275 OFFCURVE",
"161 268 CURVE SMOOTH",
"93 245 OFFCURVE",
"20 195 OFFCURVE",
"20 115 CURVE SMOOTH",
"20 60 OFFCURVE",
"78 22 OFFCURVE",
"135 22 CURVE SMOOTH"
);
}
);
width = 452;
}
);
note = a;
unicode = 0061;
},
{
glyphname = ae;
lastChange = "2022-01-12 01:24:45 +0000";
layers = (
{
background = {
paths = (
{
closed = 1;
nodes = (
"423 195 LINE",
"479 188 OFFCURVE",
"570 195 OFFCURVE",
"632 220 CURVE SMOOTH",
"678 238 OFFCURVE",
"737 276 OFFCURVE",
"737 331 CURVE SMOOTH",
"737 421 OFFCURVE",
"634 435 OFFCURVE",
"542 409 CURVE SMOOTH",
"508 400 OFFCURVE",
"465 373 OFFCURVE",
"430 332 CURVE",
"429 347 OFFCURVE",
"425 363 OFFCURVE",
"419 379 CURVE SMOOTH",
"401 422 OFFCURVE",
"355 425 OFFCURVE",
"324 425 CURVE SMOOTH",
"269 425 OFFCURVE",
"248 394 OFFCURVE",
"231 377 CURVE SMOOTH",
"212 358 OFFCURVE",
"225 323 OFFCURVE",
"255 335 CURVE",
"276 358 OFFCURVE",
"304 377 OFFCURVE",
"323 377 CURVE SMOOTH",
"355 378 OFFCURVE",
"363 368 OFFCURVE",
"375 353 CURVE SMOOTH",
"388 335 OFFCURVE",
"386 276 OFFCURVE",
"367 215 CURVE",
"334 283 OFFCURVE",
"225 290 OFFCURVE",
"161 268 CURVE SMOOTH",
"93 245 OFFCURVE",
"27 195 OFFCURVE",
"20 125 CURVE SMOOTH",
"14 60 OFFCURVE",
"78 22 OFFCURVE",
"135 22 CURVE SMOOTH",
"177 22 OFFCURVE",
"206 28 OFFCURVE",
"252 65 CURVE SMOOTH",
"276 84 OFFCURVE",
"255 115 OFFCURVE",
"230 96 CURVE SMOOTH",
"190 66 OFFCURVE",
"180 68 OFFCURVE",
"135 68 CURVE SMOOTH",
"99 68 OFFCURVE",
"64 96 OFFCURVE",
"69 120 CURVE",
"72 164 OFFCURVE",
"126 211 OFFCURVE",
"177 225 CURVE SMOOTH",
"245 244 OFFCURVE",
"337 221 OFFCURVE",
"342 152 CURVE",
"327 112 OFFCURVE",
"310 85 OFFCURVE",
"295 73 CURVE SMOOTH",
"271 52 OFFCURVE",
"302 18 OFFCURVE",
"325 38 CURVE SMOOTH",
"346 56 OFFCURVE",
"363 80 OFFCURVE",
"376 106 CURVE",
"391 61 OFFCURVE",
"426 22 OFFCURVE",
"483 4 CURVE SMOOTH",
"520 -8 OFFCURVE",
"547 14 OFFCURVE",
"490 44 CURVE",
"465 64 OFFCURVE",
"413 109 OFFCURVE",
"421 179 CURVE SMOOTH",
"421 184 OFFCURVE",
"422 189 OFFCURVE",
"423 194 CURVE SMOOTH"
);
},
{
closed = 1;
nodes = (
"464 311 OFFCURVE",
"519 353 OFFCURVE",
"547 361 CURVE SMOOTH",
"612 381 OFFCURVE",
"673 377 OFFCURVE",
"679 342 CURVE SMOOTH",
"685 302 OFFCURVE",
"652 274 OFFCURVE",
"620 259 CURVE SMOOTH",
"562 233 OFFCURVE",
"481 235 OFFCURVE",
"436 241 CURVE"
);
}
);
};
layerId = "34A4CA4C-C6E5-4C7E-9ECD-8F87FE1EC3A4";
paths = (
{
closed = 1;
nodes = (
"515 1 OFFCURVE",
"523 5 OFFCURVE",
"523 13 CURVE SMOOTH",
"523 20 OFFCURVE",
"514 32 OFFCURVE",
"490 44 CURVE",
"467 63 OFFCURVE",
"420 103 OFFCURVE",
"420 165 CURVE SMOOTH",
"420 169 OFFCURVE",
"420 174 OFFCURVE",
"421 179 CURVE SMOOTH",
"421 184 OFFCURVE",
"422 189 OFFCURVE",
"423 194 CURVE SMOOTH",
"423 195 LINE",
"437 193 OFFCURVE",
"452 192 OFFCURVE",
"469 192 CURVE SMOOTH",
"521 192 OFFCURVE",
"585 201 OFFCURVE",
"632 220 CURVE SMOOTH",
"678 238 OFFCURVE",
"737 276 OFFCURVE",
"737 331 CURVE SMOOTH",
"737 395 OFFCURVE",
"685 421 OFFCURVE",
"621 421 CURVE SMOOTH",
"596 421 OFFCURVE",
"568 416 OFFCURVE",
"542 409 CURVE SMOOTH",
"508 400 OFFCURVE",
"465 373 OFFCURVE",
"430 332 CURVE",
"429 347 OFFCURVE",
"425 363 OFFCURVE",
"419 379 CURVE SMOOTH",
"401 422 OFFCURVE",
"355 425 OFFCURVE",
"324 425 CURVE SMOOTH",
"269 425 OFFCURVE",
"248 394 OFFCURVE",
"231 377 CURVE SMOOTH",
"225 371 OFFCURVE",
"222 363 OFFCURVE",
"222 356 CURVE SMOOTH",
"222 344 OFFCURVE",
"230 333 OFFCURVE",
"243 333 CURVE SMOOTH",
"247 333 OFFCURVE",
"251 333 OFFCURVE",
"255 335 CURVE",
"276 358 OFFCURVE",
"304 377 OFFCURVE",
"323 377 CURVE SMOOTH",
"355 378 OFFCURVE",
"363 368 OFFCURVE",
"375 353 CURVE SMOOTH",
"380 345 OFFCURVE",
"383 331 OFFCURVE",
"383 311 CURVE SMOOTH",
"383 285 OFFCURVE",
"378 250 OFFCURVE",
"367 215 CURVE",
"345 261 OFFCURVE",
"287 279 OFFCURVE",
"233 279 CURVE SMOOTH",
"207 279 OFFCURVE",
"182 275 OFFCURVE",
"161 268 CURVE SMOOTH",
"93 245 OFFCURVE",
"27 195 OFFCURVE",
"20 125 CURVE SMOOTH",
"14 60 OFFCURVE",
"78 22 OFFCURVE",
"135 22 CURVE SMOOTH",
"177 22 OFFCURVE",
"206 28 OFFCURVE",
"252 65 CURVE SMOOTH",
"260 71 OFFCURVE",
"263 78 OFFCURVE",
"263 84 CURVE SMOOTH",
"263 94 OFFCURVE",
"255 102 OFFCURVE",
"245 102 CURVE SMOOTH",
"241 102 OFFCURVE",
"236 100 OFFCURVE",
"230 96 CURVE SMOOTH",
"190 66 OFFCURVE",
"180 68 OFFCURVE",
"135 68 CURVE SMOOTH",
"99 68 OFFCURVE",
"64 96 OFFCURVE",
"69 120 CURVE",
"72 164 OFFCURVE",
"126 211 OFFCURVE",
"177 225 CURVE SMOOTH",
"192 229 OFFCURVE",
"209 231 OFFCURVE",
"225 231 CURVE SMOOTH",
"282 231 OFFCURVE",
"338 206 OFFCURVE",
"342 152 CURVE",
"327 112 OFFCURVE",
"310 85 OFFCURVE",
"295 73 CURVE SMOOTH",
"289 67 OFFCURVE",
"286 61 OFFCURVE",
"286 55 CURVE SMOOTH",
"286 43 OFFCURVE",
"297 32 OFFCURVE",
"310 32 CURVE SMOOTH",
"315 32 OFFCURVE",
"320 34 OFFCURVE",
"325 38 CURVE SMOOTH",
"346 56 OFFCURVE",
"363 80 OFFCURVE",
"376 106 CURVE",
"391 61 OFFCURVE",
"426 22 OFFCURVE",
"483 4 CURVE SMOOTH",
"490 2 OFFCURVE",
"497 1 OFFCURVE",
"502 1 CURVE SMOOTH"
);
},
{
closed = 1;
nodes = (
"473 237 OFFCURVE",
"452 239 OFFCURVE",
"436 241 CURVE",
"464 311 OFFCURVE",
"519 353 OFFCURVE",
"547 361 CURVE SMOOTH",
"573 369 OFFCURVE",
"598 373 OFFCURVE",
"619 373 CURVE SMOOTH",
"652 373 OFFCURVE",
"675 363 OFFCURVE",
"679 342 CURVE SMOOTH",
"685 302 OFFCURVE",
"652 274 OFFCURVE",
"620 259 CURVE SMOOTH",
"583 242 OFFCURVE",
"536 237 OFFCURVE",
"496 237 CURVE SMOOTH"
);
}
);
width = 751;
}
);
note = ae;
unicode = 00E6;
},
{
glyphname = b;
lastChange = "2022-01-12 01:24:45 +0000";
layers = (
{
background = {
paths = (
{
closed = 1;
nodes = (
"310 610 LINE",
"320 640 OFFCURVE",
"268 660 OFFCURVE",
"258 630 CURVE SMOOTH",
"244 591 OFFCURVE",
"233 537 OFFCURVE",
"212 480 CURVE SMOOTH",
"178 390 OFFCURVE",
"129 222 OFFCURVE",
"86 169 CURVE SMOOTH",
"62 140 OFFCURVE",
"108 122 OFFCURVE",
"123 138 CURVE SMOOTH",
"188 205 OFFCURVE",
"233 270 OFFCURVE",
"381 312 CURVE SMOOTH",
"437 328 OFFCURVE",
"435 286 OFFCURVE",
"419 239 CURVE",
"371 142 OFFCURVE",
"293 76 OFFCURVE",
"165 43 CURVE SMOOTH",
"146 38 OFFCURVE",
"101 34 OFFCURVE",
"83 39 CURVE SMOOTH",
"61 45 OFFCURVE",
"52 62 OFFCURVE",
"44 71 CURVE SMOOTH",
"24 95 OFFCURVE",
"-13 43 OFFCURVE",
"9 18 CURVE",
"47 -14 OFFCURVE",
"105 -16 OFFCURVE",
"160 -5 CURVE SMOOTH",
"304 23 OFFCURVE",
"409 107 OFFCURVE",
"463 218 CURVE",
"493 265 OFFCURVE",
"485 392 OFFCURVE",
"367 359 CURVE SMOOTH",
"270 332 OFFCURVE",
"212 289 OFFCURVE",
"167 249 CURVE",
"236 425 OFFCURVE",
"280 523 OFFCURVE",
"310 609 CURVE"
);
}
);
};
layerId = "34A4CA4C-C6E5-4C7E-9ECD-8F87FE1EC3A4";
paths = (
{
closed = 1;
nodes = (
"122 -11 OFFCURVE",
"141 -9 OFFCURVE",
"160 -5 CURVE SMOOTH",
"304 23 OFFCURVE",
"409 107 OFFCURVE",
"463 218 CURVE",
"472 232 OFFCURVE",
"478 254 OFFCURVE",
"478 277 CURVE SMOOTH",
"478 319 OFFCURVE",
"457 364 OFFCURVE",
"403 364 CURVE SMOOTH",
"392 364 OFFCURVE",
"380 363 OFFCURVE",
"367 359 CURVE SMOOTH",
"270 332 OFFCURVE",
"212 289 OFFCURVE",
"167 249 CURVE",
"236 425 OFFCURVE",
"280 523 OFFCURVE",
"310 609 CURVE",
"310 610 LINE SMOOTH",
"311 613 OFFCURVE",
"311 616 OFFCURVE",
"311 618 CURVE SMOOTH",
"311 634 OFFCURVE",
"294 645 OFFCURVE",
"279 645 CURVE SMOOTH",
"270 645 OFFCURVE",
"261 640 OFFCURVE",
"258 630 CURVE SMOOTH",
"244 591 OFFCURVE",
"233 537 OFFCURVE",
"212 480 CURVE SMOOTH",
"178 390 OFFCURVE",
"129 222 OFFCURVE",
"86 169 CURVE SMOOTH",
"81 163 OFFCURVE",
"79 158 OFFCURVE",
"79 153 CURVE SMOOTH",
"79 140 OFFCURVE",
"94 132 OFFCURVE",
"107 132 CURVE SMOOTH",
"113 132 OFFCURVE",
"119 134 OFFCURVE",
"123 138 CURVE SMOOTH",
"188 205 OFFCURVE",
"233 270 OFFCURVE",
"381 312 CURVE SMOOTH",
"389 314 OFFCURVE",
"396 315 OFFCURVE",
"402 315 CURVE SMOOTH",
"422 315 OFFCURVE",
"429 304 OFFCURVE",
"429 286 CURVE SMOOTH",
"429 273 OFFCURVE",
"425 256 OFFCURVE",
"419 239 CURVE",
"371 142 OFFCURVE",
"293 76 OFFCURVE",
"165 43 CURVE SMOOTH",
"152 40 OFFCURVE",
"127 37 OFFCURVE",
"107 37 CURVE SMOOTH",
"98 37 OFFCURVE",
"89 37 OFFCURVE",
"83 39 CURVE SMOOTH",
"61 45 OFFCURVE",
"52 62 OFFCURVE",
"44 71 CURVE SMOOTH",
"40 75 OFFCURVE",
"36 77 OFFCURVE",
"32 77 CURVE SMOOTH",
"17 77 OFFCURVE",
"2 56 OFFCURVE",
"2 37 CURVE SMOOTH",
"2 30 OFFCURVE",
"4 23 OFFCURVE",
"9 18 CURVE SMOOTH",
"34 -3 OFFCURVE",
"67 -11 OFFCURVE",
"103 -11 CURVE SMOOTH"
);
}
);
width = 485;
}
);
note = b;
unicode = 0062;
},
{
glyphname = c;
lastChange = "2022-01-12 01:24:45 +0000";
layers = (
{
background = {
paths = (
{
closed = 1;
nodes = (
"346 268 OFFCURVE",
"368 288 OFFCURVE",
"364 320 CURVE SMOOTH",
"361 342 OFFCURVE",
"352 375 OFFCURVE",
"292 375 CURVE",
"223 362 OFFCURVE",
"189 329 OFFCURVE",
"145 289 CURVE SMOOTH",
"86 236 OFFCURVE",
"63 205 OFFCURVE",
"40 151 CURVE",
"40 151 LINE",
"2 78 OFFCURVE",
"45 -60 OFFCURVE",
"192 -18 CURVE SMOOTH",
"248 -2 OFFCURVE",
"276 16 OFFCURVE",
"341 78 CURVE SMOOTH",
"364 99 OFFCURVE",
"334 126 OFFCURVE",
"312 104 CURVE SMOOTH",
"269 59 OFFCURVE",
"225 40 OFFCURVE",
"180 30 CURVE SMOOTH",
"75 6 OFFCURVE",
"67 74 OFFCURVE",
"85 132 CURVE",
"85 132 LINE",
"107 185 OFFCURVE",
"127 208 OFFCURVE",
"177 253 CURVE SMOOTH",
"222 293 OFFCURVE",
"246 299 OFFCURVE",
"299 311 CURVE",
"302 306 OFFCURVE",
"309 298 OFFCURVE",
"323 286 CURVE SMOOTH"
);
}
);
};
layerId = "34A4CA4C-C6E5-4C7E-9ECD-8F87FE1EC3A4";
paths = (
{
closed = 1;
nodes = (
"156 -26 OFFCURVE",
"173 -23 OFFCURVE",
"192 -18 CURVE SMOOTH",
"248 -2 OFFCURVE",
"276 16 OFFCURVE",
"341 78 CURVE SMOOTH",
"347 83 OFFCURVE",
"349 89 OFFCURVE",
"349 94 CURVE SMOOTH",
"349 104 OFFCURVE",
"340 112 OFFCURVE",
"330 112 CURVE SMOOTH",
"324 112 OFFCURVE",
"318 110 OFFCURVE",
"312 104 CURVE SMOOTH",
"269 59 OFFCURVE",
"225 40 OFFCURVE",
"180 30 CURVE SMOOTH",
"165 27 OFFCURVE",
"152 25 OFFCURVE",
"141 25 CURVE SMOOTH",
"93 25 OFFCURVE",
"77 53 OFFCURVE",
"77 87 CURVE SMOOTH",
"77 102 OFFCURVE",
"80 117 OFFCURVE",
"85 132 CURVE SMOOTH",
"107 185 OFFCURVE",
"127 208 OFFCURVE",
"177 253 CURVE SMOOTH",
"222 293 OFFCURVE",
"246 299 OFFCURVE",
"299 311 CURVE",
"302 306 OFFCURVE",
"309 298 OFFCURVE",
"323 286 CURVE SMOOTH",
"329 281 OFFCURVE",
"335 279 OFFCURVE",
"340 279 CURVE SMOOTH",
"356 279 OFFCURVE",
"367 296 OFFCURVE",
"364 320 CURVE SMOOTH",
"361 342 OFFCURVE",
"352 375 OFFCURVE",
"292 375 CURVE",
"223 362 OFFCURVE",
"189 329 OFFCURVE",
"145 289 CURVE SMOOTH",
"86 236 OFFCURVE",
"63 205 OFFCURVE",
"40 151 CURVE",
"31 134 OFFCURVE",
"27 114 OFFCURVE",
"27 94 CURVE SMOOTH",
"27 36 OFFCURVE",
"63 -26 OFFCURVE",
"141 -26 CURVE SMOOTH"
);
}
);
width = 386;
}
);
note = c;
unicode = 0063;
},
{
glyphname = d;
lastChange = "2022-01-12 01:24:45 +0000";
layers = (
{
background = {
paths = (
{
closed = 1;
nodes = (
"585 592 LINE",
"615 632 OFFCURVE",
"547 669 OFFCURVE",
"529 630 CURVE",
"529 630 OFFCURVE",
"504 577 OFFCURVE",
"493 551 CURVE SMOOTH",
"475 505 OFFCURVE",
"434 408 OFFCURVE",
"410 332 CURVE",
"397 348 OFFCURVE",
"400 367 OFFCURVE",
"355 371 CURVE SMOOTH",
"213 384 OFFCURVE",
"101 281 OFFCURVE",
"51 216 CURVE SMOOTH",
"-19 127 OFFCURVE",
"54 13 OFFCURVE",
"196 9 CURVE SMOOTH",
"257 7 OFFCURVE",
"339 26 OFFCURVE",
"396 49 CURVE SMOOTH",
"441 68 OFFCURVE",
"474 97 OFFCURVE",
"495 116 CURVE SMOOTH",
"520 137 OFFCURVE",
"490 169 OFFCURVE",
"465 148 CURVE SMOOTH",
"444 129 OFFCURVE",
"416 108 OFFCURVE",
"380 93 CURVE SMOOTH",
"328 72 OFFCURVE",
"253 54 OFFCURVE",
"195 59 CURVE SMOOTH",
"80 69 OFFCURVE",
"69 137 OFFCURVE",
"98 178 CURVE SMOOTH",
"141 237 OFFCURVE",
"258 346 OFFCURVE",
"352 315 CURVE SMOOTH",
"387 304 OFFCURVE",
"396 243 OFFCURVE",
"379 185 CURVE SMOOTH",
"373 163 OFFCURVE",
"425 155 OFFCURVE",
"427 179 CURVE SMOOTH",
"435 306 OFFCURVE",
"509 454 OFFCURVE",
"540 533 CURVE SMOOTH",
"549 557 OFFCURVE",
"584 592 OFFCURVE",
"584 592 CURVE"
);
}
);
};
layerId = "34A4CA4C-C6E5-4C7E-9ECD-8F87FE1EC3A4";
paths = (
{
closed = 1;
nodes = (
"265 9 OFFCURVE",
"342 27 OFFCURVE",
"396 49 CURVE SMOOTH",
"441 68 OFFCURVE",
"474 97 OFFCURVE",
"495 116 CURVE SMOOTH",
"502 122 OFFCURVE",
"504 128 OFFCURVE",
"504 134 CURVE SMOOTH",
"504 145 OFFCURVE",
"494 155 OFFCURVE",
"482 155 CURVE SMOOTH",
"477 155 OFFCURVE",
"471 153 OFFCURVE",
"465 148 CURVE SMOOTH",
"444 129 OFFCURVE",
"416 108 OFFCURVE",
"380 93 CURVE SMOOTH",
"334 74 OFFCURVE",
"270 58 OFFCURVE",
"216 58 CURVE SMOOTH",
"208 58 OFFCURVE",
"202 58 OFFCURVE",
"195 59 CURVE SMOOTH",
"114 66 OFFCURVE",
"84 102 OFFCURVE",
"84 137 CURVE SMOOTH",
"84 152 OFFCURVE",
"89 166 OFFCURVE",
"98 178 CURVE SMOOTH",
"136 230 OFFCURVE",
"231 320 OFFCURVE",
"317 320 CURVE SMOOTH",
"329 320 OFFCURVE",
"341 319 OFFCURVE",
"352 315 CURVE SMOOTH",
"376 308 OFFCURVE",
"387 278 OFFCURVE",
"387 241 CURVE SMOOTH",
"387 223 OFFCURVE",
"385 204 OFFCURVE",
"379 185 CURVE SMOOTH",
"376 172 OFFCURVE",
"391 164 OFFCURVE",
"406 164 CURVE SMOOTH",
"416 164 OFFCURVE",
"426 169 OFFCURVE",
"427 179 CURVE SMOOTH",
"435 306 OFFCURVE",
"509 454 OFFCURVE",
"540 533 CURVE SMOOTH",
"549 557 OFFCURVE",
"584 592 OFFCURVE",
"584 592 CURVE",
"585 592 LINE",
"590 599 OFFCURVE",
"593 606 OFFCURVE",
"593 613 CURVE SMOOTH",
"593 632 OFFCURVE",
"573 647 OFFCURVE",
"555 647 CURVE SMOOTH",
"544 647 OFFCURVE",
"534 642 OFFCURVE",
"529 630 CURVE",
"529 630 OFFCURVE",
"504 577 OFFCURVE",
"493 551 CURVE SMOOTH",
"475 505 OFFCURVE",
"434 408 OFFCURVE",
"410 332 CURVE",
"395 350 OFFCURVE",
"401 372 OFFCURVE",
"330 372 CURVE SMOOTH",
"200 372 OFFCURVE",
"98 277 OFFCURVE",
"51 216 CURVE SMOOTH",
"32 193 OFFCURVE",
"24 167 OFFCURVE",
"24 143 CURVE SMOOTH",
"24 73 OFFCURVE",
"95 9 OFFCURVE",
"205 9 CURVE SMOOTH"
);
}
);
width = 523;
}
);
note = d;
unicode = 0064;
},
{
glyphname = eth;
lastChange = "2022-01-12 01:24:45 +0000";
layers = (
{
background = {
paths = (
{
closed = 1;
nodes = (
"135 457 OFFCURVE",
"164 484 OFFCURVE",
"200 515 CURVE",
"238 472 OFFCURVE",
"262 420 OFFCURVE",
"273 382 CURVE SMOOTH",
"278 366 OFFCURVE",
"281 349 OFFCURVE",
"281 333 CURVE",
"268 341 OFFCURVE",
"246 347 OFFCURVE",
"230 347 CURVE SMOOTH",
"103 345 OFFCURVE",
"16 180 OFFCURVE",
"60 55 CURVE SMOOTH",
"74 17 OFFCURVE",
"107 -10 OFFCURVE",
"146 -10 CURVE",
"229 -1 OFFCURVE",
"298 159 OFFCURVE",
"316 224 CURVE SMOOTH",
"340 308 OFFCURVE",
"312 461 OFFCURVE",
"233 541 CURVE",
"248 554 OFFCURVE",
"264 566 OFFCURVE",
"281 578 CURVE SMOOTH",
"308 597 OFFCURVE",
"313 634 OFFCURVE",
"284 620 CURVE SMOOTH",
"266 612 OFFCURVE",
"235 591 OFFCURVE",
"202 568 CURVE",
"161 598 OFFCURVE",
"135 605 OFFCURVE",
"71 604 CURVE SMOOTH",
"69 604 OFFCURVE",
"41 575 OFFCURVE",
"76 573 CURVE SMOOTH",
"112 571 OFFCURVE",
"144 563 OFFCURVE",
"169 544 CURVE",
"132 516 OFFCURVE",
"100 490 OFFCURVE",
"91 482 CURVE SMOOTH",
"68 459 OFFCURVE",
"99 422 OFFCURVE",
"123 445 CURVE SMOOTH"
);
},
{
closed = 1;
nodes = (
"249 171 OFFCURVE",
"199 35 OFFCURVE",
"139 34 CURVE SMOOTH",
"118 34 OFFCURVE",
"107 40 OFFCURVE",
"99 63 CURVE SMOOTH",
"92 85 OFFCURVE",
"93 110 OFFCURVE",
"93 131 CURVE SMOOTH",
"93 223 OFFCURVE",
"177 348 OFFCURVE",
"281 309 CURVE",
"279 264 OFFCURVE",
"269 226 OFFCURVE",
"268 224 CURVE SMOOTH"
);
}
);
};
layerId = "34A4CA4C-C6E5-4C7E-9ECD-8F87FE1EC3A4";
paths = (
{
closed = 1;
nodes = (
"229 -1 OFFCURVE",
"298 159 OFFCURVE",
"316 224 CURVE SMOOTH",
"322 243 OFFCURVE",
"324 267 OFFCURVE",
"324 292 CURVE SMOOTH",
"324 375 OFFCURVE",
"294 480 OFFCURVE",
"233 541 CURVE",
"248 554 OFFCURVE",
"264 566 OFFCURVE",
"281 578 CURVE SMOOTH",
"296 588 OFFCURVE",
"304 603 OFFCURVE",
"304 613 CURVE SMOOTH",
"304 619 OFFCURVE",
"301 623 OFFCURVE",
"295 623 CURVE SMOOTH",
"281 623 OFFCURVE",
"243 597 OFFCURVE",
"202 568 CURVE",
"161 598 OFFCURVE",
"135 605 OFFCURVE",
"71 604 CURVE SMOOTH",
"70 604 OFFCURVE",
"59 593 OFFCURVE",
"59 584 CURVE SMOOTH",
"59 578 OFFCURVE",
"63 574 OFFCURVE",
"76 573 CURVE SMOOTH",
"112 571 OFFCURVE",
"144 563 OFFCURVE",
"169 544 CURVE",
"132 516 OFFCURVE",
"100 490 OFFCURVE",
"91 482 CURVE SMOOTH",
"85 476 OFFCURVE",
"83 470 OFFCURVE",
"83 464 CURVE SMOOTH",
"83 450 OFFCURVE",
"94 438 OFFCURVE",
"107 438 CURVE SMOOTH",
"112 438 OFFCURVE",
"118 440 OFFCURVE",
"123 445 CURVE SMOOTH",
"135 457 OFFCURVE",
"164 484 OFFCURVE",
"200 515 CURVE",
"238 472 OFFCURVE",
"262 420 OFFCURVE",
"273 382 CURVE SMOOTH",
"278 366 OFFCURVE",
"281 349 OFFCURVE",
"281 333 CURVE",
"268 341 OFFCURVE",
"246 347 OFFCURVE",
"230 347 CURVE SMOOTH",
"126 345 OFFCURVE",
"48 234 OFFCURVE",
"48 125 CURVE SMOOTH",
"48 101 OFFCURVE",
"52 77 OFFCURVE",
"60 55 CURVE SMOOTH",
"74 17 OFFCURVE",
"107 -10 OFFCURVE",
"146 -10 CURVE"
);
},
{
closed = 1;
nodes = (
"118 34 OFFCURVE",
"107 40 OFFCURVE",
"99 63 CURVE SMOOTH",
"92 85 OFFCURVE",
"93 110 OFFCURVE",
"93 131 CURVE SMOOTH",
"93 211 OFFCURVE",
"157 316 OFFCURVE",
"242 316 CURVE SMOOTH",
"255 316 OFFCURVE",
"268 314 OFFCURVE",
"281 309 CURVE",
"279 264 OFFCURVE",
"269 226 OFFCURVE",
"268 224 CURVE SMOOTH",
"249 171 OFFCURVE",
"199 35 OFFCURVE",
"139 34 CURVE SMOOTH"
);
}
);
width = 380;
}
);
note = eth;
unicode = 00F0;
},
{
glyphname = e;
lastChange = "2022-01-12 01:24:45 +0000";
layers = (
{
background = {
paths = (
{
closed = 1;
nodes = (
"90 137 LINE",
"146 130 OFFCURVE",
"237 137 OFFCURVE",
"299 162 CURVE SMOOTH",
"345 180 OFFCURVE",
"404 218 OFFCURVE",
"404 273 CURVE SMOOTH",
"404 363 OFFCURVE",
"301 377 OFFCURVE",
"209 351 CURVE SMOOTH",
"147 334 OFFCURVE",
"52 255 OFFCURVE",
"35 141 CURVE SMOOTH",
"24 62 OFFCURVE",
"56 -24 OFFCURVE",
"150 -54 CURVE SMOOTH",
"187 -66 OFFCURVE",
"214 -44 OFFCURVE",
"157 -14 CURVE",
"132 6 OFFCURVE",
"80 51 OFFCURVE",
"88 121 CURVE SMOOTH",
"88 126 OFFCURVE",
"89 131 OFFCURVE",
"90 136 CURVE SMOOTH"
);
},
{
closed = 1;
nodes = (
"131 253 OFFCURVE",
"186 295 OFFCURVE",
"214 303 CURVE SMOOTH",
"279 323 OFFCURVE",
"340 319 OFFCURVE",
"346 284 CURVE SMOOTH",
"352 244 OFFCURVE",
"319 216 OFFCURVE",
"287 201 CURVE SMOOTH",
"229 175 OFFCURVE",
"148 177 OFFCURVE",
"103 183 CURVE"
);
}
);
};
layerId = "34A4CA4C-C6E5-4C7E-9ECD-8F87FE1EC3A4";
paths = (
{
closed = 1;
nodes = (
"182 -57 OFFCURVE",
"190 -53 OFFCURVE",
"190 -45 CURVE SMOOTH",
"190 -38 OFFCURVE",
"181 -26 OFFCURVE",
"157 -14 CURVE",
"134 5 OFFCURVE",
"87 45 OFFCURVE",
"87 107 CURVE SMOOTH",
"87 111 OFFCURVE",
"87 116 OFFCURVE",
"88 121 CURVE SMOOTH",
"88 126 OFFCURVE",
"89 131 OFFCURVE",
"90 136 CURVE SMOOTH",
"90 137 LINE",
"104 135 OFFCURVE",
"119 134 OFFCURVE",
"136 134 CURVE SMOOTH",
"188 134 OFFCURVE",
"252 143 OFFCURVE",
"299 162 CURVE SMOOTH",
"345 180 OFFCURVE",
"404 218 OFFCURVE",
"404 273 CURVE SMOOTH",
"404 337 OFFCURVE",
"352 363 OFFCURVE",
"288 363 CURVE SMOOTH",
"263 363 OFFCURVE",
"235 358 OFFCURVE",
"209 351 CURVE SMOOTH",
"147 334 OFFCURVE",
"52 255 OFFCURVE",
"35 141 CURVE SMOOTH",
"34 131 OFFCURVE",
"33 121 OFFCURVE",
"33 111 CURVE SMOOTH",
"33 41 OFFCURVE",
"68 -28 OFFCURVE",
"150 -54 CURVE SMOOTH",
"157 -56 OFFCURVE",
"164 -57 OFFCURVE",
"169 -57 CURVE SMOOTH"
);
},
{
closed = 1;
nodes = (
"140 179 OFFCURVE",
"119 181 OFFCURVE",
"103 183 CURVE",
"131 253 OFFCURVE",
"186 295 OFFCURVE",
"214 303 CURVE SMOOTH",
"240 311 OFFCURVE",
"265 315 OFFCURVE",
"286 315 CURVE SMOOTH",
"319 315 OFFCURVE",
"342 305 OFFCURVE",
"346 284 CURVE SMOOTH",
"352 244 OFFCURVE",
"319 216 OFFCURVE",
"287 201 CURVE SMOOTH",
"250 184 OFFCURVE",
"203 179 OFFCURVE",
"163 179 CURVE SMOOTH"
);
}
);
width = 418;
}
);
note = e;
unicode = 0065;
},
{
glyphname = schwa;
lastChange = "2022-01-12 01:24:45 +0000";
layers = (
{
background = {
paths = (
{
closed = 1;
nodes = (
"328 218 LINE",
"272 225 OFFCURVE",
"181 218 OFFCURVE",
"119 193 CURVE SMOOTH",
"73 175 OFFCURVE",
"14 137 OFFCURVE",
"14 82 CURVE SMOOTH",
"14 -8 OFFCURVE",
"117 -22 OFFCURVE",
"209 4 CURVE SMOOTH",
"271 21 OFFCURVE",
"366 100 OFFCURVE",
"383 214 CURVE SMOOTH",
"394 293 OFFCURVE",
"362 379 OFFCURVE",
"268 409 CURVE SMOOTH",
"233 420 OFFCURVE",
"177 417 OFFCURVE",
"155 412 CURVE SMOOTH",
"131 407 OFFCURVE",
"88 394 OFFCURVE",
"79 384 CURVE SMOOTH",
"74 379 OFFCURVE",
"69 351 OFFCURVE",
"93 351 CURVE SMOOTH",
"116 351 OFFCURVE",
"152 363 OFFCURVE",
"186 369 CURVE SMOOTH",
"216 374 OFFCURVE",
"247 368 OFFCURVE",
"268 359 CURVE SMOOTH",
"313 341 OFFCURVE",
"337 295 OFFCURVE",
"330 234 CURVE SMOOTH",
"330 229 OFFCURVE",
"328 224 OFFCURVE",
"328 219 CURVE SMOOTH"
);
},
{
closed = 1;
nodes = (
"287 102 OFFCURVE",
"232 60 OFFCURVE",
"204 52 CURVE SMOOTH",
"139 32 OFFCURVE",
"78 36 OFFCURVE",
"72 71 CURVE SMOOTH",
"66 111 OFFCURVE",
"99 139 OFFCURVE",
"131 154 CURVE SMOOTH",
"189 180 OFFCURVE",
"270 178 OFFCURVE",
"315 172 CURVE"
);
}
);
};
layerId = "34A4CA4C-C6E5-4C7E-9ECD-8F87FE1EC3A4";
paths = (
{
closed = 1;
nodes = (
"155 -8 OFFCURVE",
"183 -3 OFFCURVE",
"209 4 CURVE SMOOTH",
"271 21 OFFCURVE",
"366 100 OFFCURVE",
"383 214 CURVE SMOOTH",
"384 224 OFFCURVE",
"385 234 OFFCURVE",
"385 244 CURVE SMOOTH",
"385 314 OFFCURVE",
"350 383 OFFCURVE",
"268 409 CURVE SMOOTH",
"251 415 OFFCURVE",
"228 417 OFFCURVE",
"207 417 CURVE SMOOTH",
"186 417 OFFCURVE",
"166 415 OFFCURVE",
"155 412 CURVE SMOOTH",
"131 407 OFFCURVE",
"88 394 OFFCURVE",
"79 384 CURVE SMOOTH",
"77 382 OFFCURVE",
"75 376 OFFCURVE",
"75 370 CURVE SMOOTH",
"75 361 OFFCURVE",
"79 351 OFFCURVE",
"93 351 CURVE SMOOTH",
"116 351 OFFCURVE",
"152 363 OFFCURVE",
"186 369 CURVE SMOOTH",
"194 370 OFFCURVE",
"201 371 OFFCURVE",
"209 371 CURVE SMOOTH",
"231 371 OFFCURVE",
"252 366 OFFCURVE",
"268 359 CURVE SMOOTH",
"308 343 OFFCURVE",
"331 305 OFFCURVE",
"331 254 CURVE SMOOTH",
"331 248 OFFCURVE",
"331 241 OFFCURVE",
"330 234 CURVE SMOOTH",
"330 229 OFFCURVE",
"328 224 OFFCURVE",
"328 219 CURVE SMOOTH",
"328 218 LINE",
"314 220 OFFCURVE",
"299 221 OFFCURVE",
"282 221 CURVE SMOOTH",
"230 221 OFFCURVE",
"166 212 OFFCURVE",
"119 193 CURVE SMOOTH",
"73 175 OFFCURVE",
"14 137 OFFCURVE",
"14 82 CURVE SMOOTH",
"14 18 OFFCURVE",
"66 -8 OFFCURVE",
"130 -8 CURVE SMOOTH"
);
},
{
closed = 1;
nodes = (
"99 40 OFFCURVE",
"76 50 OFFCURVE",
"72 71 CURVE SMOOTH",
"66 111 OFFCURVE",
"99 139 OFFCURVE",
"131 154 CURVE SMOOTH",
"168 171 OFFCURVE",
"215 176 OFFCURVE",
"255 176 CURVE SMOOTH",
"278 176 OFFCURVE",
"299 174 OFFCURVE",
"315 172 CURVE",
"287 102 OFFCURVE",
"232 60 OFFCURVE",
"204 52 CURVE SMOOTH",
"178 44 OFFCURVE",
"153 40 OFFCURVE",
"132 40 CURVE SMOOTH"
);
}
);
width = 418;
}
);
unicode = 0259;
},
{
glyphname = f;
lastChange = "2022-01-12 01:24:45 +0000";
layers = (
{
background = {
paths = (
{
closed = 1;
nodes = (
"136 341 LINE",
"88 212 OFFCURVE",
"43 62 OFFCURVE",
"47 -15 CURVE SMOOTH",
"49 -64 OFFCURVE",
"71 -71 OFFCURVE",
"89 -59 CURVE SMOOTH",
"119 -38 OFFCURVE",
"93 -22 OFFCURVE",
"93 -2 CURVE SMOOTH",
"91 72 OFFCURVE",
"144 246 OFFCURVE",
"184 349 CURVE",
"210 351 OFFCURVE",
"269 351 OFFCURVE",
"315 356 CURVE SMOOTH",
"345 359 OFFCURVE",
"330 389 OFFCURVE",
"317 390 CURVE SMOOTH",
"267 396 OFFCURVE",
"236 396 OFFCURVE",
"203 394 CURVE",
"220 433 OFFCURVE",
"249 495 OFFCURVE",
"260 511 CURVE SMOOTH",
"307 583 OFFCURVE",
"347 592 OFFCURVE",
"385 517 CURVE SMOOTH",
"399 490 OFFCURVE",
"400 473 OFFCURVE",
"410 467 CURVE SMOOTH",
"420 461 OFFCURVE",
"439 467 OFFCURVE",
"438 482 CURVE SMOOTH",
"435 527 OFFCURVE",
"430 546 OFFCURVE",
"408 581 CURVE SMOOTH",
"367 649 OFFCURVE",
"277 631 OFFCURVE",
"232 558 CURVE SMOOTH",
"214 530 OFFCURVE",
"185 467 OFFCURVE",
"155 391 CURVE",
"149 391 LINE SMOOTH",
"137 391 OFFCURVE",
"119 371 OFFCURVE",
"124 354 CURVE",
"125 346 OFFCURVE",
"129 342 OFFCURVE",
"135 341 CURVE SMOOTH"
);
}
);
};
layerId = "34A4CA4C-C6E5-4C7E-9ECD-8F87FE1EC3A4";
paths = (
{
closed = 1;
nodes = (
"79 -64 OFFCURVE",
"84 -62 OFFCURVE",
"89 -59 CURVE SMOOTH",
"100 -51 OFFCURVE",
"103 -44 OFFCURVE",
"103 -38 CURVE SMOOTH",
"103 -26 OFFCURVE",
"93 -15 OFFCURVE",
"93 -2 CURVE SMOOTH",
"91 72 OFFCURVE",
"144 246 OFFCURVE",
"184 349 CURVE",
"210 351 OFFCURVE",
"269 351 OFFCURVE",
"315 356 CURVE SMOOTH",
"328 357 OFFCURVE",
"332 364 OFFCURVE",
"332 370 CURVE SMOOTH",
"332 379 OFFCURVE",
"324 389 OFFCURVE",
"317 390 CURVE SMOOTH",
"285 394 OFFCURVE",
"261 395 OFFCURVE",
"239 395 CURVE SMOOTH",
"227 395 OFFCURVE",
"215 395 OFFCURVE",
"203 394 CURVE",
"220 433 OFFCURVE",
"249 495 OFFCURVE",
"260 511 CURVE SMOOTH",
"285 549 OFFCURVE",
"307 569 OFFCURVE",
"329 569 CURVE SMOOTH",
"348 569 OFFCURVE",
"367 553 OFFCURVE",
"385 517 CURVE SMOOTH",
"402 484 OFFCURVE",
"400 465 OFFCURVE",
"419 465 CURVE SMOOTH",
"428 465 OFFCURVE",
"439 471 OFFCURVE",
"438 482 CURVE SMOOTH",
"435 527 OFFCURVE",
"430 546 OFFCURVE",
"408 581 CURVE SMOOTH",
"390 610 OFFCURVE",
"364 623 OFFCURVE",
"336 623 CURVE SMOOTH",
"298 623 OFFCURVE",
"258 600 OFFCURVE",
"232 558 CURVE SMOOTH",
"214 530 OFFCURVE",
"185 467 OFFCURVE",
"155 391 CURVE",
"149 391 LINE SMOOTH",
"137 391 OFFCURVE",
"119 371 OFFCURVE",
"124 354 CURVE",
"125 346 OFFCURVE",
"129 342 OFFCURVE",
"135 341 CURVE SMOOTH",
"136 341 LINE",
"90 217 OFFCURVE",
"47 74 OFFCURVE",
"47 -5 CURVE SMOOTH",
"47 -49 OFFCURVE",
"60 -64 OFFCURVE",
"74 -64 CURVE SMOOTH"
);
}
);
width = 249;
}
);
note = f;
unicode = 0066;
},
{
glyphname = g;
lastChange = "2022-01-12 01:24:45 +0000";
layers = (
{
background = {
paths = (
{
closed = 1;
nodes = (
"268 -259 LINE",
"309 -215 OFFCURVE",
"351 -152 OFFCURVE",
"379 -89 CURVE SMOOTH",
"419 2 OFFCURVE",
"446 116 OFFCURVE",
"461 166 CURVE SMOOTH",
"472 200 OFFCURVE",
"441 215 OFFCURVE",
"426 199 CURVE SMOOTH",
"362 132 OFFCURVE",
"324 60 OFFCURVE",
"196 50 CURVE SMOOTH",
"86 42 OFFCURVE",
"57 143 OFFCURVE",
"98 199 CURVE SMOOTH",
"141 258 OFFCURVE",
"244 334 OFFCURVE",
"360 326 CURVE",
"394 313 OFFCURVE",
"419 291 OFFCURVE",
"423 321 CURVE",
"423 349 OFFCURVE",
"418 380 OFFCURVE",
"363 381 CURVE SMOOTH",
"216 385 OFFCURVE",
"109 291 OFFCURVE",
"59 226 CURVE SMOOTH",
"-11 137 OFFCURVE",
"36 -8 OFFCURVE",
"195 9 CURVE SMOOTH",
"302 20 OFFCURVE",
"341 42 OFFCURVE",
"386 82 CURVE",
"359 4 OFFCURVE",
"343 -95 OFFCURVE",
"257 -192 CURVE SMOOTH",
"240 -211 OFFCURVE",
"201 -242 OFFCURVE",
"178 -234 CURVE SMOOTH",
"165 -228 OFFCURVE",
"151 -198 OFFCURVE",
"142 -194 CURVE SMOOTH",
"125 -187 OFFCURVE",
"106 -198 OFFCURVE",
"107 -223 CURVE SMOOTH",
"107 -245 OFFCURVE",
"120 -268 OFFCURVE",
"147 -276 CURVE SMOOTH",
"191 -288 OFFCURVE",
"245 -285 OFFCURVE",
"269 -259 CURVE"
);
}
);
};
layerId = "34A4CA4C-C6E5-4C7E-9ECD-8F87FE1EC3A4";
paths = (
{
closed = 1;
nodes = (
"226 -283 OFFCURVE",
"254 -276 OFFCURVE",
"269 -259 CURVE",
"268 -259 LINE",
"309 -215 OFFCURVE",
"351 -152 OFFCURVE",
"379 -89 CURVE SMOOTH",
"419 2 OFFCURVE",
"446 116 OFFCURVE",
"461 166 CURVE SMOOTH",
"463 171 OFFCURVE",
"463 176 OFFCURVE",
"463 180 CURVE SMOOTH",
"463 196 OFFCURVE",
"452 205 OFFCURVE",
"441 205 CURVE SMOOTH",
"435 205 OFFCURVE",
"430 203 OFFCURVE",
"426 199 CURVE SMOOTH",
"362 132 OFFCURVE",
"324 60 OFFCURVE",
"196 50 CURVE SMOOTH",
"118 44 OFFCURVE",
"80 94 OFFCURVE",
"80 143 CURVE SMOOTH",
"80 163 OFFCURVE",
"86 183 OFFCURVE",
"98 199 CURVE SMOOTH",
"141 258 OFFCURVE",
"244 334 OFFCURVE",
"360 326 CURVE",
"381 318 OFFCURVE",
"399 306 OFFCURVE",
"411 306 CURVE SMOOTH",
"417 306 OFFCURVE",
"422 310 OFFCURVE",
"423 321 CURVE SMOOTH",
"423 349 OFFCURVE",
"418 380 OFFCURVE",
"363 381 CURVE SMOOTH",
"216 385 OFFCURVE",
"109 291 OFFCURVE",
"59 226 CURVE SMOOTH",
"38 199 OFFCURVE",
"27 167 OFFCURVE",
"27 136 CURVE SMOOTH",
"27 70 OFFCURVE",
"75 8 OFFCURVE",
"170 8 CURVE SMOOTH",
"178 8 OFFCURVE",
"186 8 OFFCURVE",
"195 9 CURVE SMOOTH",
"302 20 OFFCURVE",
"341 42 OFFCURVE",
"386 82 CURVE",
"359 4 OFFCURVE",
"343 -95 OFFCURVE",
"257 -192 CURVE SMOOTH",
"242 -209 OFFCURVE",
"209 -235 OFFCURVE",
"186 -235 CURVE SMOOTH",
"183 -235 OFFCURVE",
"181 -235 OFFCURVE",
"178 -234 CURVE SMOOTH",
"165 -228 OFFCURVE",
"151 -198 OFFCURVE",
"142 -194 CURVE SMOOTH",
"138 -193 OFFCURVE",
"135 -192 OFFCURVE",
"131 -192 CURVE SMOOTH",
"118 -192 OFFCURVE",
"107 -202 OFFCURVE",
"107 -221 CURVE SMOOTH",
"107 -244 OFFCURVE",
"119 -268 OFFCURVE",
"147 -276 CURVE SMOOTH",
"163 -280 OFFCURVE",
"180 -283 OFFCURVE",
"197 -283 CURVE SMOOTH"
);
}
);
width = 523;
}
);
note = g;
unicode = 0067;
},
{
glyphname = h;
lastChange = "2022-01-12 14:31:04 +0000";
layers = (
{
background = {
paths = (
{
closed = 1;
nodes = (
"117 208 LINE",
"106 197 OFFCURVE",
"107 199 OFFCURVE",
"92 176 CURVE",
"110 242 OFFCURVE",
"117 290 OFFCURVE",
"182 428 CURVE SMOOTH",
"196 458 OFFCURVE",
"218 479 OFFCURVE",
"231 501 CURVE SMOOTH",
"241 516 OFFCURVE",
"249 551 OFFCURVE",
"251 564 CURVE SMOOTH",
"255 595 OFFCURVE",
"218 605 OFFCURVE",
"203 577 CURVE SMOOTH",
"146 469 OFFCURVE",
"44 207 OFFCURVE",
"26 98 CURVE SMOOTH",
"21 64 OFFCURVE",
"48 53 OFFCURVE",
"63 74 CURVE",
"62 74 OFFCURVE",
"69 95 OFFCURVE",
"103 132 CURVE SMOOTH",
"151 184 OFFCURVE",
"256 267 OFFCURVE",
"310 284 CURVE SMOOTH",
"341 293 OFFCURVE",
"332 245 OFFCURVE",
"299 169 CURVE SMOOTH",
"274 113 OFFCURVE",
"241 -19 OFFCURVE",
"309 -24 CURVE SMOOTH",
"330 -25 OFFCURVE",
"324 9 OFFCURVE",
"313 26 CURVE",
"317 57 OFFCURVE",
"332 115 OFFCURVE",
"351 160 CURVE SMOOTH",
"429 342 OFFCURVE",
"337 346 OFFCURVE",
"298 328 CURVE SMOOTH",
"228 297 OFFCURVE",
"171 262 OFFCURVE",
"116 208 CURVE"
);
}
);
};
guideLines = (
{
position = "{-207, 365}";
}
);
layerId = "34A4CA4C-C6E5-4C7E-9ECD-8F87FE1EC3A4";
paths = (
{
closed = 1;
nodes = (
"319 -24 OFFCURVE",
"323 -17 OFFCURVE",
"323 -7 CURVE SMOOTH",
"323 4 OFFCURVE",
"319 17 OFFCURVE",
"313 26 CURVE",
"317 57 OFFCURVE",
"332 115 OFFCURVE",
"351 160 CURVE SMOOTH",
"373 211 OFFCURVE",
"381 248 OFFCURVE",
"381 275 CURVE SMOOTH",
"381 321 OFFCURVE",
"355 335 OFFCURVE",
"330 335 CURVE SMOOTH",
"318 335 OFFCURVE",
"307 332 OFFCURVE",
"298 328 CURVE SMOOTH",
"228 297 OFFCURVE",
"171 262 OFFCURVE",
"116 208 CURVE",
"117 208 LINE",
"106 197 OFFCURVE",
"107 199 OFFCURVE",
"92 176 CURVE",
"110 242 OFFCURVE",
"117 290 OFFCURVE",
"182 428 CURVE SMOOTH",
"196 458 OFFCURVE",
"218 479 OFFCURVE",
"231 501 CURVE SMOOTH",
"242 518 OFFCURVE",
"251 560 OFFCURVE",
"251 568 CURVE SMOOTH",
"251 584 OFFCURVE",
"240 593 OFFCURVE",
"228 593 CURVE SMOOTH",
"219 593 OFFCURVE",
"209 588 OFFCURVE",
"203 577 CURVE SMOOTH",
"146 469 OFFCURVE",
"44 207 OFFCURVE",
"26 98 CURVE SMOOTH",
"23 76 OFFCURVE",
"33 63 OFFCURVE",
"45 63 CURVE SMOOTH",
"51 63 OFFCURVE",
"58 67 OFFCURVE",
"63 74 CURVE",
"62 74 OFFCURVE",
"69 95 OFFCURVE",
"103 132 CURVE SMOOTH",
"151 184 OFFCURVE",
"256 267 OFFCURVE",
"310 284 CURVE SMOOTH",
"323 288 OFFCURVE",
"329 281 OFFCURVE",
"329 267 CURVE SMOOTH",
"329 247 OFFCURVE",
"318 213 OFFCURVE",
"299 169 CURVE SMOOTH",
"285 138 OFFCURVE",
"269 83 OFFCURVE",
"269 40 CURVE SMOOTH",
"269 5 OFFCURVE",
"279 -22 OFFCURVE",
"309 -24 CURVE SMOOTH"
);
}
);
width = 389;
}
);
note = h;
unicode = 0068;
},
{
glyphname = i;
lastChange = "2022-01-12 01:24:45 +0000";
layers = (
{
background = {
paths = (
{
closed = 1;
nodes = (
"195 418 LINE",
"190 398 OFFCURVE",
"213 371 OFFCURVE",
"223 383 CURVE SMOOTH",
"244 409 OFFCURVE",
"255 435 OFFCURVE",
"259 441 CURVE SMOOTH",
"271 462 OFFCURVE",
"238 478 OFFCURVE",
"222 463 CURVE SMOOTH",
"209 450 OFFCURVE",
"201 438 OFFCURVE",
"196 418 CURVE"
);
},
{
closed = 1;
nodes = (
"184 311 OFFCURVE",
"130 325 OFFCURVE",
"121 294 CURVE SMOOTH",
"92 195 OFFCURVE",
"63 172 OFFCURVE",
"53 67 CURVE SMOOTH",
"48 18 OFFCURVE",
"95 6 OFFCURVE",
"113 18 CURVE SMOOTH",
"142 39 OFFCURVE",
"97 63 OFFCURVE",
"97 68 CURVE SMOOTH",
"103 162 OFFCURVE",
"140 169 OFFCURVE",
"175 281 CURVE SMOOTH"
);
}
);
};
layerId = "34A4CA4C-C6E5-4C7E-9ECD-8F87FE1EC3A4";
paths = (
{
closed = 1;
nodes = (
"103 14 OFFCURVE",
"109 15 OFFCURVE",
"113 18 CURVE SMOOTH",
"120 23 OFFCURVE",
"123 28 OFFCURVE",
"123 34 CURVE SMOOTH",
"123 50 OFFCURVE",
"97 64 OFFCURVE",
"97 68 CURVE SMOOTH",
"103 162 OFFCURVE",
"140 169 OFFCURVE",
"175 281 CURVE SMOOTH",
"180 299 OFFCURVE",
"163 311 OFFCURVE",
"146 311 CURVE SMOOTH",
"135 311 OFFCURVE",
"125 306 OFFCURVE",
"121 294 CURVE SMOOTH",
"92 195 OFFCURVE",
"63 172 OFFCURVE",
"53 67 CURVE SMOOTH",
"49 30 OFFCURVE",
"76 14 OFFCURVE",
"97 14 CURVE SMOOTH"
);
},
{
closed = 1;
nodes = (
"244 409 OFFCURVE",
"255 435 OFFCURVE",
"259 441 CURVE SMOOTH",
"261 444 OFFCURVE",
"262 447 OFFCURVE",
"262 450 CURVE SMOOTH",
"262 461 OFFCURVE",
"250 469 OFFCURVE",
"238 469 CURVE SMOOTH",
"232 469 OFFCURVE",
"226 467 OFFCURVE",
"222 463 CURVE SMOOTH",
"209 450 OFFCURVE",
"201 438 OFFCURVE",
"196 418 CURVE",
"195 418 LINE",
"190 398 OFFCURVE",
"213 371 OFFCURVE",
"223 383 CURVE SMOOTH"
);
}
);
width = 199;
}
);
note = i;
unicode = 0069;
},
{
color = 11;
glyphname = idotless;
lastChange = "2022-01-12 01:24:45 +0000";
layers = (
{
background = {
paths = (
{
closed = 1;
nodes = (
"184 311 OFFCURVE",
"130 325 OFFCURVE",
"121 294 CURVE SMOOTH",
"92 195 OFFCURVE",
"63 172 OFFCURVE",
"53 67 CURVE SMOOTH",
"48 18 OFFCURVE",
"95 6 OFFCURVE",
"113 18 CURVE SMOOTH",
"142 39 OFFCURVE",
"97 63 OFFCURVE",
"97 68 CURVE SMOOTH",
"103 162 OFFCURVE",
"140 169 OFFCURVE",
"175 281 CURVE SMOOTH"
);
}
);
};
layerId = "34A4CA4C-C6E5-4C7E-9ECD-8F87FE1EC3A4";
paths = (
{
closed = 1;
nodes = (
"103 14 OFFCURVE",
"109 15 OFFCURVE",
"113 18 CURVE SMOOTH",
"120 23 OFFCURVE",
"123 28 OFFCURVE",
"123 34 CURVE SMOOTH",
"123 50 OFFCURVE",
"97 64 OFFCURVE",
"97 68 CURVE SMOOTH",
"103 162 OFFCURVE",
"140 169 OFFCURVE",
"175 281 CURVE SMOOTH",
"180 299 OFFCURVE",
"163 311 OFFCURVE",
"146 311 CURVE SMOOTH",
"135 311 OFFCURVE",
"125 306 OFFCURVE",
"121 294 CURVE SMOOTH",
"92 195 OFFCURVE",
"63 172 OFFCURVE",
"53 67 CURVE SMOOTH",
"49 30 OFFCURVE",
"76 14 OFFCURVE",
"97 14 CURVE SMOOTH"
);
}
);
width = 199;
}
);
note = dotlessi;
unicode = 0131;
},
{
glyphname = j;
lastChange = "2022-01-12 01:24:45 +0000";
layers = (
{
background = {
paths = (
{
closed = 1;
nodes = (
"219 418 LINE",
"214 398 OFFCURVE",
"237 371 OFFCURVE",
"247 383 CURVE SMOOTH",
"268 409 OFFCURVE",
"279 435 OFFCURVE",
"283 441 CURVE SMOOTH",
"295 462 OFFCURVE",
"262 478 OFFCURVE",
"246 463 CURVE SMOOTH",
"233 450 OFFCURVE",
"225 438 OFFCURVE",
"220 418 CURVE"
);
},
{
closed = 1;
nodes = (
"69 -148 OFFCURVE",
"167 182 OFFCURVE",
"197 268 CURVE SMOOTH",
"208 298 OFFCURVE",
"155 318 OFFCURVE",
"145 288 CURVE SMOOTH",
"140 275 OFFCURVE",
"126 263 OFFCURVE",
"122 246 CURVE SMOOTH",
"114 215 OFFCURVE",
"121 173 OFFCURVE",
"107 136 CURVE SMOOTH",
"72 45 OFFCURVE",
"16 -139 OFFCURVE",
"-27 -192 CURVE SMOOTH",
"-44 -212 OFFCURVE",
"-57 -220 OFFCURVE",
"-80 -212 CURVE SMOOTH",
"-93 -207 OFFCURVE",
"-109 -178 OFFCURVE",
"-119 -176 CURVE SMOOTH",
"-148 -172 OFFCURVE",
"-146 -168 OFFCURVE",
"-145 -203 CURVE SMOOTH",
"-144 -223 OFFCURVE",
"-134 -240 OFFCURVE",
"-107 -248 CURVE SMOOTH",
"-64 -260 OFFCURVE",
"-38 -260 OFFCURVE",
"-14 -235 CURVE SMOOTH"
);
}
);
};
layerId = "34A4CA4C-C6E5-4C7E-9ECD-8F87FE1EC3A4";
paths = (
{
closed = 1;
nodes = (
"-43 -256 OFFCURVE",
"-28 -250 OFFCURVE",
"-14 -235 CURVE SMOOTH",
"69 -148 OFFCURVE",
"167 182 OFFCURVE",
"197 268 CURVE SMOOTH",
"198 271 OFFCURVE",
"198 274 OFFCURVE",
"198 276 CURVE SMOOTH",
"198 292 OFFCURVE",
"182 303 OFFCURVE",
"167 303 CURVE SMOOTH",
"157 303 OFFCURVE",
"148 298 OFFCURVE",
"145 288 CURVE SMOOTH",
"140 275 OFFCURVE",
"126 263 OFFCURVE",
"122 246 CURVE SMOOTH",
"114 215 OFFCURVE",
"121 173 OFFCURVE",
"107 136 CURVE SMOOTH",
"72 45 OFFCURVE",
"16 -139 OFFCURVE",
"-27 -192 CURVE SMOOTH",
"-40 -207 OFFCURVE",
"-50 -215 OFFCURVE",
"-64 -215 CURVE SMOOTH",
"-69 -215 OFFCURVE",
"-74 -214 OFFCURVE",
"-80 -212 CURVE SMOOTH",
"-93 -207 OFFCURVE",
"-109 -178 OFFCURVE",
"-119 -176 CURVE SMOOTH",
"-128 -175 OFFCURVE",
"-134 -174 OFFCURVE",
"-138 -174 CURVE SMOOTH",
"-144 -174 OFFCURVE",
"-145 -176 OFFCURVE",
"-145 -186 CURVE SMOOTH",
"-145 -203 LINE SMOOTH",
"-144 -223 OFFCURVE",
"-134 -240 OFFCURVE",
"-107 -248 CURVE SMOOTH",
"-89 -253 OFFCURVE",
"-75 -256 OFFCURVE",
"-62 -256 CURVE SMOOTH"
);
},
{
closed = 1;
nodes = (
"268 409 OFFCURVE",
"279 435 OFFCURVE",
"283 441 CURVE SMOOTH",
"285 444 OFFCURVE",
"286 447 OFFCURVE",
"286 450 CURVE SMOOTH",
"286 461 OFFCURVE",
"274 469 OFFCURVE",
"262 469 CURVE SMOOTH",
"256 469 OFFCURVE",
"250 467 OFFCURVE",
"246 463 CURVE SMOOTH",
"233 450 OFFCURVE",
"225 438 OFFCURVE",
"220 418 CURVE",
"219 418 LINE",
"214 398 OFFCURVE",
"237 371 OFFCURVE",
"247 383 CURVE SMOOTH"
);
}
);
width = 232;
}
);
note = j;
unicode = 006A;
},
{
color = 11;
glyphname = jdotless;
lastChange = "2022-01-12 01:24:45 +0000";
layers = (
{
background = {
paths = (
{
closed = 1;
nodes = (
"69 -148 OFFCURVE",
"167 182 OFFCURVE",
"197 268 CURVE SMOOTH",
"208 298 OFFCURVE",
"155 318 OFFCURVE",
"145 288 CURVE SMOOTH",
"140 275 OFFCURVE",
"126 263 OFFCURVE",
"122 246 CURVE SMOOTH",
"114 215 OFFCURVE",
"121 173 OFFCURVE",
"107 136 CURVE SMOOTH",
"72 45 OFFCURVE",
"16 -139 OFFCURVE",
"-27 -192 CURVE SMOOTH",
"-44 -212 OFFCURVE",
"-57 -220 OFFCURVE",
"-80 -212 CURVE SMOOTH",
"-93 -207 OFFCURVE",
"-109 -178 OFFCURVE",
"-119 -176 CURVE SMOOTH",
"-148 -172 OFFCURVE",
"-146 -168 OFFCURVE",
"-145 -203 CURVE SMOOTH",
"-144 -223 OFFCURVE",
"-134 -240 OFFCURVE",
"-107 -248 CURVE SMOOTH",
"-64 -260 OFFCURVE",
"-38 -260 OFFCURVE",
"-14 -235 CURVE SMOOTH"
);
}
);
};
layerId = "34A4CA4C-C6E5-4C7E-9ECD-8F87FE1EC3A4";
paths = (
{
closed = 1;
nodes = (
"-43 -256 OFFCURVE",
"-28 -250 OFFCURVE",
"-14 -235 CURVE SMOOTH",
"69 -148 OFFCURVE",
"167 182 OFFCURVE",
"197 268 CURVE SMOOTH",
"198 271 OFFCURVE",
"198 274 OFFCURVE",
"198 276 CURVE SMOOTH",
"198 292 OFFCURVE",
"182 303 OFFCURVE",
"167 303 CURVE SMOOTH",
"157 303 OFFCURVE",
"148 298 OFFCURVE",
"145 288 CURVE SMOOTH",
"140 275 OFFCURVE",
"126 263 OFFCURVE",
"122 246 CURVE SMOOTH",
"114 215 OFFCURVE",
"121 173 OFFCURVE",
"107 136 CURVE SMOOTH",
"72 45 OFFCURVE",
"16 -139 OFFCURVE",
"-27 -192 CURVE SMOOTH",
"-40 -207 OFFCURVE",
"-50 -215 OFFCURVE",
"-64 -215 CURVE SMOOTH",
"-69 -215 OFFCURVE",
"-74 -214 OFFCURVE",
"-80 -212 CURVE SMOOTH",
"-93 -207 OFFCURVE",
"-109 -178 OFFCURVE",
"-119 -176 CURVE SMOOTH",
"-128 -175 OFFCURVE",
"-134 -174 OFFCURVE",
"-138 -174 CURVE SMOOTH",
"-144 -174 OFFCURVE",
"-145 -176 OFFCURVE",
"-145 -186 CURVE SMOOTH",
"-145 -203 LINE SMOOTH",
"-144 -223 OFFCURVE",
"-134 -240 OFFCURVE",
"-107 -248 CURVE SMOOTH",
"-89 -253 OFFCURVE",
"-75 -256 OFFCURVE",
"-62 -256 CURVE SMOOTH"
);
}
);
width = 232;
}
);
unicode = 0237;
},
{
glyphname = k;
lastChange = "2022-01-12 01:24:45 +0000";
layers = (
{
background = {
paths = (
{
closed = 1;
nodes = (
"105 117 LINE",
"136 68 OFFCURVE",
"227 21 OFFCURVE",
"272 5 CURVE SMOOTH",
"303 -6 OFFCURVE",
"337 34 OFFCURVE",
"266 57 CURVE SMOOTH",
"231 69 OFFCURVE",
"152 126 OFFCURVE",
"144 154 CURVE",
"135 150 OFFCURVE",
"158 182 OFFCURVE",
"186 193 CURVE",
"232 217 OFFCURVE",
"310 251 OFFCURVE",
"348 255 CURVE SMOOTH",
"363 257 OFFCURVE",
"380 262 OFFCURVE",
"381 286 CURVE SMOOTH",
"383 318 OFFCURVE",
"358 307 OFFCURVE",
"341 305 CURVE SMOOTH",
"290 297 OFFCURVE",
"213 261 OFFCURVE",
"165 237 CURVE SMOOTH",
"156 232 OFFCURVE",
"145 226 OFFCURVE",
"134 219 CURVE",
"172 332 OFFCURVE",
"234 456 OFFCURVE",
"275 505 CURVE SMOOTH",
"317 557 OFFCURVE",
"242 565 OFFCURVE",
"218 519 CURVE SMOOTH",
"161 411 OFFCURVE",
"81 274 OFFCURVE",
"38 27 CURVE SMOOTH",
"28 -31 OFFCURVE",
"78 -37 OFFCURVE",
"96 -25 CURVE SMOOTH",
"125 -4 OFFCURVE",
"90 11 OFFCURVE",
"90 22 CURVE SMOOTH",
"89 44 OFFCURVE",
"99 87 OFFCURVE",
"104 117 CURVE"
);
}
);
};
layerId = "34A4CA4C-C6E5-4C7E-9ECD-8F87FE1EC3A4";
paths = (
{
closed = 1;
nodes = (
"84 -30 OFFCURVE",
"91 -28 OFFCURVE",
"96 -25 CURVE SMOOTH",
"104 -19 OFFCURVE",
"107 -13 OFFCURVE",
"107 -8 CURVE SMOOTH",
"107 4 OFFCURVE",
"90 14 OFFCURVE",
"90 22 CURVE SMOOTH",
"89 44 OFFCURVE",
"99 87 OFFCURVE",
"104 117 CURVE",
"105 117 LINE",
"136 68 OFFCURVE",
"227 21 OFFCURVE",
"272 5 CURVE SMOOTH",
"275 4 OFFCURVE",
"279 3 OFFCURVE",
"282 3 CURVE SMOOTH",
"296 3 OFFCURVE",
"308 12 OFFCURVE",
"308 23 CURVE SMOOTH",
"308 34 OFFCURVE",
"297 47 OFFCURVE",
"266 57 CURVE SMOOTH",
"231 69 OFFCURVE",
"152 126 OFFCURVE",
"144 154 CURVE",
"135 150 OFFCURVE",
"158 182 OFFCURVE",
"186 193 CURVE",
"232 217 OFFCURVE",
"310 251 OFFCURVE",
"348 255 CURVE SMOOTH",
"364 257 OFFCURVE",
"381 262 OFFCURVE",
"381 289 CURVE SMOOTH",
"381 304 OFFCURVE",
"374 308 OFFCURVE",
"365 308 CURVE SMOOTH",
"357 308 OFFCURVE",
"348 306 OFFCURVE",
"341 305 CURVE SMOOTH",
"290 297 OFFCURVE",
"213 261 OFFCURVE",
"165 237 CURVE SMOOTH",
"156 232 OFFCURVE",
"145 226 OFFCURVE",
"134 219 CURVE",
"172 332 OFFCURVE",
"234 456 OFFCURVE",
"275 505 CURVE SMOOTH",
"284 516 OFFCURVE",
"287 525 OFFCURVE",
"287 532 CURVE SMOOTH",
"287 543 OFFCURVE",
"278 549 OFFCURVE",
"265 549 CURVE SMOOTH",
"249 549 OFFCURVE",
"229 539 OFFCURVE",
"218 519 CURVE SMOOTH",
"161 411 OFFCURVE",
"81 274 OFFCURVE",
"38 27 CURVE SMOOTH",
"37 22 OFFCURVE",
"37 17 OFFCURVE",
"37 13 CURVE SMOOTH",
"37 -19 OFFCURVE",
"58 -30 OFFCURVE",
"77 -30 CURVE SMOOTH"
);
}
);
width = 340;
}
);
note = k;
unicode = 006B;
},
{
glyphname = kgreenlandic;
lastChange = "2022-01-12 01:24:45 +0000";
layers = (
{
background = {
paths = (
{
closed = 1;
nodes = (
"136 68 OFFCURVE",
"254 -11 OFFCURVE",
"299 -27 CURVE SMOOTH",
"330 -38 OFFCURVE",
"364 8 OFFCURVE",
"293 31 CURVE SMOOTH",
"258 43 OFFCURVE",
"152 126 OFFCURVE",
"132 172 CURVE",
"152 185 OFFCURVE",
"242 226 OFFCURVE",
"260 236 CURVE SMOOTH",
"299 257 OFFCURVE",
"334 262 OFFCURVE",
"335 286 CURVE SMOOTH",
"337 318 OFFCURVE",
"312 311 OFFCURVE",
"295 305 CURVE SMOOTH",
"262 294 OFFCURVE",
"169 242 OFFCURVE",
"134 219 CURVE",
"148 262 OFFCURVE",
"188 374 OFFCURVE",
"213 404 CURVE SMOOTH",
"255 456 OFFCURVE",
"180 464 OFFCURVE",
"156 418 CURVE SMOOTH",
"125 361 OFFCURVE",
"81 274 OFFCURVE",
"38 27 CURVE SMOOTH",
"28 -31 OFFCURVE",
"78 -37 OFFCURVE",
"96 -25 CURVE SMOOTH",
"125 -4 OFFCURVE",
"90 11 OFFCURVE",
"90 22 CURVE SMOOTH",
"89 44 OFFCURVE",
"99 87 OFFCURVE",
"104 117 CURVE"
);
}
);
};
layerId = "34A4CA4C-C6E5-4C7E-9ECD-8F87FE1EC3A4";
paths = (
{
closed = 1;
nodes = (
"84 -30 OFFCURVE",
"91 -28 OFFCURVE",
"96 -25 CURVE SMOOTH",
"104 -19 OFFCURVE",
"107 -13 OFFCURVE",
"107 -8 CURVE SMOOTH",
"107 4 OFFCURVE",
"90 14 OFFCURVE",
"90 22 CURVE SMOOTH",
"89 44 OFFCURVE",
"99 87 OFFCURVE",
"104 117 CURVE",
"136 68 OFFCURVE",
"254 -11 OFFCURVE",
"299 -27 CURVE SMOOTH",
"302 -28 OFFCURVE",
"305 -29 OFFCURVE",
"308 -29 CURVE SMOOTH",
"322 -29 OFFCURVE",
"335 -18 OFFCURVE",
"335 -6 CURVE SMOOTH",
"335 7 OFFCURVE",
"324 21 OFFCURVE",
"293 31 CURVE SMOOTH",
"258 43 OFFCURVE",
"152 126 OFFCURVE",
"132 172 CURVE",
"152 185 OFFCURVE",
"242 226 OFFCURVE",
"260 236 CURVE SMOOTH",
"299 257 OFFCURVE",
"334 262 OFFCURVE",
"335 286 CURVE SMOOTH",
"336 305 OFFCURVE",
"328 310 OFFCURVE",
"318 310 CURVE SMOOTH",
"310 310 OFFCURVE",
"302 307 OFFCURVE",
"295 305 CURVE SMOOTH",
"262 294 OFFCURVE",
"169 242 OFFCURVE",
"134 219 CURVE",
"148 262 OFFCURVE",
"188 374 OFFCURVE",
"213 404 CURVE SMOOTH",
"222 415 OFFCURVE",
"225 424 OFFCURVE",
"225 431 CURVE SMOOTH",
"225 442 OFFCURVE",
"216 448 OFFCURVE",
"203 448 CURVE SMOOTH",
"187 448 OFFCURVE",
"167 438 OFFCURVE",
"156 418 CURVE SMOOTH",
"125 361 OFFCURVE",
"81 274 OFFCURVE",
"38 27 CURVE SMOOTH",
"37 22 OFFCURVE",
"37 17 OFFCURVE",
"37 13 CURVE SMOOTH",
"37 -19 OFFCURVE",
"58 -30 OFFCURVE",
"77 -30 CURVE SMOOTH"
);
}
);
width = 340;
}
);
unicode = 0138;
},
{
glyphname = l;
lastChange = "2022-01-12 01:24:45 +0000";
layers = (
{
background = {
paths = (
{
closed = 1;
nodes = (
"297 595 OFFCURVE",
"260 605 OFFCURVE",
"245 577 CURVE SMOOTH",
"188 469 OFFCURVE",
"51 129 OFFCURVE",
"41 24 CURVE SMOOTH",
"37 -25 OFFCURVE",
"84 -37 OFFCURVE",
"102 -25 CURVE SMOOTH",
"131 -4 OFFCURVE",
"85 17 OFFCURVE",
"86 37 CURVE SMOOTH",
"91 105 OFFCURVE",
"160 290 OFFCURVE",
"225 428 CURVE SMOOTH",
"239 458 OFFCURVE",
"261 479 OFFCURVE",
"274 501 CURVE SMOOTH",
"283 516 OFFCURVE",
"291 551 OFFCURVE",
"293 564 CURVE SMOOTH"
);
}
);
};
layerId = "34A4CA4C-C6E5-4C7E-9ECD-8F87FE1EC3A4";
paths = (
{
closed = 1;
nodes = (
"92 -29 OFFCURVE",
"98 -28 OFFCURVE",
"102 -25 CURVE SMOOTH",
"109 -20 OFFCURVE",
"112 -15 OFFCURVE",
"112 -10 CURVE SMOOTH",
"112 6 OFFCURVE",
"85 22 OFFCURVE",
"86 37 CURVE SMOOTH",
"91 105 OFFCURVE",
"160 290 OFFCURVE",
"225 428 CURVE SMOOTH",
"239 458 OFFCURVE",
"261 479 OFFCURVE",
"274 501 CURVE SMOOTH",
"283 516 OFFCURVE",
"291 551 OFFCURVE",
"293 564 CURVE SMOOTH",
"295 582 OFFCURVE",
"283 593 OFFCURVE",
"270 593 CURVE SMOOTH",
"261 593 OFFCURVE",
"251 588 OFFCURVE",
"245 577 CURVE SMOOTH",
"188 469 OFFCURVE",
"51 129 OFFCURVE",
"41 24 CURVE SMOOTH",
"38 -13 OFFCURVE",
"65 -29 OFFCURVE",
"86 -29 CURVE SMOOTH"
);
}
);
width = 212;
}
);
note = l;
unicode = 006C;
},
{
glyphname = m;
lastChange = "2022-01-12 14:29:33 +0000";
layers = (
{
background = {
paths = (
{
closed = 1;
nodes = (
"318 162 LINE SMOOTH",
"318 157 OFFCURVE",
"318 154 OFFCURVE",
"318 153 CURVE",
"317 153 OFFCURVE",
"314 144 OFFCURVE",
"303 81 CURVE SMOOTH",
"297 46 OFFCURVE",
"333 42 OFFCURVE",
"351 63 CURVE SMOOTH",
"360 73 OFFCURVE",
"377 108 OFFCURVE",
"396 129 CURVE SMOOTH",
"448 186 OFFCURVE",
"539 257 OFFCURVE",
"595 274 CURVE SMOOTH",
"627 284 OFFCURVE",
"633 268 OFFCURVE",
"597 188 CURVE SMOOTH",
"571 130 OFFCURVE",
"535 -9 OFFCURVE",
"606 -14 CURVE SMOOTH",
"629 -16 OFFCURVE",
"622 20 OFFCURVE",
"610 38 CURVE",
"615 72 OFFCURVE",
"630 132 OFFCURVE",
"650 179 CURVE SMOOTH",
"733 371 OFFCURVE",
"623 339 OFFCURVE",
"582 321 CURVE SMOOTH",
"509 288 OFFCURVE",
"479 268 OFFCURVE",
"421 210 CURVE SMOOTH",
"403 192 OFFCURVE",
"392 178 OFFCURVE",
"373 163 CURVE",
"374 321 OFFCURVE",
"315 306 OFFCURVE",
"276 288 CURVE SMOOTH",
"207 257 OFFCURVE",
"182 244 OFFCURVE",
"127 189 CURVE SMOOTH",
"109 172 OFFCURVE",
"101 167 OFFCURVE",
"86 144 CURVE",
"92 199 OFFCURVE",
"137 249 OFFCURVE",
"138 262 CURVE SMOOTH",
"142 294 OFFCURVE",
"104 304 OFFCURVE",
"89 276 CURVE SMOOTH",
"60 220 OFFCURVE",
"20 127 OFFCURVE",
"20 67 CURVE SMOOTH",
"20 33 OFFCURVE",
"39 23 OFFCURVE",
"56 43 CURVE",
"56 43 OFFCURVE",
"60 70 OFFCURVE",
"94 107 CURVE SMOOTH",
"142 159 OFFCURVE",
"229 232 OFFCURVE",
"283 249 CURVE SMOOTH",
"313 259 OFFCURVE",
"318 211 OFFCURVE",
"318 163 CURVE SMOOTH"
);
}
);
};
layerId = "34A4CA4C-C6E5-4C7E-9ECD-8F87FE1EC3A4";
paths = (
{
closed = 1;
nodes = (
"617 -15 OFFCURVE",
"621 -7 OFFCURVE",
"621 3 CURVE SMOOTH",
"621 14 OFFCURVE",
"616 29 OFFCURVE",
"610 38 CURVE",
"615 72 OFFCURVE",
"630 132 OFFCURVE",
"650 179 CURVE SMOOTH",
"672 229 OFFCURVE",
"680 264 OFFCURVE",
"680 288 CURVE SMOOTH",
"680 324 OFFCURVE",
"660 335 OFFCURVE",
"637 335 CURVE SMOOTH",
"618 335 OFFCURVE",
"596 327 OFFCURVE",
"582 321 CURVE SMOOTH",
"509 288 OFFCURVE",
"479 268 OFFCURVE",
"421 210 CURVE SMOOTH",
"403 192 OFFCURVE",
"392 178 OFFCURVE",
"373 163 CURVE",
"374 272 OFFCURVE",
"346 299 OFFCURVE",
"315 299 CURVE SMOOTH",
"302 299 OFFCURVE",
"288 294 OFFCURVE",
"276 288 CURVE SMOOTH",
"207 257 OFFCURVE",
"182 244 OFFCURVE",
"127 189 CURVE SMOOTH",
"109 172 OFFCURVE",
"101 167 OFFCURVE",
"86 144 CURVE",
"92 199 OFFCURVE",
"137 249 OFFCURVE",
"138 262 CURVE SMOOTH",
"140 281 OFFCURVE",
"128 292 OFFCURVE",
"114 292 CURVE SMOOTH",
"105 292 OFFCURVE",
"95 287 OFFCURVE",
"89 276 CURVE SMOOTH",
"60 220 OFFCURVE",
"20 127 OFFCURVE",
"20 67 CURVE SMOOTH",
"20 45 OFFCURVE",
"28 33 OFFCURVE",
"39 33 CURVE SMOOTH",
"44 33 OFFCURVE",
"50 36 OFFCURVE",
"56 43 CURVE",
"56 43 OFFCURVE",
"60 70 OFFCURVE",
"94 107 CURVE SMOOTH",
"142 159 OFFCURVE",
"229 232 OFFCURVE",
"283 249 CURVE SMOOTH",
"313 259 OFFCURVE",
"318 211 OFFCURVE",
"318 163 CURVE SMOOTH",
"318 153 LINE",
"317 153 OFFCURVE",
"314 144 OFFCURVE",
"303 81 CURVE SMOOTH",
"299 60 OFFCURVE",
"311 50 OFFCURVE",
"325 50 CURVE SMOOTH",
"334 50 OFFCURVE",
"344 55 OFFCURVE",
"351 63 CURVE SMOOTH",
"360 73 OFFCURVE",
"377 108 OFFCURVE",
"396 129 CURVE SMOOTH",
"448 186 OFFCURVE",
"539 257 OFFCURVE",
"595 274 CURVE SMOOTH",
"600 276 OFFCURVE",
"605 276 OFFCURVE",
"609 276 CURVE SMOOTH",
"617 276 OFFCURVE",
"622 272 OFFCURVE",
"622 262 CURVE SMOOTH",
"622 249 OFFCURVE",
"614 226 OFFCURVE",
"597 188 CURVE SMOOTH",
"582 155 OFFCURVE",
"564 97 OFFCURVE",
"564 51 CURVE SMOOTH",
"564 16 OFFCURVE",
"575 -12 OFFCURVE",
"606 -14 CURVE SMOOTH"
);
}
);
width = 699;
}
);
note = m;
unicode = 006D;
},
{
glyphname = n;
lastChange = "2022-01-12 01:27:39 +0000";
layers = (
{
background = {
paths = (
{
closed = 1;
nodes = (
"109 172 OFFCURVE",
"101 167 OFFCURVE",
"86 144 CURVE",
"98 192 OFFCURVE",
"105 215 OFFCURVE",
"118 237 CURVE SMOOTH",
"127 252 OFFCURVE",
"135 280 OFFCURVE",
"137 293 CURVE SMOOTH",
"141 325 OFFCURVE",
"104 335 OFFCURVE",
"89 307 CURVE SMOOTH",
"60 251 OFFCURVE",
"38 176 OFFCURVE",
"20 67 CURVE SMOOTH",
"14 33 OFFCURVE",
"41 22 OFFCURVE",
"56 43 CURVE",
"56 43 OFFCURVE",
"63 64 OFFCURVE",
"97 101 CURVE SMOOTH",
"145 153 OFFCURVE",
"290 259 OFFCURVE",
"344 276 CURVE SMOOTH",
"375 285 OFFCURVE",
"401 271 OFFCURVE",
"367 195 CURVE SMOOTH",
"351 158 OFFCURVE",
"342 91 OFFCURVE",
"341 56 CURVE SMOOTH",
"340 16 OFFCURVE",
"365 -12 OFFCURVE",
"386 -8 CURVE SMOOTH",
"403 -4 OFFCURVE",
"396 18 OFFCURVE",
"397 51 CURVE SMOOTH",
"398 88 OFFCURVE",
"402 143 OFFCURVE",
"422 189 CURVE SMOOTH",
"500 372 OFFCURVE",
"371 338 OFFCURVE",
"332 320 CURVE SMOOTH",
"262 289 OFFCURVE",
"181 244 OFFCURVE",
"126 189 CURVE SMOOTH"
);
}
);
};
layerId = "34A4CA4C-C6E5-4C7E-9ECD-8F87FE1EC3A4";
paths = (
{
closed = 1;
nodes = (
"395 -8 OFFCURVE",
"398 2 OFFCURVE",
"398 15 CURVE SMOOTH",
"398 23 OFFCURVE",
"397 33 OFFCURVE",
"397 44 CURVE SMOOTH",
"397 81 OFFCURVE",
"401 140 OFFCURVE",
"422 189 CURVE SMOOTH",
"439 230 OFFCURVE",
"446 260 OFFCURVE",
"446 282 CURVE SMOOTH",
"446 323 OFFCURVE",
"421 335 OFFCURVE",
"394 335 CURVE SMOOTH",
"371 335 OFFCURVE",
"346 326 OFFCURVE",
"332 320 CURVE SMOOTH",
"262 289 OFFCURVE",
"181 244 OFFCURVE",
"126 189 CURVE SMOOTH",
"109 172 OFFCURVE",
"101 167 OFFCURVE",
"86 144 CURVE",
"98 192 OFFCURVE",
"105 215 OFFCURVE",
"118 237 CURVE SMOOTH",
"128 254 OFFCURVE",
"137 287 OFFCURVE",
"137 297 CURVE SMOOTH",
"137 314 OFFCURVE",
"126 323 OFFCURVE",
"114 323 CURVE SMOOTH",
"105 323 OFFCURVE",
"95 318 OFFCURVE",
"89 307 CURVE SMOOTH",
"60 251 OFFCURVE",
"38 176 OFFCURVE",
"20 67 CURVE SMOOTH",
"16 45 OFFCURVE",
"26 32 OFFCURVE",
"38 32 CURVE SMOOTH",
"44 32 OFFCURVE",
"51 36 OFFCURVE",
"56 43 CURVE",
"56 43 OFFCURVE",
"63 64 OFFCURVE",
"97 101 CURVE SMOOTH",
"145 153 OFFCURVE",
"290 259 OFFCURVE",
"344 276 CURVE SMOOTH",
"349 278 OFFCURVE",
"355 278 OFFCURVE",
"359 278 CURVE SMOOTH",
"373 278 OFFCURVE",
"383 271 OFFCURVE",
"383 252 CURVE SMOOTH",
"383 239 OFFCURVE",
"378 220 OFFCURVE",
"367 195 CURVE SMOOTH",
"351 157 OFFCURVE",
"341 88 OFFCURVE",
"341 54 CURVE SMOOTH",
"341 18 OFFCURVE",
"362 -8 OFFCURVE",
"382 -8 CURVE SMOOTH"
);
}
);
width = 460;
}
);
note = n;
unicode = 006E;
},
{
glyphname = eng;
lastChange = "2022-01-12 01:24:45 +0000";
layers = (
{
background = {
paths = (
{
closed = 1;
nodes = (
"262 289 OFFCURVE",
"181 244 OFFCURVE",
"126 189 CURVE SMOOTH",
"109 172 OFFCURVE",
"101 167 OFFCURVE",
"86 144 CURVE",
"98 192 OFFCURVE",
"105 215 OFFCURVE",
"118 237 CURVE SMOOTH",
"128 254 OFFCURVE",
"137 287 OFFCURVE",
"137 297 CURVE SMOOTH",
"137 314 OFFCURVE",
"126 323 OFFCURVE",
"114 323 CURVE SMOOTH",
"105 323 OFFCURVE",
"95 318 OFFCURVE",
"89 307 CURVE SMOOTH",
"60 251 OFFCURVE",
"38 176 OFFCURVE",
"20 67 CURVE SMOOTH",
"16 45 OFFCURVE",
"26 32 OFFCURVE",
"38 32 CURVE SMOOTH",
"44 32 OFFCURVE",
"51 36 OFFCURVE",
"56 43 CURVE",
"56 43 OFFCURVE",
"63 64 OFFCURVE",
"97 101 CURVE SMOOTH",
"145 153 OFFCURVE",
"290 259 OFFCURVE",
"344 276 CURVE SMOOTH",
"349 278 OFFCURVE",
"354 278 OFFCURVE",
"359 278 CURVE SMOOTH",
"373 278 OFFCURVE",
"383 271 OFFCURVE",
"383 252 CURVE SMOOTH",
"383 249 OFFCURVE",
"383 245 OFFCURVE",
"382 241 CURVE SMOOTH",
"383 245 OFFCURVE",
"337 96 OFFCURVE",
"321 44 CURVE SMOOTH",
"294 -47 OFFCURVE",
"259 -151 OFFCURVE",
"227 -192 CURVE SMOOTH",
"214 -207 OFFCURVE",
"204 -215 OFFCURVE",
"190 -215 CURVE SMOOTH",
"185 -215 OFFCURVE",
"180 -214 OFFCURVE",
"174 -212 CURVE SMOOTH",
"161 -207 OFFCURVE",
"145 -178 OFFCURVE",
"135 -176 CURVE SMOOTH",
"126 -175 OFFCURVE",
"120 -174 OFFCURVE",
"116 -174 CURVE SMOOTH",
"110 -174 OFFCURVE",
"109 -176 OFFCURVE",
"109 -186 CURVE SMOOTH",
"109 -190 OFFCURVE",
"109 -196 OFFCURVE",
"109 -203 CURVE SMOOTH",
"110 -223 OFFCURVE",
"120 -240 OFFCURVE",
"147 -248 CURVE SMOOTH",
"165 -253 OFFCURVE",
"179 -256 OFFCURVE",
"192 -256 CURVE SMOOTH",
"211 -256 OFFCURVE",
"226 -250 OFFCURVE",
"240 -235 CURVE SMOOTH",
"279 -194 OFFCURVE",
"321 -115 OFFCURVE",
"371 28 CURVE SMOOTH",
"387 75 OFFCURVE",
"405 129 OFFCURVE",
"422 189 CURVE SMOOTH",
"432 223 OFFCURVE",
"436 249 OFFCURVE",
"436 269 CURVE SMOOTH",
"436 319 OFFCURVE",
"411 333 OFFCURVE",
"385 333 CURVE SMOOTH",
"366 333 OFFCURVE",
"345 326 OFFCURVE",
"332 320 CURVE SMOOTH"
);
}
);
};
layerId = "34A4CA4C-C6E5-4C7E-9ECD-8F87FE1EC3A4";
paths = (
{
closed = 1;
nodes = (
"211 -256 OFFCURVE",
"226 -250 OFFCURVE",
"240 -235 CURVE SMOOTH",
"279 -194 OFFCURVE",
"321 -115 OFFCURVE",
"371 28 CURVE SMOOTH",
"387 75 OFFCURVE",
"405 129 OFFCURVE",
"422 189 CURVE SMOOTH",
"432 223 OFFCURVE",
"436 249 OFFCURVE",
"436 269 CURVE SMOOTH",
"436 319 OFFCURVE",
"411 333 OFFCURVE",
"385 333 CURVE SMOOTH",
"366 333 OFFCURVE",
"345 326 OFFCURVE",
"332 320 CURVE SMOOTH",
"262 289 OFFCURVE",
"181 244 OFFCURVE",
"126 189 CURVE SMOOTH",
"109 172 OFFCURVE",
"101 167 OFFCURVE",
"86 144 CURVE",
"98 192 OFFCURVE",
"105 215 OFFCURVE",
"118 237 CURVE SMOOTH",
"128 254 OFFCURVE",
"137 287 OFFCURVE",
"137 297 CURVE SMOOTH",
"137 314 OFFCURVE",
"126 323 OFFCURVE",
"114 323 CURVE SMOOTH",
"105 323 OFFCURVE",
"95 318 OFFCURVE",
"89 307 CURVE SMOOTH",
"60 251 OFFCURVE",
"38 176 OFFCURVE",
"20 67 CURVE SMOOTH",
"16 45 OFFCURVE",
"26 32 OFFCURVE",
"38 32 CURVE SMOOTH",
"44 32 OFFCURVE",
"51 36 OFFCURVE",
"56 43 CURVE",
"56 43 OFFCURVE",
"63 64 OFFCURVE",
"97 101 CURVE SMOOTH",
"145 153 OFFCURVE",
"290 259 OFFCURVE",
"344 276 CURVE SMOOTH",
"349 278 OFFCURVE",
"354 278 OFFCURVE",
"359 278 CURVE SMOOTH",
"373 278 OFFCURVE",
"383 271 OFFCURVE",
"383 252 CURVE SMOOTH",
"383 249 OFFCURVE",
"383 245 OFFCURVE",
"382 241 CURVE SMOOTH",
"321 44 LINE SMOOTH",
"294 -47 OFFCURVE",
"259 -151 OFFCURVE",
"227 -192 CURVE SMOOTH",
"214 -207 OFFCURVE",
"204 -215 OFFCURVE",
"190 -215 CURVE SMOOTH",
"185 -215 OFFCURVE",
"180 -214 OFFCURVE",
"174 -212 CURVE SMOOTH",
"161 -207 OFFCURVE",
"145 -178 OFFCURVE",
"135 -176 CURVE SMOOTH",
"126 -175 OFFCURVE",
"120 -174 OFFCURVE",
"116 -174 CURVE SMOOTH",
"110 -174 OFFCURVE",
"109 -176 OFFCURVE",
"109 -186 CURVE SMOOTH",
"109 -203 LINE SMOOTH",
"110 -223 OFFCURVE",
"120 -240 OFFCURVE",
"147 -248 CURVE SMOOTH",
"165 -253 OFFCURVE",
"179 -256 OFFCURVE",
"192 -256 CURVE SMOOTH"
);
}
);
width = 460;
}
);
unicode = 014B;
},
{
glyphname = o;
lastChange = "2022-01-12 01:24:45 +0000";
layers = (
{
background = {
paths = (
{
closed = 1;
nodes = (
"215 274 LINE SMOOTH",
"245 268 OFFCURVE",
"261 303 OFFCURVE",
"231 310 CURVE SMOOTH",
"152 330 OFFCURVE",
"65 271 OFFCURVE",
"37 197 CURVE SMOOTH",
"8 119 OFFCURVE",
"39 31 OFFCURVE",
"112 21 CURVE SMOOTH",
"205 9 OFFCURVE",
"280 69 OFFCURVE",
"321 119 CURVE",
"393 192 OFFCURVE",
"358 286 OFFCURVE",
"269 275 CURVE SMOOTH",
"242 272 OFFCURVE",
"216 267 OFFCURVE",
"197 260 CURVE SMOOTH",
"168 249 OFFCURVE",
"185 205 OFFCURVE",
"214 216 CURVE SMOOTH",
"229 222 OFFCURVE",
"249 225 OFFCURVE",
"271 228 CURVE SMOOTH",
"290 230 OFFCURVE",
"328 212 OFFCURVE",
"286 142 CURVE",
"254 99 OFFCURVE",
"186 56 OFFCURVE",
"121 65 CURVE",
"89 65 OFFCURVE",
"59 121 OFFCURVE",
"80 180 CURVE SMOOTH",
"100 236 OFFCURVE",
"166 283 OFFCURVE",
"216 274 CURVE SMOOTH"
);
}
);
};
layerId = "34A4CA4C-C6E5-4C7E-9ECD-8F87FE1EC3A4";
paths = (
{
closed = 1;
nodes = (
"218 19 OFFCURVE",
"284 73 OFFCURVE",
"321 119 CURVE",
"348 146 OFFCURVE",
"359 176 OFFCURVE",
"359 202 CURVE SMOOTH",
"359 243 OFFCURVE",
"331 276 OFFCURVE",
"283 276 CURVE SMOOTH",
"278 276 OFFCURVE",
"274 276 OFFCURVE",
"269 275 CURVE SMOOTH",
"242 272 OFFCURVE",
"216 267 OFFCURVE",
"197 260 CURVE SMOOTH",
"186 256 OFFCURVE",
"182 248 OFFCURVE",
"182 239 CURVE SMOOTH",
"182 227 OFFCURVE",
"191 214 OFFCURVE",
"205 214 CURVE SMOOTH",
"208 214 OFFCURVE",
"211 215 OFFCURVE",
"214 216 CURVE SMOOTH",
"229 222 OFFCURVE",
"249 225 OFFCURVE",
"271 228 CURVE SMOOTH",
"284 229 OFFCURVE",
"305 222 OFFCURVE",
"305 195 CURVE SMOOTH",
"305 183 OFFCURVE",
"300 165 OFFCURVE",
"286 142 CURVE",
"257 103 OFFCURVE",
"198 64 OFFCURVE",
"139 64 CURVE SMOOTH",
"133 64 OFFCURVE",
"127 64 OFFCURVE",
"121 65 CURVE",
"96 65 OFFCURVE",
"73 98 OFFCURVE",
"73 140 CURVE SMOOTH",
"73 153 OFFCURVE",
"75 166 OFFCURVE",
"80 180 CURVE SMOOTH",
"98 231 OFFCURVE",
"155 275 OFFCURVE",
"203 275 CURVE SMOOTH",
"208 275 OFFCURVE",
"212 275 OFFCURVE",
"216 274 CURVE",
"215 274 LINE SMOOTH",
"234 270 OFFCURVE",
"247 283 OFFCURVE",
"247 294 CURVE SMOOTH",
"247 301 OFFCURVE",
"242 307 OFFCURVE",
"231 310 CURVE SMOOTH",
"220 313 OFFCURVE",
"210 314 OFFCURVE",
"199 314 CURVE SMOOTH",
"130 314 OFFCURVE",
"61 261 OFFCURVE",
"37 197 CURVE SMOOTH",
"30 177 OFFCURVE",
"26 157 OFFCURVE",
"26 138 CURVE SMOOTH",
"26 80 OFFCURVE",
"57 28 OFFCURVE",
"112 21 CURVE SMOOTH",
"120 20 OFFCURVE",
"128 19 OFFCURVE",
"136 19 CURVE SMOOTH"
);
}
);
width = 380;
}
);
note = o;
unicode = 006F;
},
{
glyphname = oslash;
lastChange = "2022-01-12 01:24:45 +0000";
layers = (
{
background = {
paths = (
{
closed = 1;
nodes = (
"342 416 OFFCURVE",
"290 395 OFFCURVE",
"290 395 CURVE",
"238 307 LINE",
"231 310 LINE",
"152 330 OFFCURVE",
"65 271 OFFCURVE",
"37 197 CURVE SMOOTH",
"13 133 OFFCURVE",
"30 62 OFFCURVE",
"77 33 CURVE",
"9 -82 LINE",
"9 -82 OFFCURVE",
"30 -118 OFFCURVE",
"43 -88 CURVE",
"58 -72 OFFCURVE",
"85 -31 OFFCURVE",
"117 20 CURVE",
"208 11 OFFCURVE",
"281 70 OFFCURVE",
"321 119 CURVE",
"393 192 OFFCURVE",
"358 286 OFFCURVE",
"269 275 CURVE SMOOTH",
"268 275 LINE",
"306 341 OFFCURVE",
"334 390 OFFCURVE",
"334 390 CURVE"
);
},
{
closed = 1;
nodes = (
"271 228 LINE SMOOTH",
"290 230 OFFCURVE",
"328 212 OFFCURVE",
"286 142 CURVE",
"258 104 OFFCURVE",
"202 66 OFFCURVE",
"144 64 CURVE",
"175 115 OFFCURVE",
"208 171 OFFCURVE",
"238 223 CURVE"
);
},
{
closed = 1;
nodes = (
"215 274 LINE",
"216 274 OFFCURVE",
"217 273 OFFCURVE",
"218 273 CURVE",
"213 265 LINE",
"207 264 OFFCURVE",
"202 262 OFFCURVE",
"197 260 CURVE SMOOTH",
"179 253 OFFCURVE",
"178 233 OFFCURVE",
"188 222 CURVE",
"100 73 LINE",
"78 90 OFFCURVE",
"64 134 OFFCURVE",
"80 180 CURVE SMOOTH",
"100 236 OFFCURVE",
"166 283 OFFCURVE",
"216 274 CURVE SMOOTH"
);
}
);
};
layerId = "34A4CA4C-C6E5-4C7E-9ECD-8F87FE1EC3A4";
paths = (
{
closed = 1;
nodes = (
"35 -100 OFFCURVE",
"39 -97 OFFCURVE",
"43 -88 CURVE",
"58 -72 OFFCURVE",
"85 -31 OFFCURVE",
"117 20 CURVE",
"208 11 OFFCURVE",
"281 70 OFFCURVE",
"321 119 CURVE",
"348 146 OFFCURVE",
"359 176 OFFCURVE",
"359 202 CURVE SMOOTH",
"359 243 OFFCURVE",
"331 276 OFFCURVE",
"283 276 CURVE SMOOTH",
"278 276 OFFCURVE",
"274 276 OFFCURVE",
"269 275 CURVE SMOOTH",
"268 275 LINE",
"334 390 LINE",
"337 400 OFFCURVE",
"331 403 OFFCURVE",
"323 403 CURVE SMOOTH",
"310 403 OFFCURVE",
"290 395 OFFCURVE",
"290 395 CURVE",
"238 307 LINE",
"231 310 LINE SMOOTH",
"220 313 OFFCURVE",
"210 314 OFFCURVE",
"199 314 CURVE SMOOTH",
"130 314 OFFCURVE",
"61 261 OFFCURVE",
"37 197 CURVE SMOOTH",
"30 177 OFFCURVE",
"26 157 OFFCURVE",
"26 138 CURVE SMOOTH",
"26 94 OFFCURVE",
"44 53 OFFCURVE",
"77 33 CURVE",
"9 -82 LINE",
"9 -82 OFFCURVE",
"19 -100 OFFCURVE",
"30 -100 CURVE SMOOTH"
);
},
{
closed = 1;
nodes = (
"85 85 OFFCURVE",
"73 110 OFFCURVE",
"73 140 CURVE SMOOTH",
"73 153 OFFCURVE",
"75 166 OFFCURVE",
"80 180 CURVE SMOOTH",
"98 231 OFFCURVE",
"155 275 OFFCURVE",
"203 275 CURVE SMOOTH",
"208 275 OFFCURVE",
"212 275 OFFCURVE",
"216 274 CURVE",
"215 274 LINE",
"216 274 OFFCURVE",
"217 273 OFFCURVE",
"218 273 CURVE",
"213 265 LINE",
"207 264 OFFCURVE",
"202 262 OFFCURVE",
"197 260 CURVE SMOOTH",
"186 256 OFFCURVE",
"182 247 OFFCURVE",
"182 239 CURVE SMOOTH",
"182 233 OFFCURVE",
"184 226 OFFCURVE",
"188 222 CURVE",
"100 73 LINE"
);
},
{
closed = 1;
nodes = (
"175 115 OFFCURVE",
"208 171 OFFCURVE",
"238 223 CURVE",
"271 228 LINE SMOOTH",
"284 229 OFFCURVE",
"305 222 OFFCURVE",
"305 195 CURVE SMOOTH",
"305 183 OFFCURVE",
"300 165 OFFCURVE",
"286 142 CURVE",
"258 104 OFFCURVE",
"202 66 OFFCURVE",
"144 64 CURVE"
);
}
);
width = 380;
}
);
note = oslash;
unicode = 00F8;
},
{
glyphname = oe;
lastChange = "2022-01-12 01:24:45 +0000";
layers = (
{
background = {
paths = (
{
closed = 1;
nodes = (
"345 137 LINE",
"401 130 OFFCURVE",
"492 137 OFFCURVE",
"554 162 CURVE SMOOTH",
"600 180 OFFCURVE",
"659 218 OFFCURVE",
"659 273 CURVE SMOOTH",
"659 363 OFFCURVE",
"556 377 OFFCURVE",
"464 351 CURVE SMOOTH",
"426 340 OFFCURVE",
"375 307 OFFCURVE",
"338 256 CURVE",
"322 271 OFFCURVE",
"299 279 OFFCURVE",
"269 275 CURVE SMOOTH",
"242 272 OFFCURVE",
"216 267 OFFCURVE",
"197 260 CURVE SMOOTH",
"168 249 OFFCURVE",
"185 205 OFFCURVE",
"214 216 CURVE SMOOTH",
"229 222 OFFCURVE",
"249 225 OFFCURVE",
"271 228 CURVE SMOOTH",
"284 230 OFFCURVE",
"304 222 OFFCURVE",
"305 197 CURVE",
"299 183 OFFCURVE",
"295 168 OFFCURVE",
"292 153 CURVE",
"290 149 OFFCURVE",
"288 146 OFFCURVE",
"286 142 CURVE",
"254 99 OFFCURVE",
"186 56 OFFCURVE",
"121 65 CURVE",
"89 65 OFFCURVE",
"59 121 OFFCURVE",
"80 180 CURVE SMOOTH",
"100 236 OFFCURVE",
"166 283 OFFCURVE",
"216 274 CURVE SMOOTH",
"215 274 LINE SMOOTH",
"245 268 OFFCURVE",
"261 303 OFFCURVE",
"231 310 CURVE SMOOTH",
"152 330 OFFCURVE",
"65 271 OFFCURVE",
"37 197 CURVE SMOOTH",
"8 119 OFFCURVE",
"39 31 OFFCURVE",
"112 21 CURVE SMOOTH",
"185 11 OFFCURVE",
"246 46 OFFCURVE",
"289 86 CURVE",
"297 25 OFFCURVE",
"333 -31 OFFCURVE",
"405 -54 CURVE SMOOTH",
"442 -66 OFFCURVE",
"469 -44 OFFCURVE",
"412 -14 CURVE",
"387 6 OFFCURVE",
"335 51 OFFCURVE",
"343 121 CURVE SMOOTH",
"343 126 OFFCURVE",
"344 131 OFFCURVE",
"345 136 CURVE SMOOTH"
);
},
{
closed = 1;
nodes = (
"386 253 OFFCURVE",
"441 295 OFFCURVE",
"469 303 CURVE SMOOTH",
"534 323 OFFCURVE",
"595 319 OFFCURVE",
"601 284 CURVE SMOOTH",
"607 244 OFFCURVE",
"574 216 OFFCURVE",
"542 201 CURVE SMOOTH",
"484 175 OFFCURVE",
"403 177 OFFCURVE",
"358 183 CURVE"
);
}
);
};
layerId = "34A4CA4C-C6E5-4C7E-9ECD-8F87FE1EC3A4";
paths = (
{
closed = 1;
nodes = (
"437 -57 OFFCURVE",
"445 -53 OFFCURVE",
"445 -45 CURVE SMOOTH",
"445 -38 OFFCURVE",
"436 -26 OFFCURVE",
"412 -14 CURVE",
"389 5 OFFCURVE",
"342 45 OFFCURVE",
"342 107 CURVE SMOOTH",
"342 111 OFFCURVE",
"342 116 OFFCURVE",
"343 121 CURVE SMOOTH",
"343 126 OFFCURVE",
"344 131 OFFCURVE",
"345 136 CURVE SMOOTH",
"345 137 LINE",
"359 135 OFFCURVE",
"374 134 OFFCURVE",
"391 134 CURVE SMOOTH",
"443 134 OFFCURVE",
"507 143 OFFCURVE",
"554 162 CURVE SMOOTH",
"600 180 OFFCURVE",
"659 218 OFFCURVE",
"659 273 CURVE SMOOTH",
"659 337 OFFCURVE",
"607 363 OFFCURVE",
"543 363 CURVE SMOOTH",
"518 363 OFFCURVE",
"490 358 OFFCURVE",
"464 351 CURVE SMOOTH",
"426 340 OFFCURVE",
"375 307 OFFCURVE",
"338 256 CURVE",
"325 268 OFFCURVE",
"307 276 OFFCURVE",
"284 276 CURVE SMOOTH",
"279 276 OFFCURVE",
"274 276 OFFCURVE",
"269 275 CURVE SMOOTH",
"242 272 OFFCURVE",
"216 267 OFFCURVE",
"197 260 CURVE SMOOTH",
"186 256 OFFCURVE",
"182 248 OFFCURVE",
"182 239 CURVE SMOOTH",
"182 227 OFFCURVE",
"191 214 OFFCURVE",
"205 214 CURVE SMOOTH",
"208 214 OFFCURVE",
"211 215 OFFCURVE",
"214 216 CURVE SMOOTH",
"229 222 OFFCURVE",
"249 225 OFFCURVE",
"271 228 CURVE SMOOTH",
"284 230 OFFCURVE",
"304 222 OFFCURVE",
"305 197 CURVE",
"299 183 OFFCURVE",
"295 168 OFFCURVE",
"292 153 CURVE",
"286 142 LINE",
"257 103 OFFCURVE",
"198 64 OFFCURVE",
"139 64 CURVE SMOOTH",
"133 64 OFFCURVE",
"127 64 OFFCURVE",
"121 65 CURVE",
"96 65 OFFCURVE",
"73 98 OFFCURVE",
"73 140 CURVE SMOOTH",
"73 153 OFFCURVE",
"75 166 OFFCURVE",
"80 180 CURVE SMOOTH",
"98 231 OFFCURVE",
"155 275 OFFCURVE",
"203 275 CURVE SMOOTH",
"208 275 OFFCURVE",
"212 275 OFFCURVE",
"216 274 CURVE",
"215 274 LINE SMOOTH",
"234 270 OFFCURVE",
"247 283 OFFCURVE",
"247 294 CURVE SMOOTH",
"247 301 OFFCURVE",
"242 307 OFFCURVE",
"231 310 CURVE SMOOTH",
"220 313 OFFCURVE",
"210 314 OFFCURVE",
"199 314 CURVE SMOOTH",
"130 314 OFFCURVE",
"61 261 OFFCURVE",
"37 197 CURVE SMOOTH",
"30 177 OFFCURVE",
"26 157 OFFCURVE",
"26 138 CURVE SMOOTH",
"26 80 OFFCURVE",
"57 28 OFFCURVE",
"112 21 CURVE SMOOTH",
"121 20 OFFCURVE",
"129 19 OFFCURVE",
"137 19 CURVE SMOOTH",
"199 19 OFFCURVE",
"251 51 OFFCURVE",
"289 86 CURVE",
"297 25 OFFCURVE",
"333 -31 OFFCURVE",
"405 -54 CURVE SMOOTH",
"412 -56 OFFCURVE",
"419 -57 OFFCURVE",
"424 -57 CURVE SMOOTH"
);
},
{
closed = 1;
nodes = (
"395 179 OFFCURVE",
"374 181 OFFCURVE",
"358 183 CURVE",
"386 253 OFFCURVE",
"441 295 OFFCURVE",
"469 303 CURVE SMOOTH",
"495 311 OFFCURVE",
"520 315 OFFCURVE",
"541 315 CURVE SMOOTH",
"574 315 OFFCURVE",
"597 305 OFFCURVE",
"601 284 CURVE SMOOTH",
"607 244 OFFCURVE",
"574 216 OFFCURVE",
"542 201 CURVE SMOOTH",
"505 184 OFFCURVE",
"458 179 OFFCURVE",
"418 179 CURVE SMOOTH"
);
}
);
width = 658;
}
);
note = oe;
unicode = 0153;
},
{
glyphname = p;
lastChange = "2022-01-12 01:24:45 +0000";
layers = (
{
background = {
paths = (
{
closed = 1;
nodes = (
"276 334 OFFCURVE",
"202 282 OFFCURVE",
"133 185 CURVE",
"152 223 OFFCURVE",
"174 261 OFFCURVE",
"193 285 CURVE SMOOTH",
"204 299 OFFCURVE",
"213 323 OFFCURVE",
"214 336 CURVE SMOOTH",
"218 368 OFFCURVE",
"180 378 OFFCURVE",
"165 350 CURVE SMOOTH",
"108 242 OFFCURVE",
"-30 -98 OFFCURVE",
"-39 -203 CURVE SMOOTH",
"-44 -253 OFFCURVE",
"4 -265 OFFCURVE",
"22 -253 CURVE SMOOTH",
"51 -232 OFFCURVE",
"6 -211 OFFCURVE",
"7 -191 CURVE SMOOTH",
"10 -151 OFFCURVE",
"45 -34 OFFCURVE",
"90 78 CURVE",
"185 212 OFFCURVE",
"310 303 OFFCURVE",
"379 312 CURVE SMOOTH",
"425 318 OFFCURVE",
"431 277 OFFCURVE",
"418 239 CURVE",
"371 142 OFFCURVE",
"299 107 OFFCURVE",
"242 77 CURVE SMOOTH",
"217 64 OFFCURVE",
"178 68 OFFCURVE",
"160 73 CURVE SMOOTH",
"138 79 OFFCURVE",
"96 -31 OFFCURVE",
"236 28 CURVE SMOOTH",
"325 65 OFFCURVE",
"409 107 OFFCURVE",
"463 218 CURVE",
"493 265 OFFCURVE",
"484 392 OFFCURVE",
"366 359 CURVE SMOOTH"
);
}
);
};
layerId = "34A4CA4C-C6E5-4C7E-9ECD-8F87FE1EC3A4";
paths = (
{
closed = 1;
nodes = (
"12 -257 OFFCURVE",
"18 -256 OFFCURVE",
"22 -253 CURVE SMOOTH",
"29 -248 OFFCURVE",
"32 -243 OFFCURVE",
"32 -238 CURVE SMOOTH",
"32 -222 OFFCURVE",
"6 -206 OFFCURVE",
"7 -191 CURVE SMOOTH",
"10 -151 OFFCURVE",
"45 -34 OFFCURVE",
"90 78 CURVE",
"189 218 OFFCURVE",
"321 313 OFFCURVE",
"387 313 CURVE SMOOTH",
"413 313 OFFCURVE",
"424 295 OFFCURVE",
"424 272 CURVE SMOOTH",
"424 262 OFFCURVE",
"422 250 OFFCURVE",
"418 239 CURVE",
"371 142 OFFCURVE",
"299 107 OFFCURVE",
"242 77 CURVE SMOOTH",
"230 71 OFFCURVE",
"214 68 OFFCURVE",
"198 68 CURVE SMOOTH",
"183 68 OFFCURVE",
"169 71 OFFCURVE",
"160 73 CURVE SMOOTH",
"150 76 OFFCURVE",
"137 56 OFFCURVE",
"137 37 CURVE SMOOTH",
"137 24 OFFCURVE",
"145 11 OFFCURVE",
"169 11 CURVE SMOOTH",
"185 11 OFFCURVE",
"206 15 OFFCURVE",
"236 28 CURVE SMOOTH",
"325 65 OFFCURVE",
"409 107 OFFCURVE",
"463 218 CURVE",
"472 232 OFFCURVE",
"478 254 OFFCURVE",
"478 276 CURVE SMOOTH",
"478 319 OFFCURVE",
"457 364 OFFCURVE",
"402 364 CURVE SMOOTH",
"391 364 OFFCURVE",
"379 363 OFFCURVE",
"366 359 CURVE SMOOTH",
"276 334 OFFCURVE",
"202 282 OFFCURVE",
"133 185 CURVE",
"152 223 OFFCURVE",
"174 261 OFFCURVE",
"193 285 CURVE SMOOTH",
"205 301 OFFCURVE",
"214 329 OFFCURVE",
"214 340 CURVE SMOOTH",
"214 357 OFFCURVE",
"203 366 OFFCURVE",
"190 366 CURVE SMOOTH",
"181 366 OFFCURVE",
"171 361 OFFCURVE",
"165 350 CURVE SMOOTH",
"108 242 OFFCURVE",
"-30 -98 OFFCURVE",
"-39 -203 CURVE SMOOTH",
"-43 -241 OFFCURVE",
"-16 -257 OFFCURVE",
"5 -257 CURVE SMOOTH"
);
}
);
width = 485;
}
);
note = p;
unicode = 0070;
},
{
glyphname = thorn;
lastChange = "2022-01-12 01:24:45 +0000";
layers = (
{
background = {
paths = (
{
closed = 1;
nodes = (
"284 336 OFFCURVE",
"216 291 OFFCURVE",
"152 211 CURVE",
"188 286 OFFCURVE",
"273 511 OFFCURVE",
"307 609 CURVE",
"307 610 LINE",
"317 640 OFFCURVE",
"265 660 OFFCURVE",
"255 630 CURVE SMOOTH",
"241 591 OFFCURVE",
"230 537 OFFCURVE",
"209 480 CURVE SMOOTH",
"190 431 OFFCURVE",
"166 364 OFFCURVE",
"141 302 CURVE SMOOTH",
"131 279 OFFCURVE",
"101 210 OFFCURVE",
"80 160 CURVE SMOOTH",
"28 22 OFFCURVE",
"-33 -137 OFFCURVE",
"-39 -203 CURVE SMOOTH",
"-44 -253 OFFCURVE",
"4 -265 OFFCURVE",
"22 -253 CURVE SMOOTH",
"51 -232 OFFCURVE",
"6 -211 OFFCURVE",
"7 -191 CURVE SMOOTH",
"10 -151 OFFCURVE",
"45 -34 OFFCURVE",
"90 78 CURVE",
"185 212 OFFCURVE",
"310 303 OFFCURVE",
"379 312 CURVE SMOOTH",
"425 318 OFFCURVE",
"431 277 OFFCURVE",
"418 239 CURVE",
"371 142 OFFCURVE",
"299 107 OFFCURVE",
"242 77 CURVE SMOOTH",
"217 64 OFFCURVE",
"178 68 OFFCURVE",
"160 73 CURVE SMOOTH",
"138 79 OFFCURVE",
"96 -31 OFFCURVE",
"236 28 CURVE SMOOTH",
"325 65 OFFCURVE",
"409 107 OFFCURVE",
"463 218 CURVE",
"493 265 OFFCURVE",
"484 392 OFFCURVE",
"366 359 CURVE SMOOTH"
);
}
);
};
layerId = "34A4CA4C-C6E5-4C7E-9ECD-8F87FE1EC3A4";
paths = (
{
closed = 1;
nodes = (
"12 -257 OFFCURVE",
"18 -256 OFFCURVE",
"22 -253 CURVE SMOOTH",
"29 -248 OFFCURVE",
"32 -243 OFFCURVE",
"32 -238 CURVE SMOOTH",
"32 -222 OFFCURVE",
"6 -206 OFFCURVE",
"7 -191 CURVE SMOOTH",
"10 -151 OFFCURVE",
"45 -34 OFFCURVE",
"90 78 CURVE",
"189 218 OFFCURVE",
"321 313 OFFCURVE",
"387 313 CURVE SMOOTH",
"413 313 OFFCURVE",
"424 295 OFFCURVE",
"424 272 CURVE SMOOTH",
"424 262 OFFCURVE",
"422 250 OFFCURVE",
"418 239 CURVE",
"371 142 OFFCURVE",
"299 107 OFFCURVE",
"242 77 CURVE SMOOTH",
"230 71 OFFCURVE",
"214 68 OFFCURVE",
"198 68 CURVE SMOOTH",
"183 68 OFFCURVE",
"169 71 OFFCURVE",
"160 73 CURVE SMOOTH",
"150 76 OFFCURVE",
"137 56 OFFCURVE",
"137 37 CURVE SMOOTH",
"137 24 OFFCURVE",
"145 11 OFFCURVE",
"169 11 CURVE SMOOTH",
"185 11 OFFCURVE",
"206 15 OFFCURVE",
"236 28 CURVE SMOOTH",
"325 65 OFFCURVE",
"409 107 OFFCURVE",
"463 218 CURVE",
"472 232 OFFCURVE",
"478 254 OFFCURVE",
"478 276 CURVE SMOOTH",
"478 319 OFFCURVE",
"457 364 OFFCURVE",
"402 364 CURVE SMOOTH",
"391 364 OFFCURVE",
"379 363 OFFCURVE",
"366 359 CURVE SMOOTH",
"284 336 OFFCURVE",
"216 291 OFFCURVE",
"152 211 CURVE",
"188 286 OFFCURVE",
"273 511 OFFCURVE",
"307 609 CURVE",
"307 610 LINE SMOOTH",
"308 613 OFFCURVE",
"308 616 OFFCURVE",
"308 618 CURVE SMOOTH",
"308 634 OFFCURVE",
"291 645 OFFCURVE",
"276 645 CURVE SMOOTH",
"267 645 OFFCURVE",
"258 640 OFFCURVE",
"255 630 CURVE SMOOTH",
"241 591 OFFCURVE",
"230 537 OFFCURVE",
"209 480 CURVE SMOOTH",
"190 431 OFFCURVE",
"166 364 OFFCURVE",
"141 302 CURVE SMOOTH",
"131 279 OFFCURVE",
"101 210 OFFCURVE",
"80 160 CURVE SMOOTH",
"26 17 OFFCURVE",
"-39 -149 OFFCURVE",
"-39 -210 CURVE SMOOTH",
"-39 -243 OFFCURVE",
"-15 -257 OFFCURVE",
"5 -257 CURVE SMOOTH"
);
}
);
width = 485;
}
);
note = thorn;
unicode = 00FE;
},
